<svg id="Vrstva_1" xmlns="http://www.w3.org/2000/svg" viewBox="0 0 276.2 97.7"><style>.st1{fill:#fff}.st2{fill:#93c01f}</style><path d="M43.7 2.1L11.6 16.9c-6.3 2.9-10 9.6-9.2 16.5l4.2 35.1c.8 6.9 6 12.5 12.8 13.8l34.7 6.8c6.8 1.3 13.7-1.9 17.1-7.9l17.2-30.9c3.4-6.1 2.5-13.6-2.2-18.7l-24-25.9C57.5.6 50-.9 43.7 2.1z" fill="#b97202"/><path class="st1" d="M107.2 49.9v-32h10.9c2.6 0 4.7.7 6.3 2.2s2.4 3.4 2.4 5.9c0 3.3-1.3 5.6-4 7 1.6.5 2.9 1.4 3.9 2.8s1.5 3.1 1.5 5.1c0 2.8-.9 4.9-2.7 6.5-1.8 1.6-4.1 2.4-6.9 2.4h-11.4zm3.2-18.1h7.8c1.6 0 2.9-.5 3.9-1.5s1.5-2.4 1.5-4c0-1.7-.5-3-1.5-4s-2.3-1.5-4-1.5h-7.7v11zm0 15.2h8.2c1.9 0 3.5-.6 4.6-1.7 1.1-1.1 1.7-2.6 1.7-4.5s-.6-3.4-1.8-4.6c-1.2-1.2-2.7-1.7-4.6-1.7h-8.1V47zM135 49.9v-32h3.1v32H135zM154 49.9V20.7h-11.5v-2.8h26.1v2.8h-11.5v29.2H154zM169.2 33.7c0-4.6 1.5-8.5 4.6-11.6 3.1-3.1 6.9-4.7 11.5-4.7 1.4 0 2.8.1 4.1.4s2.4.6 3.3 1c.8.4 1.6.8 2.3 1.2.7.4 1.1.8 1.4 1l.5.5-1.7 2.3-.4-.4c-.2-.2-.6-.5-1.3-.9-.7-.4-1.3-.8-2-1.1-.7-.3-1.6-.6-2.7-.8-1.1-.3-2.2-.4-3.3-.4-3.7 0-6.8 1.3-9.2 3.8s-3.6 5.7-3.6 9.5c0 3.9 1.2 7.2 3.7 9.8 2.4 2.7 5.5 4 9.3 4 1.2 0 2.4-.1 3.5-.4s2.1-.6 2.9-1.1c.8-.4 1.5-.8 2.1-1.3.6-.4 1.1-.8 1.3-1l.5-.5 1.8 2.2-.5.5c-.2.2-.7.6-1.5 1.2s-1.6 1.1-2.5 1.5c-.9.4-2 .8-3.4 1.2-1.4.4-2.8.5-4.3.5-4.7 0-8.5-1.6-11.6-4.8-3.3-2.9-4.8-6.9-4.8-11.6zM200.2 33.7c0-4.6 1.6-8.4 4.7-11.6 3.2-3.2 7-4.7 11.6-4.7 4.5 0 8.4 1.6 11.6 4.7 3.2 3.2 4.7 7 4.7 11.6 0 4.7-1.6 8.6-4.8 11.9-3.2 3.2-7 4.9-11.5 4.9s-8.4-1.6-11.5-4.9c-3.2-3.3-4.8-7.3-4.8-11.9zm3.2 0c0 3.9 1.3 7.2 3.8 9.8 2.5 2.7 5.6 4 9.2 4 3.6 0 6.7-1.3 9.2-4 2.5-2.7 3.8-5.9 3.8-9.8 0-3.8-1.3-7-3.8-9.6-2.5-2.6-5.6-3.9-9.2-3.9-3.6 0-6.7 1.3-9.2 3.9-2.5 2.6-3.8 5.8-3.8 9.6zM239.2 49.9v-32h3.1v32h-3.1zM250.7 49.9v-32h3l16.3 23 2.6 4.3h.1c-.2-1.8-.3-3.2-.3-4.3v-23h3.1v32h-3l-16.3-23-2.6-4.3h-.1c.2 1.8.3 3.2.3 4.3v23h-3.1z"/><g><path class="st2" d="M122.5 74.9c0 2-.5 3.4-1.4 4.1-.9.7-2.9 1.1-5.7 1.1h-8.1V54.9h7.8c2.9 0 4.8.4 5.8 1.1 1 .8 1.4 2.1 1.4 4.1v2.2c0 1.4-.3 2.4-.9 3.1-.6.7-1.6 1.2-3.1 1.4 1.4.1 2.5.5 3.2 1.3.7.8 1.1 2.1 1.1 3.7v3.1zm-9.5-9.7h1.6c.7 0 1.2-.1 1.4-.4.2-.2.4-.7.4-1.4v-2.3c0-.7-.1-1.2-.4-1.4-.2-.3-.7-.4-1.4-.4H113v5.9zm0 3.9v6.6h1.8c.7 0 1.2-.1 1.4-.4.2-.3.4-.7.4-1.4V71c0-.7-.1-1.2-.4-1.4-.2-.3-.7-.4-1.4-.4H113zM132.2 80.1h-5.9V54.9h5.9v25.2zM136.3 80.1V54.9h5.9v20.7h5.5v4.5h-11.4zM150.9 80.1V54.9h5.9v20.7h5.5v4.5h-11.4zM171.3 80.1h-5.9V54.9h5.9v25.2zM190.5 73.3c0 1.7-.1 3-.3 3.7-.2.7-.5 1.4-1 1.9-.5.6-1.1.9-1.9 1.2-.8.2-2.2.3-4.4.3-2.1 0-3.6-.1-4.4-.3-.8-.2-1.4-.6-1.9-1.2-.5-.5-.8-1.2-1-1.9-.2-.8-.3-2-.3-3.7V61.7c0-1.7.1-2.9.3-3.6.2-.8.5-1.4 1-1.9.5-.6 1.2-1 2.1-1.2.9-.2 2.3-.3 4.2-.3 2 0 3.4.1 4.2.3.8.2 1.5.6 2 1.2.5.5.8 1.2 1 1.9.2.8.3 2 .3 3.6v11.6zm-6 .9V60.9c0-.7-.1-1.2-.3-1.4-.2-.2-.6-.4-1.2-.4s-1.1.1-1.3.4c-.2.2-.3.7-.3 1.4v13.3c0 .7.1 1.2.3 1.4.2.2.6.3 1.3.3.6 0 1-.1 1.2-.3.2-.3.3-.7.3-1.4zM194.3 80.1V54.9h8.3l4.5 19.9-.3-19.9h5.3v25.2h-8.2l-4.6-20.5.4 20.5h-5.4zM215.4 80.1l3.7-25.2h9.4l3.8 25.2h-6l-.7-6.2H222l-.7 6.2h-5.9zm7.1-10.4h2.7l-1.3-11.9-1.4 11.9zM241.6 80.1h-5.9V54.9h5.9v25.2zM254.9 73.7c0-.9-.2-1.5-.5-1.8-.3-.3-.9-.5-1.8-.5h-1V80h-5.9V54.9h6.1c3.6 0 6 .5 7.2 1.4 1.2.9 1.7 2.6 1.7 5.1v2.9c0 1.5-.3 2.6-.9 3.3-.6.8-1.7 1.3-3.1 1.5 1.3.2 2.3.6 3 1.4.6.7 1 1.7 1 3v6.6h-5.8v-6.4zm-1.8-14.3h-1.4v7.8h1.4c.8 0 1.3-.1 1.5-.4s.4-.7.4-1.4v-4.2c0-.7-.1-1.2-.4-1.4s-.8-.4-1.5-.4zM264.7 80.1V54.9h11.1v4.5h-5.2V65h4.9v4.3h-4.9v6.3h5.7v4.5h-11.6z"/></g><path d="M35.2 3.1L6.6 23.9C1 28-1.4 35.2.8 41.8l10.9 33.7c2.2 6.5 8.3 11 15.3 11h35.4c6.9 0 13.1-4.5 15.2-11.1l10.9-33.7c2.1-6.6-.2-13.8-5.8-17.9L54.1 3.1C48.5-1 40.9-1 35.2 3.1z" fill="#f29100"/><g><path class="st1" d="M55.8 28c-1.6-.9-3.7-1.5-6.5-1.7v-6.5l-3.9.1-.1 6.3-3.2.1v-6.4l-3.9-.1v6.5l-8 .1v4.2l1.4-.1c1 0 1.4-.1 1.3 0 1.4.1 2.1.6 2.3 1.8l-.1 7.4h.4-.4v10.5c-.1.8-.6 1.2-1.4 1.2 0 .1-.9.1-2.9 0l-.7 4.7L38 56v6.5l3.9.1.2-6.4h3v6.5l3.9-.1.1-6.6c3.6-.1 6.4-.7 8.2-1.9 2.1-1.3 3.3-3.4 3.7-6.3.4-4.4-1.5-7.2-5.6-8.2 2.5-1.3 3.6-3.5 3.3-6.6 0-2.1-1-3.8-2.9-5zm-6.6 22.9c-1.4.3-3.5.5-6.3.4l-.9.1v-8.7l1-.1c2.8 0 4.9.1 6.4.5 2.5.7 3.7 2 3.7 4 .1 1.9-1.2 3.2-3.9 3.8zm-1-12.6c-1.2.3-2.9.4-5.3.4l-.8-.1.1-7.9h.7c2.4 0 4.2.1 5.3.4 2.1.6 3.1 1.7 3.2 3.6.1 1.8-1.1 3-3.2 3.6z"/></g><g><path class="st1" d="M44.7 69.5l1.4 3 3.3.5-2.4 2.3.6 3.3-2.9-1.6-3 1.6.6-3.3-2.4-2.3 3.3-.5zM54.5 70.6l1.2 2.3 2.5.3-1.9 1.8.5 2.5-2.3-1.2-2.2 1.2.4-2.5-1.8-1.8 2.5-.3zM62.7 71.7l.7 1.5 1.7.3-1.2 1.2.3 1.7-1.5-.8-1.5.8.3-1.7-1.3-1.2 1.7-.3zM34.8 70.6l-1.1 2.3-2.5.3L33 75l-.5 2.5 2.3-1.2 2.2 1.2-.4-2.5 1.8-1.8-2.5-.3zM26.6 71.7l-.7 1.5-1.7.3 1.2 1.2-.3 1.7 1.5-.8 1.5.8-.2-1.7 1.2-1.2-1.7-.3z"/></g></svg>