<?xml version="1.0" encoding="utf-8"?>
<!-- Svg Vector Icons : http://www.onlinewebfonts.com/icon -->
<!DOCTYPE svg PUBLIC "-//W3C//DTD SVG 1.1//EN" "http://www.w3.org/Graphics/SVG/1.1/DTD/svg11.dtd">
<svg version="1.1" xmlns="http://www.w3.org/2000/svg" xmlns:xlink="http://www.w3.org/1999/xlink" x="0px" y="0px" viewBox="0 0 1000 1000" enable-background="new 0 0 1000 1000" xml:space="preserve" fill="#fff" width="13">
<g><path d="M931.9,58.2c-33.3-31.9-70-48.1-109.2-48.1c-61.3,0-106.1,39.6-118.3,51.8c-17.2,17.1-604.7,605-604.7,605c-3.9,3.9-6.6,8.7-8.1,13.9c-13.2,49-79.6,266.4-80.2,268.5c-3.4,11.1-0.4,23.3,7.8,31.5c5.9,5.9,13.7,9,21.8,9c3.1,0,6.3-0.5,9.5-1.5c2.2-0.7,226.5-73.2,263.4-84.3c4.8-1.5,9.3-4.1,12.9-7.7c23.3-23.1,571.2-565.2,607.6-602.8c37.6-38.8,56.3-79.2,55.5-120C989.3,133.3,969.7,94.5,931.9,58.2z M276.2,728.8c-32-32.2-64.5-50.5-89.6-60.7c107.9-108,389.7-390,508.1-508.4c15.4,3.7,52.1,15.9,89.8,54c38,38.4,48.2,82.2,50,91.9C714.4,425.2,437.7,699,328.7,806.9C318.6,783.4,302.4,755.2,276.2,728.8z M145.1,719.7c16.8,4.5,51.6,17.4,87.3,53.3c27.4,27.6,40.3,58.1,46.1,76.7c-42.5,13.6-135.5,45.8-194.6,64.9C101.4,856.9,130.9,767.1,145.1,719.7z M890.1,250c-1.2,1.3-3.3,3.4-5.8,5.9c-9.7-24.9-26.6-56.9-56-86.5c-30-30.2-60.4-48-84.8-58.6c2.1-2.1,3.7-3.7,4.3-4.3c3.5-3.5,35.2-33.8,74.8-33.8c22.8,0,45.1,10.4,66.5,30.8c25.3,24.3,38.4,48.3,38.8,71.3C928.4,198.3,915.6,223.6,890.1,250z"/></g>
</svg>