<svg id="fox-news-channel" xmlns="http://www.w3.org/2000/svg" viewBox="0 0 1235 1235"><style>.st2{fill:#fff}</style><path id="bg-top" d="M0 0h1235v1001.7H0V0z" fill="#036"/><path id="bg-bottom" d="M0 1015.4h1235V1235H0v-219.6z" fill="#c20017"/><path id="kliegs" class="st2" d="M1235 717h-2.3a990.8 990.8 0 0 0-46.5-98.3h15.2c12 23 23.2 46.3 33.6 70V717zM0 137.2a989.7 989.7 0 0 1 186.9-43.1L205 0h146.7l-32.9 85.4a971 971 0 0 1 118.1 6.9L482.6 0h161.2L567 116.6a989 989 0 0 1 338.6 161.2h-23.3a986.8 986.8 0 0 0-323.1-149.1l-93.9 145.7h-67.4v99.2L231.6 644.9h-53.2v90.7L8 1001.7H2.6l428.1-896.6a947 947 0 0 0-116.6-6.3L1.2 1001.7H0M0 985l183.9-876.7a977 977 0 0 0-183.1 44H0m8 849.4zm-5.5 0zM637.4 0z"/><path id="fox-news" class="st2" d="M507.7 503.3h90.2V419h-90.2v-40.2h109.8l-6-84.5H415.9v309.4h91.8V503.3zm381.6 99.5H988l45-75.9 46.1 76h101l-97.4-160.3 87.7-147.8h-100l-37.7 64.2-39.1-64.4H891.9l90.3 148.7-92.9 159.5zm-114.8 3.4a158.4 158.4 0 0 0 160.6-155.7 161 161 0 0 0-321.7 0 158.3 158.3 0 0 0 160.8 155.7h.3zm-28.4-223.6a28.7 28.7 0 0 1 27.4-28.4 29.6 29.6 0 0 1 29 28.4v131.3a28.2 28.2 0 0 1-56.4 0V382.6zM528.6 834.7H622v-61.9h-93.4v-42.1h113.8v-67H456.5V953h187.3v-69.6H528.6v-48.7zm402-171l-35.8 165.6-35-165.6H798L764.7 831 730 663.7h-73.7L723.2 953h67.2l32.9-165.8L857.2 953H923l67.2-289.3h-59.6zm244 130.7c-19.2-17.7-41.2-22.4-65.9-29.4-29.2-8.2-45.3-9.1-45.3-26.1a22.9 22.9 0 0 1 25-20.6h.2a37.9 37.9 0 0 1 39.9 29l63.1-21a97 97 0 0 0-98-71.9c-65.9 0-106.2 40.5-106.2 95 0 47.1 27.4 70.3 82.3 86.7 32.8 9.9 50.2 9.1 50.2 30.2 0 11.1-10.3 19.8-27.4 19.8a42.8 42.8 0 0 1-47.1-35.3L976.2 866c11.8 54.9 52.7 87.5 115.4 87.5 31 .8 60.9-11.5 82.3-33.9a93.5 93.5 0 0 0 24.3-63.7c1.3-23-7.4-45.4-23.7-61.6h.1zm-807.9 14.5L280.5 665h-83.6v288.2h73.4V784.8l98.4 168h69.6V664.6h-71.4l-.2 144.3z"/><path id="channel" class="st2" d="M118.7 1114.7a16.7 16.7 0 0 1 18.5 10.6h41.2c-2.6-19.5-24.7-31.1-59.1-31.1-39.4.5-64.4 17.4-64.4 44.9 0 25 24.6 41.2 61.9 41.2 34.4 0 56.9-11.9 61.1-32.2h-40.6c-2.3 7.8-8.8 11.7-19.3 11.7-13.7 0-21.1-7.3-21.1-21.8s7.7-23.3 21.8-23.3zm400.7 47.2v-30.3c1.6-9.4-1.5-19-8.2-25.7a74.9 74.9 0 0 0-46-10.4c-35.5 0-54.9 8.6-58.9 27.4H444c1.6-5.9 8.5-9.1 20.3-9.1s16.2 2.5 16.2 7.1v1.9c0 6.2-15.5 4.9-44.5 9.3-22.1 3.3-33.2 11.5-33.2 24.8s14.5 23.1 39.1 23.1c14 .4 27.9-3.4 39.8-10.8a38 38 0 0 0 2.1 8.2H525v-3c-3.6-1.4-5.5-5.6-5.5-12.8l-.1.3zm-39.1-12.9c0 8.5-9.9 13.7-23.7 13.7-9.2 0-15.1-4-15.1-9.5s4.3-7.3 13.7-8.9c8.5-.8 16.9-2.3 25.1-4.5v9.2zm184.7-53.4a49.8 49.8 0 0 0-37.9 12.9v-10.7h-39.8v80h41.2v-43c0-13.7 5.9-19.3 20.7-19.3s17.2 7.1 17.2 21.8v40.2h41.2v-52.3c-.5-20.2-11.8-29.6-42.1-29.6h-.5zm-356 1.1a53.7 53.7 0 0 0-38.4 12.5v-38.8h-41.2v108.4h41.2v-42.7c0-13.7 5.9-19.3 20.7-19.3 14.8 0 17.2 7.1 17.2 21.8v40.2h41.2v-54.9c0-17.8-14.1-27.2-40.3-27.2h-.4zm548.9-1.1a49.8 49.8 0 0 0-37.9 12.9v-10.7h-39.1v80h41.2v-43c0-13.7 5.9-19.3 20.7-19.3 14.8 0 17.2 7.1 17.2 21.8v40.2h41.2v-52.3c-.5-20.2-11.9-29.6-42.3-29.6h-1zm160-.8c-38.1 0-62.8 16.3-62.8 43.1s25.2 42.3 63.8 42.3c32 0 54.9-10.2 61.8-27.4h-39.4c-2.9 5.8-9.9 8.8-21 8.8-14.5 0-22.4-6-22.4-17.3h84.5v-4.7c.3-28-24.2-44.7-63.5-44.7l-1-.1zm-22.1 34.1c1.6-10.7 10.2-16.5 23.3-16.5s23.1 6 23.3 16.5h-46.6zm143.1-58.6v108.4h41.2v-108.4h-41.2z"/></svg>