<svg xmlns="http://www.w3.org/2000/svg" viewBox="0 0 557.31 207.49"><defs><style>.cls-1{fill:#fff;}.cls-2{fill:#d65000;}</style></defs><title>bitcoin-profit_logo_vertical_white.svg</title><g id="Vrstva_2" data-name="Vrstva 2"><g id="Vrstva_1-2" data-name="Vrstva 1"><path class="cls-1" d="M282.59,63.53h21.6c5.31,0,9.5,1.46,12.16,4.12a10.67,10.67,0,0,1,3.19,7.9v.14c0,5.25-2.79,8.17-6.12,10,5.39,2.06,8.71,5.18,8.71,11.43v.13c0,8.51-6.91,12.76-17.41,12.76H282.59ZM302,82.33c4.52,0,7.38-1.46,7.38-4.92v-.13c0-3.06-2.39-4.78-6.71-4.78h-10.1v9.83Zm2.73,18.74c4.52,0,7.24-1.6,7.24-5v-.13c0-3.13-2.32-5-7.57-5H292.56v10.23Z"/><path class="cls-1" d="M330.79,63.53H341V110H330.79Z"/><path class="cls-1" d="M361.8,73H347.65V63.53h38.54V73H372V110H361.8Z"/><path class="cls-1" d="M389.8,86.92v-.14c0-13.22,10-24.05,24.26-24.05,8.77,0,14,2.92,18.34,7.18l-6.52,7.5c-3.59-3.25-7.24-5.25-11.89-5.25-7.84,0-13.49,6.52-13.49,14.49v.13c0,8,5.51,14.62,13.49,14.62,5.31,0,8.57-2.12,12.23-5.45l6.51,6.58c-4.79,5.12-10.1,8.31-19.07,8.31A23.48,23.48,0,0,1,389.8,86.92Z"/><path class="cls-1" d="M436.3,86.92v-.14c0-13.22,10.43-24.05,24.78-24.05s24.66,10.7,24.66,23.92v.13c0,13.23-10.44,24.06-24.79,24.06S436.3,100.14,436.3,86.92Zm38.74,0v-.14c0-8-5.85-14.62-14.09-14.62S447,78.68,447,86.65v.13c0,8,5.84,14.62,14.08,14.62S475,94.89,475,86.92Z"/><path class="cls-1" d="M494.62,63.53h10.23V110H494.62Z"/><path class="cls-1" d="M516,63.53h9.44l21.79,28.64V63.53h10.1V110h-8.7L526.08,80.47V110H516Z"/><path class="cls-1" d="M282.64,124.81h12.55c7.57,0,12.55,4,12.55,10.63v.1c0,7.23-6,11-13.18,11h-8.14v11.83h-3.78Zm12.07,18.25c5.56,0,9.2-3,9.2-7.38v-.09c0-4.79-3.6-7.28-9-7.28h-8.48v14.75Z"/><path class="cls-1" d="M334.36,124.81h14.42c4.12,0,7.42,1.24,9.53,3.35a9.27,9.27,0,0,1,2.59,6.61v.1c0,5.56-3.84,8.81-9.11,9.77l10.3,13.7h-4.64l-9.73-13h-9.58v13h-3.78Zm14.08,17.1c5,0,8.62-2.59,8.62-6.9v-.09c0-4.12-3.16-6.61-8.57-6.61H338.14v13.6Z"/><path class="cls-1" d="M386.93,141.67v-.09c0-9.25,6.95-17.35,17.15-17.35s17.06,8,17.06,17.25v.1c0,9.24-6.95,17.34-17.15,17.34S386.93,150.92,386.93,141.67Zm30.28,0v-.09c0-7.62-5.56-13.85-13.22-13.85s-13.13,6.13-13.13,13.75v.1c0,7.61,5.56,13.84,13.22,13.84S417.21,149.29,417.21,141.67Z"/><path class="cls-1" d="M449.26,124.81h24.1v3.5H453v12H471.2v3.45H453v14.61h-3.78Z"/><path class="cls-1" d="M500.19,124.81H504v33.53h-3.79Z"/><path class="cls-1" d="M541.89,128.31H530.63v-3.5H557v3.5H545.72v30h-3.83Z"/><path class="cls-2" d="M86.64,8.29C89.34,17,11,152.76,0,158.34c-.46,14.18,13.81,38.89,28.38,49.15,8.25-10.26,165-10.26,173.26,0,14.57-10.26,28.83-35,28.38-49.15-11-5.58-89.34-141.34-86.64-150C129.28-2.76,100.76-2.76,86.64,8.29Z"/><path class="cls-1" d="M150.22,116.82a19.62,19.62,0,0,0-11.66-8.59V108a22,22,0,0,0,8.59-8.46,24.14,24.14,0,0,0,3.13-12.27q0-11.72-8.24-18.33a30.06,30.06,0,0,0-14.09-6V50H115.89V62.28h-3.62V50H100.21V62.28H85.8v96.8h14.41v12.66h12.06V159.08h3.62v12.66H128V158.59a35.86,35.86,0,0,0,16.75-6.67q9.54-7.15,9.54-20.92A26.12,26.12,0,0,0,150.22,116.82ZM132.43,89.41a12.63,12.63,0,0,1-3.21,8.93,11.37,11.37,0,0,1-8.79,3.48h-17V77.42h16.76q6,0,9.14,3.27A12.08,12.08,0,0,1,132.43,89.41Zm.06,50.65q-3.75,3.88-10.29,3.89H103.39V116H122.2q6.54,0,10.29,3.88a13.83,13.83,0,0,1,3.75,10A14,14,0,0,1,132.49,140.06Z"/></g></g></svg>