<svg xmlns="http://www.w3.org/2000/svg" viewBox="0 0 230.04 312.17"><defs><style>.cls-1{fill:#d65000;}.cls-2{fill:#fff;}</style></defs><title>bitcoin-profit_logo_vertical_black.svg</title><g id="Vrstva_2" data-name="Vrstva 2"><g id="Vrstva_1-2" data-name="Vrstva 1"><path d="M11.33,240.1H27.64c4,0,7.18,1.11,9.19,3.11a8.1,8.1,0,0,1,2.41,6v.1a8.19,8.19,0,0,1-4.62,7.58c4.07,1.56,6.58,3.91,6.58,8.63v.1c0,6.43-5.23,9.64-13.16,9.64H11.33ZM26,254.31c3.42,0,5.58-1.11,5.58-3.72v-.1c0-2.31-1.81-3.61-5.07-3.61H18.86v7.43ZM28,268.47c3.42,0,5.47-1.21,5.47-3.82v-.1c0-2.36-1.75-3.82-5.72-3.82H18.86v7.74Z"/><path d="M47.74,240.1h7.73v35.14H47.74Z"/><path d="M71.17,247.23H60.48V240.1H89.59v7.13H78.9v28H71.17Z"/><path d="M92.32,257.77v-.1a17.86,17.86,0,0,1,18.32-18.17c6.63,0,10.6,2.21,13.86,5.42l-4.92,5.67c-2.71-2.46-5.47-4-9-4-5.92,0-10.19,4.92-10.19,10.94v.1c0,6,4.17,11.05,10.19,11.05,4,0,6.48-1.61,9.24-4.12l4.92,5a18,18,0,0,1-14.41,6.28A17.74,17.74,0,0,1,92.32,257.77Z"/><path d="M127.45,257.77v-.1c0-10,7.88-18.17,18.72-18.17s18.63,8.08,18.63,18.07v.1c0,10-7.88,18.18-18.73,18.18S127.45,267.76,127.45,257.77Zm29.26,0v-.1c0-6-4.41-11-10.64-11s-10.54,4.92-10.54,10.94v.1c0,6,4.42,11.05,10.64,11.05S156.71,263.8,156.71,257.77Z"/><path d="M171.51,240.1h7.73v35.14h-7.73Z"/><path d="M187.65,240.1h7.13l16.46,21.64V240.1h7.63v35.14H212.3l-17-22.34v22.34h-7.63Z"/><path d="M11.36,286.4h9.48c5.72,0,9.49,3,9.49,8v.08c0,5.46-4.56,8.29-10,8.29H14.22v8.93H11.36Zm9.12,13.79c4.2,0,7-2.25,7-5.58v-.07c0-3.62-2.71-5.5-6.8-5.5H14.22v11.15Z"/><path d="M50.43,286.4h10.9a10,10,0,0,1,7.2,2.53,7,7,0,0,1,2,5V294c0,4.2-2.89,6.66-6.87,7.38l7.78,10.35H67.88l-7.35-9.84H53.29v9.84H50.43Zm10.64,12.92c3.8,0,6.52-1.95,6.52-5.21V294c0-3.12-2.39-5-6.48-5H53.29v10.28Z"/><path d="M90.15,299.14v-.07A12.93,12.93,0,1,1,116,299v.08a12.93,12.93,0,1,1-25.85.07Zm22.88,0v-.07c0-5.76-4.2-10.46-10-10.46s-9.92,4.63-9.92,10.38v.08c0,5.75,4.2,10.46,10,10.46S113,304.89,113,299.14Z"/><path d="M137.24,286.4h18.2V289H140.1v9h13.72v2.61H140.1v11h-2.86Z"/><path d="M175.72,286.4h2.86v25.33h-2.86Z"/><path d="M207.22,289h-8.51V286.4h19.91V289h-8.51v22.69h-2.89Z"/><path class="cls-1" d="M86.64,8.29C89.34,17,11,152.76,0,158.34c-.46,14.18,13.81,38.89,28.38,49.15,8.25-10.26,165-10.26,173.26,0,14.57-10.26,28.83-35,28.38-49.15-11-5.58-89.34-141.34-86.64-150C129.28-2.76,100.76-2.76,86.64,8.29Z"/><path class="cls-2" d="M150.22,116.82a19.62,19.62,0,0,0-11.66-8.59V108a22,22,0,0,0,8.59-8.46,24.14,24.14,0,0,0,3.13-12.27q0-11.72-8.24-18.33a30.06,30.06,0,0,0-14.09-6V50H115.89V62.28h-3.62V50H100.21V62.28H85.8v96.8h14.41v12.66h12.06V159.08h3.62v12.66H128V158.59a35.86,35.86,0,0,0,16.75-6.67q9.54-7.15,9.54-20.92A26.12,26.12,0,0,0,150.22,116.82ZM132.43,89.41a12.63,12.63,0,0,1-3.21,8.93,11.37,11.37,0,0,1-8.79,3.48h-17V77.42h16.76q6,0,9.14,3.27A12.08,12.08,0,0,1,132.43,89.41Zm.06,50.65q-3.75,3.88-10.29,3.89H103.39V116H122.2q6.54,0,10.29,3.88a13.83,13.83,0,0,1,3.75,10A14,14,0,0,1,132.49,140.06Z"/></g></g></svg>