<?xml version="1.0" standalone="no"?>
<!DOCTYPE svg PUBLIC "-//W3C//DTD SVG 20010904//EN"
 "http://www.w3.org/TR/2001/REC-SVG-20010904/DTD/svg10.dtd">
<svg version="1.0" xmlns="http://www.w3.org/2000/svg"
 width="95.000000pt" height="95.000000pt" viewBox="0 0 95.000000 95.000000"
 preserveAspectRatio="xMidYMid meet">
<metadata>
Created by potrace 1.11, written by Peter Selinger 2001-2013
</metadata>
<g transform="translate(0.000000,95.000000) scale(0.100000,-0.100000)"
fill="#000000" stroke="none">
<path d="M363 935 c-260 -70 -410 -338 -332 -591 94 -303 439 -427 709 -254
57 37 127 115 159 177 74 147 61 334 -32 475 -45 67 -62 82 -82 74 -16 -6 -21
-36 -6 -36 5 0 27 -27 50 -60 67 -101 90 -222 64 -334 -68 -292 -400 -425
-651 -259 -250 166 -250 540 0 706 87 56 167 75 298 68 54 -2 61 -11 49 -54
-7 -25 -14 -35 -22 -30 -10 6 -82 11 -212 14 -11 0 -24 -8 -30 -17 -5 -10 -18
-24 -28 -33 -118 -106 -157 -172 -163 -278 -7 -149 66 -272 200 -338 51 -25
73 -29 155 -32 l96 -2 60 42 c33 23 69 51 80 62 115 114 133 298 43 435 -35
54 -53 66 -74 49 -11 -9 -9 -16 12 -37 61 -66 90 -194 64 -286 -16 -56 -56
-117 -103 -154 -33 -27 -41 -29 -66 -19 -34 13 -61 4 -68 -23 -3 -11 -13 -21
-22 -21 -56 -5 -109 3 -156 25 -196 89 -240 348 -83 495 35 33 49 41 77 39 25
-2 38 4 52 21 16 19 28 23 79 23 71 1 85 -8 75 -50 -6 -30 -8 -31 -64 -30
-124 2 -213 -75 -235 -204 -2 -14 0 -43 6 -65 6 -21 12 -55 13 -76 4 -48 20
-67 59 -67 17 -1 42 -7 56 -15 38 -22 136 -19 187 6 133 64 165 259 58 359
l-23 22 69 95 c38 52 69 99 69 104 0 4 -28 22 -62 38 -104 51 -221 64 -325 36z
m160 -282 c3 -5 -3 -30 -12 -58 -13 -41 -21 -51 -41 -53 -67 -7 -78 -98 -14
-122 55 -21 102 32 79 87 -12 29 -11 34 17 72 16 23 34 41 39 41 18 0 62 -81
66 -123 7 -58 -23 -125 -72 -163 -28 -21 -50 -29 -93 -31 -64 -4 -100 10 -119
47 -6 13 -23 30 -37 37 -55 29 -43 168 21 225 41 37 152 64 166 41z m-25 -176
c2 -12 -3 -17 -17 -17 -15 0 -21 6 -21 21 0 25 33 22 38 -4z"/>
</g>
</svg>
