<?xml version="1.0" encoding="utf-8"?>
<!-- Generator: Adobe Illustrator 16.0.0, SVG Export Plug-In . SVG Version: 6.00 Build 0)  -->
<!DOCTYPE svg PUBLIC "-//W3C//DTD SVG 1.1//EN" "http://www.w3.org/Graphics/SVG/1.1/DTD/svg11.dtd">
<svg version="1.1" id="Layer_1" xmlns="http://www.w3.org/2000/svg" xmlns:xlink="http://www.w3.org/1999/xlink" x="0px" y="0px"
	 width="312px" height="117.5px" viewBox="0 0 312 117.5" enable-background="new 0 0 312 117.5" xml:space="preserve">
<g>
	<g>
		<path fill="#0B5275" d="M91.278,69.583c1.614,0.324,3.185-0.722,3.508-2.336c0.515-2.566,0.775-5.207,0.775-7.847
			c0-5.36-1.05-10.562-3.122-15.459c-2-4.729-4.863-8.977-8.51-12.623c-3.646-3.646-7.893-6.509-12.622-8.51
			c-4.897-2.071-10.099-3.122-15.459-3.122c-5.359,0-10.561,1.051-15.459,3.122c-4.729,2.001-8.977,4.864-12.622,8.51
			c-3.646,3.646-6.51,7.894-8.51,12.623c-2.071,4.897-3.122,10.099-3.122,15.459c0,5.359,1.051,10.561,3.122,15.459
			c2,4.729,4.863,8.977,8.51,12.622c3.646,3.646,7.893,6.51,12.622,8.51c4.898,2.071,10.1,3.122,15.459,3.122
			c7.881,0,15.497-2.304,22.026-6.663c1.368-0.914,1.737-2.765,0.823-4.133c-0.914-1.369-2.765-1.737-4.133-0.824
			c-5.546,3.703-12.018,5.66-18.717,5.66c-18.611,0-33.753-15.142-33.753-33.753c0-18.612,15.142-33.754,33.753-33.754
			S89.603,40.788,89.603,59.4c0,2.247-0.223,4.493-0.66,6.676C88.619,67.689,89.665,69.26,91.278,69.583z"/>
		<path fill="#0B5275" d="M102.854,39.542c-2.57-6.075-6.248-11.531-10.933-16.216c-4.684-4.684-10.14-8.362-16.215-10.932
			c-6.291-2.661-12.973-4.01-19.858-4.01c-7.503,0-14.732,1.592-21.486,4.732c-1.492,0.694-2.14,2.466-1.445,3.959
			c0.693,1.492,2.466,2.139,3.958,1.445c5.961-2.771,12.345-4.178,18.974-4.178c24.844,0,45.056,20.213,45.056,45.057
			s-20.212,45.056-45.056,45.056S10.793,84.244,10.793,59.4c0-9.436,2.884-18.469,8.341-26.123c0.956-1.34,0.644-3.201-0.696-4.156
			s-3.201-0.644-4.156,0.696c-6.181,8.671-9.448,18.9-9.448,29.583c0,6.886,1.35,13.567,4.011,19.858
			c2.569,6.075,6.247,11.53,10.932,16.215c4.684,4.685,10.14,8.362,16.215,10.932c6.292,2.661,12.973,4.011,19.858,4.011
			s13.567-1.35,19.858-4.011c6.075-2.569,11.531-6.247,16.215-10.932c4.685-4.685,8.362-10.14,10.933-16.215
			c2.661-6.291,4.01-12.973,4.01-19.858S105.516,45.833,102.854,39.542z"/>
		<path fill="#FDB040" d="M77.03,68.564c0-4.815-2.737-8.102-7.009-9.471c3.12-1.645,5.091-4.602,5.091-8.436
			c0-5.724-4.537-9.635-13.367-9.943v-5.841h-7.173v5.818h-3.88v-5.818h-7.174v5.818h-1.646h-5.205v6.68h5.205v24.974h-5.205v6.679
			h5.205h1.646v4.902h7.174v-4.902h3.88v4.902h7.173v-4.902C71.79,79.011,77.03,75.179,77.03,68.564z M59.507,47.372
			c4.324,0,6.679,1.48,6.679,4.49c0,3.014-2.354,4.548-6.679,4.548h-8.814v-9.038H59.507z M61.041,72.346H50.692V62.87h10.349
			c4.597,0,7.062,1.534,7.062,4.767C68.104,70.918,65.638,72.346,61.041,72.346z"/>
	</g>
	<g>
		<path fill="#FCAF40" d="M118.12,22.947c0-0.312,0.085-0.56,0.256-0.745c0.17-0.186,0.411-0.278,0.723-0.278h14.77
			c1.305,0,2.535,0.248,3.691,0.745c1.157,0.497,2.169,1.179,3.036,2.046c0.868,0.868,1.554,1.884,2.058,3.048
			s0.756,2.413,0.756,3.747c0,1.112-0.174,2.146-0.522,3.104c-0.349,0.956-0.842,1.812-1.479,2.568
			c1.067,0.979,1.912,2.144,2.535,3.492c0.623,1.35,0.935,2.78,0.935,4.293c0,1.35-0.26,2.628-0.778,3.837
			c-0.52,1.208-1.221,2.269-2.103,3.181c-0.882,0.911-1.913,1.635-3.092,2.168c-1.179,0.534-2.421,0.801-3.726,0.801h-16.081
			c-0.297,0-0.533-0.077-0.712-0.233c-0.178-0.155-0.267-0.396-0.267-0.723V22.947z M134.868,31.71c0-0.444-0.082-0.859-0.245-1.245
			s-0.394-0.727-0.691-1.023c-0.298-0.296-0.654-0.53-1.07-0.7c-0.416-0.171-0.87-0.256-1.36-0.256h-4.773v6.45h4.706
			c0.506,0,0.971-0.078,1.395-0.233c0.424-0.156,0.784-0.378,1.081-0.668c0.298-0.289,0.532-0.63,0.703-1.022
			S134.868,32.185,134.868,31.71z M136.048,44.633c0-0.444-0.086-0.89-0.257-1.334c-0.171-0.445-0.409-0.842-0.714-1.19
			c-0.305-0.348-0.669-0.634-1.093-0.856c-0.423-0.223-0.88-0.333-1.37-0.333h-5.887v7.429h5.887c0.49,0,0.943-0.104,1.359-0.312
			s0.78-0.485,1.093-0.834s0.554-0.745,0.725-1.19C135.962,45.567,136.048,45.107,136.048,44.633z"/>
		<path fill="#FCAF40" d="M149.593,22.902c0-0.267,0.081-0.496,0.245-0.689c0.162-0.192,0.407-0.289,0.733-0.289h6.539
			c0.223,0,0.46,0.089,0.712,0.267s0.378,0.415,0.378,0.712v31.072c0,0.652-0.363,0.979-1.09,0.979h-6.539
			c-0.652,0-0.979-0.326-0.979-0.979V22.902z"/>
		<path fill="#FCAF40" d="M163.561,22.899c0-0.295,0.101-0.532,0.301-0.709c0.2-0.178,0.448-0.267,0.745-0.267h23.933
			c0.267,0,0.504,0.081,0.711,0.244c0.208,0.162,0.326,0.406,0.356,0.731v5.522c0,0.266-0.093,0.521-0.278,0.765
			c-0.186,0.244-0.448,0.366-0.789,0.366h-7.674v24.354c0,0.267-0.097,0.508-0.289,0.724c-0.192,0.215-0.443,0.322-0.754,0.322
			H173.3c-0.252,0-0.488-0.1-0.71-0.301c-0.222-0.2-0.333-0.448-0.333-0.745V29.553h-7.65c-0.297,0-0.545-0.096-0.745-0.288
			s-0.301-0.474-0.301-0.843V22.899z"/>
		<path fill="#FCAF40" d="M218.187,24.326c0.252,0.148,0.438,0.341,0.557,0.578c0.118,0.237,0.096,0.52-0.067,0.845l-3.759,5.339
			c-0.163,0.252-0.338,0.396-0.522,0.434c-0.186,0.037-0.412-0.026-0.679-0.189c-0.727-0.548-1.527-0.971-2.402-1.268
			s-1.802-0.445-2.78-0.445c-1.216,0-2.335,0.23-3.358,0.689c-1.023,0.46-1.905,1.09-2.646,1.891
			c-0.742,0.801-1.32,1.735-1.735,2.803s-0.622,2.21-0.622,3.426s0.207,2.354,0.622,3.414s0.993,1.987,1.735,2.78
			c0.741,0.793,1.623,1.42,2.646,1.879c1.023,0.46,2.143,0.689,3.358,0.689c0.979,0,1.913-0.151,2.803-0.455
			c0.89-0.305,1.698-0.73,2.425-1.279c0.267-0.163,0.489-0.229,0.667-0.2c0.178,0.03,0.355,0.163,0.534,0.4l3.803,5.472
			c0.163,0.326,0.186,0.601,0.067,0.822c-0.119,0.223-0.305,0.408-0.557,0.557c-1.394,0.934-2.896,1.657-4.504,2.169
			c-1.609,0.511-3.303,0.767-5.082,0.767c-1.572,0-3.081-0.2-4.526-0.601c-1.446-0.4-2.799-0.971-4.06-1.712
			s-2.405-1.628-3.437-2.658c-1.03-1.03-1.916-2.172-2.657-3.426c-0.742-1.253-1.312-2.602-1.713-4.048
			c-0.4-1.445-0.601-2.954-0.601-4.526c0-1.571,0.2-3.08,0.601-4.526c0.4-1.445,0.971-2.802,1.713-4.07
			c0.741-1.268,1.627-2.42,2.657-3.458c1.031-1.038,2.176-1.924,3.437-2.658s2.613-1.305,4.06-1.713
			c1.445-0.407,2.954-0.611,4.526-0.611c1.779,0,3.458,0.248,5.038,0.745C215.307,22.677,216.793,23.392,218.187,24.326z"/>
		<path fill="#FCAF40" d="M220.833,38.472c0-1.571,0.2-3.08,0.602-4.526c0.4-1.445,0.972-2.802,1.714-4.07
			c0.741-1.268,1.628-2.42,2.659-3.458s2.178-1.924,3.438-2.658c1.262-0.734,2.615-1.305,4.062-1.713
			c1.446-0.407,2.956-0.611,4.529-0.611c1.558,0,3.063,0.204,4.518,0.611c1.454,0.408,2.812,0.979,4.073,1.713
			c1.261,0.734,2.411,1.62,3.45,2.658c1.038,1.038,1.925,2.19,2.659,3.458c0.734,1.269,1.306,2.625,1.714,4.07
			c0.408,1.446,0.612,2.955,0.612,4.526c0,1.572-0.204,3.081-0.612,4.526c-0.408,1.446-0.979,2.795-1.714,4.048
			c-0.734,1.254-1.621,2.396-2.659,3.426c-1.039,1.03-2.189,1.917-3.45,2.658c-1.262,0.741-2.619,1.312-4.073,1.712
			s-2.96,0.601-4.518,0.601c-1.573,0-3.083-0.2-4.529-0.601c-1.447-0.4-2.801-0.971-4.062-1.712
			c-1.261-0.741-2.407-1.628-3.438-2.658s-1.918-2.172-2.659-3.426c-0.742-1.253-1.313-2.602-1.714-4.048
			C221.033,41.553,220.833,40.044,220.833,38.472z M229.441,38.449c0,1.231,0.207,2.381,0.621,3.448
			c0.415,1.067,0.996,1.998,1.744,2.791c0.748,0.794,1.633,1.416,2.654,1.868c1.022,0.453,2.147,0.679,3.377,0.679
			c1.229,0,2.357-0.226,3.387-0.679c1.029-0.452,1.918-1.074,2.666-1.868c0.748-0.793,1.329-1.724,1.743-2.791
			c0.415-1.067,0.622-2.217,0.622-3.448c0-1.215-0.207-2.36-0.622-3.436c-0.414-1.075-0.995-2.014-1.743-2.814
			s-1.637-1.431-2.666-1.891c-1.029-0.459-2.158-0.689-3.387-0.689c-1.229,0-2.354,0.23-3.377,0.689
			c-1.021,0.46-1.906,1.09-2.654,1.891s-1.329,1.739-1.744,2.814C229.648,36.089,229.441,37.234,229.441,38.449z"/>
		<path fill="#FCAF40" d="M260.38,22.902c0-0.267,0.081-0.496,0.245-0.689c0.162-0.192,0.407-0.289,0.733-0.289h6.539
			c0.223,0,0.46,0.089,0.712,0.267s0.378,0.415,0.378,0.712v31.072c0,0.652-0.363,0.979-1.09,0.979h-6.539
			c-0.652,0-0.979-0.326-0.979-0.979V22.902z"/>
		<path fill="#FCAF40" d="M276.238,22.902c0-0.267,0.081-0.496,0.245-0.689c0.162-0.192,0.407-0.289,0.733-0.289h7.273
			c0.207,0,0.423,0.052,0.645,0.155c0.223,0.104,0.415,0.282,0.579,0.534c1.883,3.04,3.751,6.035,5.604,8.985
			c1.854,2.951,3.729,5.946,5.627,8.986V22.769c0.06-0.267,0.179-0.474,0.356-0.622s0.386-0.223,0.623-0.223h6.339
			c0.312,0,0.57,0.085,0.778,0.256c0.207,0.171,0.312,0.411,0.312,0.723v31.184c0,0.297-0.089,0.516-0.268,0.656
			c-0.178,0.141-0.422,0.211-0.733,0.211h-7.096c-0.192,0-0.363-0.066-0.512-0.2c-0.147-0.133-0.304-0.312-0.467-0.533
			c-1.972-3.263-3.922-6.487-5.85-9.676c-1.928-3.188-3.885-6.413-5.872-9.675v19.105c0,0.326-0.074,0.571-0.223,0.734
			c-0.147,0.163-0.415,0.244-0.8,0.244h-6.317c-0.341,0-0.589-0.092-0.745-0.277c-0.155-0.186-0.233-0.412-0.233-0.679V22.902z"/>
		<path fill="#0A5275" d="M121.268,85.411c0.252,0.207,0.574,0.485,0.968,0.834c0.393,0.349,0.841,0.693,1.346,1.034
			c0.756,0.504,1.505,0.897,2.246,1.179s1.52,0.423,2.336,0.423c0.756,0,1.39-0.086,1.901-0.256s0.915-0.396,1.212-0.678
			c0.297-0.282,0.508-0.607,0.634-0.978c0.126-0.371,0.189-0.764,0.189-1.179c0-0.459-0.175-0.87-0.522-1.232
			c-0.349-0.363-0.775-0.686-1.279-0.967c-0.504-0.282-1.03-0.522-1.579-0.723s-1.023-0.366-1.424-0.5
			c-1.779-0.622-3.336-1.293-4.671-2.012c-1.334-0.718-2.446-1.519-3.336-2.399c-0.89-0.882-1.557-1.853-2.002-2.911
			c-0.444-1.06-0.667-2.241-0.667-3.545c0-1.378,0.278-2.63,0.834-3.756c0.556-1.127,1.349-2.09,2.38-2.89
			c1.03-0.8,2.272-1.418,3.726-1.855s3.077-0.655,4.871-0.655c1.349,0,2.643,0.151,3.881,0.455c1.238,0.305,2.458,0.79,3.659,1.457
			c0.504,0.297,0.982,0.604,1.435,0.924c0.452,0.318,0.849,0.626,1.19,0.923c0.341,0.297,0.611,0.578,0.812,0.845
			c0.2,0.268,0.3,0.497,0.3,0.69c0,0.192-0.048,0.37-0.145,0.533s-0.241,0.349-0.434,0.557l-3.403,3.625
			c-0.252,0.252-0.504,0.378-0.756,0.378c-0.208,0-0.396-0.059-0.567-0.178c-0.17-0.118-0.359-0.267-0.567-0.445l-0.2-0.178
			c-0.296-0.252-0.626-0.512-0.989-0.778s-0.753-0.508-1.168-0.723s-0.853-0.393-1.312-0.534c-0.459-0.141-0.927-0.211-1.4-0.211
			c-0.49,0-0.949,0.041-1.38,0.122c-0.43,0.082-0.808,0.212-1.134,0.39s-0.586,0.411-0.778,0.7
			c-0.193,0.289-0.289,0.642-0.289,1.057s0.104,0.775,0.311,1.079c0.208,0.304,0.52,0.586,0.935,0.845
			c0.415,0.26,0.931,0.505,1.546,0.734s1.331,0.478,2.146,0.745c1.571,0.519,3.021,1.063,4.349,1.635
			c1.326,0.571,2.472,1.245,3.436,2.023c0.964,0.779,1.717,1.71,2.258,2.792s0.812,2.395,0.812,3.937
			c0,1.632-0.334,3.11-1.001,4.438c-0.668,1.327-1.583,2.458-2.747,3.392c-1.164,0.935-2.532,1.657-4.104,2.169
			c-1.572,0.512-3.263,0.768-5.071,0.768c-1.706,0-3.381-0.306-5.027-0.915c-1.646-0.609-3.181-1.427-4.604-2.453
			c-0.594-0.432-1.094-0.855-1.502-1.272c-0.407-0.416-0.73-0.75-0.967-1.003l-0.067-0.067c-0.015-0.029-0.029-0.048-0.044-0.056
			c-0.016-0.007-0.03-0.019-0.045-0.033c-0.015-0.03-0.029-0.049-0.044-0.056c-0.016-0.008-0.03-0.019-0.045-0.034
			c-0.341-0.371-0.512-0.669-0.512-0.892c0-0.253,0.171-0.535,0.512-0.848l3.848-3.67c0.312-0.223,0.563-0.334,0.757-0.334
			c0.133,0,0.273,0.044,0.422,0.134C120.882,85.1,121.06,85.232,121.268,85.411z"/>
		<path fill="#0A5275" d="M159.29,75.246l5.372-11.5c0.089-0.178,0.163-0.307,0.223-0.389c0.059-0.081,0.118-0.141,0.178-0.178
			c0.059-0.037,0.122-0.06,0.188-0.067c0.067-0.007,0.145-0.025,0.234-0.056h8.562c0.104,0,0.189,0.034,0.256,0.101
			c0.067,0.066,0.101,0.145,0.101,0.233c0,0.163-0.104,0.349-0.312,0.556L163.55,82.608v12.434c0,0.696-0.34,1.045-1.021,1.045
			h-6.655c-0.296,0-0.525-0.093-0.688-0.278c-0.163-0.185-0.244-0.44-0.244-0.767V82.563l-10.521-18.617
			c-0.193-0.192-0.289-0.378-0.289-0.556c0-0.089,0.029-0.167,0.089-0.233c0.059-0.066,0.141-0.101,0.244-0.101h8.563
			c0.104,0.03,0.186,0.049,0.245,0.056c0.059,0.008,0.118,0.03,0.178,0.067c0.059,0.037,0.118,0.097,0.178,0.178
			c0.059,0.082,0.141,0.211,0.245,0.389L159.29,75.246z"/>
		<path fill="#0A5275" d="M182.678,85.411c0.252,0.207,0.574,0.485,0.968,0.834c0.393,0.349,0.841,0.693,1.346,1.034
			c0.756,0.504,1.505,0.897,2.246,1.179s1.52,0.423,2.336,0.423c0.756,0,1.39-0.086,1.901-0.256s0.915-0.396,1.212-0.678
			c0.297-0.282,0.508-0.607,0.634-0.978c0.126-0.371,0.189-0.764,0.189-1.179c0-0.459-0.175-0.87-0.522-1.232
			c-0.349-0.363-0.775-0.686-1.279-0.967c-0.504-0.282-1.03-0.522-1.579-0.723s-1.023-0.366-1.424-0.5
			c-1.779-0.622-3.336-1.293-4.671-2.012c-1.334-0.718-2.446-1.519-3.336-2.399c-0.89-0.882-1.557-1.853-2.002-2.911
			c-0.444-1.06-0.667-2.241-0.667-3.545c0-1.378,0.278-2.63,0.834-3.756c0.556-1.127,1.349-2.09,2.38-2.89
			c1.03-0.8,2.272-1.418,3.726-1.855s3.077-0.655,4.871-0.655c1.349,0,2.643,0.151,3.881,0.455c1.238,0.305,2.458,0.79,3.659,1.457
			c0.504,0.297,0.982,0.604,1.435,0.924c0.452,0.318,0.849,0.626,1.19,0.923c0.341,0.297,0.611,0.578,0.812,0.845
			c0.2,0.268,0.3,0.497,0.3,0.69c0,0.192-0.048,0.37-0.145,0.533s-0.241,0.349-0.434,0.557l-3.403,3.625
			c-0.252,0.252-0.504,0.378-0.756,0.378c-0.208,0-0.396-0.059-0.567-0.178c-0.17-0.118-0.359-0.267-0.567-0.445l-0.2-0.178
			c-0.296-0.252-0.626-0.512-0.989-0.778s-0.753-0.508-1.168-0.723s-0.853-0.393-1.312-0.534c-0.459-0.141-0.927-0.211-1.4-0.211
			c-0.49,0-0.949,0.041-1.38,0.122c-0.43,0.082-0.808,0.212-1.134,0.39s-0.586,0.411-0.778,0.7
			c-0.193,0.289-0.289,0.642-0.289,1.057s0.104,0.775,0.311,1.079c0.208,0.304,0.52,0.586,0.935,0.845
			c0.415,0.26,0.931,0.505,1.546,0.734s1.331,0.478,2.146,0.745c1.571,0.519,3.021,1.063,4.349,1.635
			c1.326,0.571,2.472,1.245,3.436,2.023c0.964,0.779,1.717,1.71,2.258,2.792s0.812,2.395,0.812,3.937
			c0,1.632-0.334,3.11-1.001,4.438c-0.668,1.327-1.583,2.458-2.747,3.392c-1.164,0.935-2.532,1.657-4.104,2.169
			c-1.572,0.512-3.263,0.768-5.071,0.768c-1.706,0-3.381-0.306-5.027-0.915c-1.646-0.609-3.181-1.427-4.604-2.453
			c-0.594-0.432-1.094-0.855-1.502-1.272c-0.407-0.416-0.73-0.75-0.967-1.003l-0.067-0.067c-0.015-0.029-0.029-0.048-0.044-0.056
			c-0.016-0.007-0.03-0.019-0.045-0.033c-0.015-0.03-0.029-0.049-0.044-0.056c-0.016-0.008-0.03-0.019-0.045-0.034
			c-0.341-0.371-0.512-0.669-0.512-0.892c0-0.253,0.171-0.535,0.512-0.848l3.848-3.67c0.312-0.223,0.563-0.334,0.757-0.334
			c0.133,0,0.273,0.044,0.422,0.134C182.292,85.1,182.47,85.232,182.678,85.411z"/>
		<path fill="#0A5275" d="M206.788,64.033c0-0.296,0.101-0.532,0.301-0.71c0.2-0.177,0.448-0.267,0.745-0.267h23.933
			c0.267,0,0.504,0.082,0.711,0.244c0.208,0.163,0.326,0.407,0.356,0.732v5.521c0,0.267-0.093,0.521-0.278,0.766
			s-0.448,0.366-0.789,0.366h-7.674V95.04c0,0.268-0.097,0.509-0.289,0.724c-0.192,0.216-0.443,0.323-0.754,0.323h-6.522
			c-0.252,0-0.488-0.1-0.71-0.301c-0.222-0.2-0.333-0.449-0.333-0.746V70.687h-7.65c-0.297,0-0.545-0.096-0.745-0.288
			s-0.301-0.474-0.301-0.844V64.033z"/>
		<path fill="#0A5275" d="M239.105,64.08c0-0.312,0.085-0.56,0.255-0.745s0.41-0.278,0.722-0.278h22.066
			c0.326,0,0.578,0.097,0.756,0.289s0.268,0.45,0.268,0.775v5.501c0,0.251-0.09,0.491-0.268,0.721s-0.438,0.344-0.778,0.344h-14.413
			v5.516h11.121c0.281,0,0.516,0.067,0.701,0.2c0.185,0.134,0.277,0.356,0.277,0.668v4.804c0,0.208-0.081,0.408-0.244,0.601
			c-0.163,0.193-0.4,0.289-0.712,0.289h-11.144v5.694h14.947c0.667,0,1.001,0.34,1.001,1.02v5.59c0,0.147-0.06,0.28-0.179,0.398
			c-0.059,0.414-0.363,0.621-0.911,0.621h-22.489c-0.297,0-0.533-0.078-0.71-0.233c-0.178-0.156-0.267-0.396-0.267-0.723V64.08z"/>
		<path fill="#0A5275" d="M271.867,64.036c0.03-0.268,0.134-0.497,0.312-0.689c0.178-0.193,0.43-0.29,0.757-0.29h7.695
			c0.549,0,0.904,0.282,1.067,0.846l6.05,20.196l6.095-20.196c0.207-0.563,0.586-0.846,1.135-0.846h7.606
			c0.267,0,0.508,0.093,0.723,0.278s0.337,0.419,0.367,0.701c0.519,5.22,1.049,10.398,1.59,15.536
			c0.542,5.138,1.071,10.316,1.591,15.536v0.111c0,0.578-0.326,0.867-0.979,0.867h-6.295c-0.682,0-1.038-0.326-1.067-0.979
			l-1.936-17.193l-5.004,17.305c-0.03,0.148-0.138,0.326-0.322,0.533c-0.186,0.208-0.367,0.312-0.545,0.312h-5.85
			c-0.179,0-0.367-0.1-0.567-0.3s-0.309-0.382-0.323-0.545l-5.004-17.26l-1.936,17.148c-0.029,0.652-0.393,0.979-1.09,0.979h-6.294
			c-0.638,0-0.957-0.326-0.957-0.979L271.867,64.036z"/>
	</g>
</g>
</svg>
