<?xml version="1.0" encoding="utf-8"?>
<!-- Generator: Adobe Illustrator 23.0.3, SVG Export Plug-In . SVG Version: 6.00 Build 0)  -->
<svg version="1.1" id="Vrstva_1" xmlns="http://www.w3.org/2000/svg" xmlns:xlink="http://www.w3.org/1999/xlink" x="0px" y="0px"
	 viewBox="0 0 50 50" style="enable-background:new 0 0 50 50;" xml:space="preserve">
<style type="text/css">
	.st0{fill:#AED581;}
	.st1{fill:#558B2F;}
	.st2{fill:#8BC34A;}
	.st3{fill:#CCFF90;}
</style>
<g>
	
		<rect x="26.8" y="19.1" transform="matrix(0.2261 -0.9741 0.9741 0.2261 -2.9754 55.9761)" class="st0" width="13.9" height="21.6"/>
	<g>
		<path class="st1" d="M46.6,25l-22.4-5.2l-3.5,14.9l22.4,5.2L46.6,25z M22.5,33.7l2.8-12.2L44.9,26l-2.8,12.2L22.5,33.7z"/>
		<path class="st1" d="M41.3,38.7c-1.1-0.3-2-0.7-1.7-1.8c0.3-1.1,1.3-1.8,2.5-1.5c1.1,0.3,1.2,1.2,0.9,2.3
			C42.7,38.8,42.5,39,41.3,38.7z"/>
		<path class="st1" d="M45.5,26.9c-0.3,1.1-0.7,2-1.8,1.7c-1.1-0.3-1.8-1.3-1.5-2.5c0.3-1.2,1.2-1.2,2.3-0.9
			C45.6,25.5,45.8,25.7,45.5,26.9z"/>
		<circle class="st1" cx="39.5" cy="31.2" r="1.4"/>
		<circle class="st1" cx="31.4" cy="29.3" r="4.2"/>
	</g>
</g>
<g>
	<rect x="24.9" y="16" transform="matrix(0.9702 -0.2422 0.2422 0.9702 -4.4923 9.3279)" class="st0" width="21.6" height="13.9"/>
	<g>
		<path class="st1" d="M44.9,12.7l-22.3,5.6l3.7,14.8l22.3-5.6L44.9,12.7z M27.4,31.4l-3.1-12.2l19.6-4.9L47,26.6L27.4,31.4z"/>
		<path class="st1" d="M46.5,27.4c-1.1,0.3-2.1,0.3-2.4-0.8c-0.3-1.1,0.3-2.2,1.5-2.5c1.1-0.3,1.6,0.6,1.9,1.7
			C47.8,26.8,47.7,27.1,46.5,27.4z"/>
		<path class="st1" d="M44.8,14.9c0.3,1.1,0.3,2.1-0.8,2.4c-1.1,0.3-2.2-0.3-2.5-1.5c-0.3-1.2,0.6-1.6,1.7-1.9
			C44.3,13.6,44.5,13.8,44.8,14.9z"/>
		<circle class="st1" cx="41.4" cy="21.5" r="1.4"/>
		<circle class="st1" cx="33.3" cy="23.5" r="4.2"/>
	</g>
</g>
<g>
	
		<rect x="24.9" y="9.1" transform="matrix(0.7071 -0.7071 0.7071 0.7071 -0.8773 29.9556)" class="st0" width="21.6" height="13.9"/>
	<g>
		<path class="st1" d="M38.4,2.5L22.1,18.8L33,29.6l16.2-16.2L38.4,2.5z M33,27.6l-8.8-8.8L38.4,4.5l8.8,8.8L33,27.6z"/>
		<path class="st1" d="M47.3,14.3c-0.8,0.8-1.6,1.3-2.4,0.5c-0.8-0.8-0.8-2.1,0-2.9c0.8-0.8,1.6-0.3,2.4,0.5
			C48.1,13.2,48.1,13.5,47.3,14.3z"/>
		<path class="st1" d="M39.4,4.5c0.8,0.8,1.3,1.6,0.5,2.4s-2.1,0.8-2.9,0c-0.9-0.8-0.3-1.6,0.5-2.4S38.6,3.7,39.4,4.5z"/>
		<circle class="st1" cx="39.9" cy="11.9" r="1.4"/>
		<circle class="st1" cx="34" cy="17.8" r="4.2"/>
	</g>
</g>
<g>
	<rect x="17.4" y="6.6" transform="matrix(0.2457 -0.9693 0.9693 0.2457 8.0653 37.5447)" class="st0" width="21.6" height="13.9"/>
	<g>
		<path class="st1" d="M23.5,0.6l-5.6,22.3l14.8,3.8l5.6-22.3L23.5,0.6z M31.7,24.9l-12.1-3.1l4.9-19.6l12.1,3.1L31.7,24.9z"/>
		<path class="st1" d="M37.2,6.2c-0.3,1.1-0.7,1.9-1.9,1.7c-1.1-0.3-1.8-1.4-1.5-2.5s1.3-1.1,2.4-0.8C37.3,4.8,37.5,5.1,37.2,6.2z"
			/>
		<path class="st1" d="M25.4,1.8c1.1,0.3,1.9,0.7,1.7,1.9c-0.3,1.2-1.4,1.8-2.5,1.5s-1.1-1.3-0.8-2.4C24,1.7,24.2,1.4,25.4,1.8z"/>
		<circle class="st1" cx="29.6" cy="7.8" r="1.4"/>
		<circle class="st1" cx="27.5" cy="15.9" r="4.2"/>
	</g>
</g>
<polygon class="st2" points="25,6.2 29.2,9.5 34.4,8.8 36.3,13.7 41.2,15.6 40.5,20.8 43.8,25 40.5,29.2 41.2,34.4 36.3,36.3 
	34.4,41.2 29.2,40.5 25,43.8 20.8,40.5 15.6,41.2 13.7,36.3 8.8,34.4 9.5,29.2 6.2,25 9.5,20.8 8.8,15.6 13.7,13.7 15.6,8.8 
	20.8,9.5 "/>
<polygon class="st3" points="34.5,16.6 22.3,28.7 17.3,23.8 14.8,26.2 22.3,33.8 37,19.1 "/>
</svg>
