<svg xmlns="http://www.w3.org/2000/svg" viewBox="0 0 110 110"><defs><style>.cls-1{fill:#4ac3af;}.cls-2{fill:#8ce3d4;}.cls-3{fill:#0d9681;}.cls-4{fill:#c2f8f0;}.cls-5{fill:#17b198;}.cls-6{fill:#fff;}.cls-7{fill:#f9c300;}.cls-8{fill:none;}.cls-9{fill:#969696;}.cls-10{fill:#692e19;}</style></defs><title>icon_trusted-trading</title><g id="Vrstva_2" data-name="Vrstva 2"><g id="Vrstva_1-2" data-name="Vrstva 1"><g id="Multicolor"><rect class="cls-1" x="23" y="63.04" width="64" height="18"/><polygon class="cls-2" points="23 63.04 31 47.04 79 47.04 87 63.04 23 63.04"/><polygon class="cls-3" points="28 61.04 34 49.04 76 49.04 82 61.04 28 61.04"/><circle class="cls-4" cx="71" cy="55.04" r="1"/><circle class="cls-4" cx="39" cy="55.04" r="1"/><ellipse class="cls-4" cx="55" cy="55.04" rx="6" ry="5"/><path class="cls-5" d="M55,51.56a.45.45,0,0,1,.49.4v.11a4.47,4.47,0,0,1,1.36.38.51.51,0,0,1,.34.47.58.58,0,0,1-.64.52.75.75,0,0,1-.33-.07,3.4,3.4,0,0,0-.78-.26V54.3c1.43.32,2,.8,2,1.68s-.81,1.44-2,1.55v.41a.5.5,0,0,1-1,0v-.42A5.45,5.45,0,0,1,52.62,57a.53.53,0,0,1-.32-.47A.59.59,0,0,1,53,56a.86.86,0,0,1,.37.1,4,4,0,0,0,1.2.44V55.27c-1.35-.31-2-.74-2-1.67s.79-1.44,2-1.54V52A.45.45,0,0,1,55,51.56Zm-.44,2.53V53c-.45.05-.65.24-.65.49S54,53.94,54.52,54.09Zm.88,1.37v1.09c.44,0,.67-.23.67-.51S55.91,55.61,55.4,55.46Z"/><rect class="cls-4" x="23" y="65.04" width="64" height="2"/><rect class="cls-4" x="23" y="69.04" width="64" height="2"/><rect class="cls-4" x="23" y="73.04" width="64" height="2"/><rect class="cls-4" x="23" y="77.04" width="64" height="2"/><polygon class="cls-2" points="23 65.04 44.53 65.04 46.53 63.04 23 63.04 23 65.04"/><polygon class="cls-2" points="23 69.04 40.53 69.04 42.53 67.04 23 67.04 23 69.04"/><polygon class="cls-2" points="23 79.04 23 81.04 28.53 81.04 30.53 79.04 23 79.04"/><polygon class="cls-2" points="23 73.04 36.53 73.04 38.53 71.04 23 71.04 23 73.04"/><polygon class="cls-2" points="23 77.04 32.53 77.04 34.53 75.04 23 75.04 23 77.04"/><polygon class="cls-4" points="23 63.04 46.53 63.04 48.53 61.04 28 61.04 34 49.04 60.53 49.04 62.53 47.04 31 47.04 23 63.04"/><path class="cls-5" d="M49,55c0-2.76,2.69-5,6-5a6.78,6.78,0,0,1,3.55,1l2-2H34L28,61H48.53l2.36-2.37A4.64,4.64,0,0,1,49,55ZM39,56a1,1,0,1,1,1-1A1,1,0,0,1,39,56Z"/><circle class="cls-6" cx="39" cy="55.04" r="1"/><path class="cls-6" d="M49,55a4.64,4.64,0,0,0,1.89,3.63L52.61,57a.5.5,0,0,1-.3-.46A.58.58,0,0,1,53,56a.79.79,0,0,1,.37.1l.12.06.9-.91c-1.22-.3-1.84-.73-1.84-1.62s.79-1.44,2-1.54V52a.5.5,0,0,1,1,0v.11a4.32,4.32,0,0,1,1.36.38.57.57,0,0,1,.18.12L58.55,51A6.78,6.78,0,0,0,55,50C51.69,50,49,52.28,49,55Z"/><path class="cls-6" d="M55.4,53.11v1l.79-.79h0A4.2,4.2,0,0,0,55.4,53.11Z"/><path class="cls-6" d="M53.87,53.53c0,.24.13.41.65.56V53C54.07,53.09,53.87,53.28,53.87,53.53Z"/><polygon class="cls-6" points="23 67.04 42.53 67.04 44.53 65.04 23 65.04 23 67.04"/><polygon class="cls-6" points="23 71.04 38.53 71.04 40.53 69.04 23 69.04 23 71.04"/><polygon class="cls-6" points="23 75.04 34.53 75.04 36.53 73.04 23 73.04 23 75.04"/><polygon class="cls-6" points="23 79.04 30.53 79.04 32.53 77.04 23 77.04 23 79.04"/><polygon class="cls-7" points="69.24 27.2 72.68 30.64 65.44 37.88 57.3 29.74 40 47.04 46.91 47.04 57.3 36.65 65.44 44.79 76.13 34.1 79.57 37.54 83.36 23.42 69.24 27.2"/></g><rect class="cls-8" width="110" height="110"/><path class="cls-7" d="M74.2,82.77A2.8,2.8,0,0,0,77,85.58H96.63a2.81,2.81,0,0,0,2.81-2.81v-14A2.8,2.8,0,0,0,96.63,66H77a2.8,2.8,0,0,0-2.8,2.8Z"/><path class="cls-9" d="M95.93,66H91.72V61a4.91,4.91,0,1,0-9.81,0V66H77.7V61a9.12,9.12,0,1,1,18.23,0Z"/><path class="cls-10" d="M88.73,72.51a2.36,2.36,0,1,0-3.45,2.09L84,81.37h4.72L87.46,74.6A2.35,2.35,0,0,0,88.73,72.51Z"/></g></g></svg>