<?xml version="1.0" encoding="utf-8"?>
<!-- Generator: Adobe Illustrator 19.2.1, SVG Export Plug-In . SVG Version: 6.00 Build 0)  -->
<svg version="1.1" id="layer" xmlns="http://www.w3.org/2000/svg" xmlns:xlink="http://www.w3.org/1999/xlink" x="0px" y="0px"
	 viewBox="0 0 652 652" style="enable-background:new 0 0 652 652;" xml:space="preserve">
<style type="text/css">
	.st0{fill:#A0A0A0;}
	.st1{fill:#FFC20E;}
	.st2{fill:#FFFFFF;}
</style>
<path d="M525.1,335.6c-9.8,0-17.8-8-17.8-17.8c0-9.9,8-17.8,17.8-17.8c9.8,0,17.8,8,17.8,17.8C543,327.6,535,335.6,525.1,335.6
	 M525.1,283c-19.2,0-34.8,15.6-34.8,34.8c0,19.2,15.6,34.8,34.8,34.8c19.2,0,34.8-15.6,34.8-34.8C559.9,298.5,544.3,283,525.1,283"
	/>
<path d="M365.3,335.6c-9.8,0-17.8-8-17.8-17.8c0-9.9,8-17.8,17.8-17.8c9.8,0,17.8,8,17.8,17.8C383.1,327.6,375.1,335.6,365.3,335.6
	 M365.3,283c-19.2,0-34.8,15.6-34.8,34.8c0,19.2,15.6,34.8,34.8,34.8c19.2,0,34.8-15.6,34.8-34.8C400,298.5,384.5,283,365.3,283"/>
<path d="M488.1,336.6c-2.2,0.6-5.6,1.3-6.8,1.3c-6,0-7.2-2.1-7.2-7.7V298h14.2v-13.4h-14.2v-19h-16l-3.4,19h-11.1v0h-0.9
	c-9.1,0-16,5.6-20.4,14.3l-5.5-14.3h-11.5v66.7h19.6v-29c0-14.6,8.7-24,18.9-24.3h10.7v33.2c0,15.6,8,21.4,21,21.4
	c6.7,0,11.9-1.4,15-2.4L488.1,336.6z"/>
<polyline points="583.7,305.6 583.7,351.3 564.6,351.3 564.6,284.5 576.2,284.5 580.1,294.7 "/>
<path d="M580,294.8c5.8-6.7,13.7-11.8,23-11.8c15.9,0,22.4,12.7,22.4,24.4v43.9h-19.6v-43.3c0-5.7-4.8-8.8-9.9-8.8
	c-5.5,0-9,3.2-12.1,6.5"/>
<polygon points="254.4,260.4 276.3,260.4 306.3,317.5 306.3,260.4 324.4,260.4 324.4,351.3 304.6,351.3 272.5,288.4 272.5,351.3 
	254.4,351.3 "/>
<polygon points="625.4,284.6 625.4,285.9 627.2,285.9 627.2,292.2 628.7,292.2 628.7,285.9 630.6,285.9 630.6,284.6 "/>
<polygon points="636.3,284.6 635,289.6 633.6,284.6 631.6,284.6 631.6,292.2 632.9,292.2 632.9,286.2 632.9,286.2 634.5,292.2 
	635.5,292.2 637.1,286.2 637.1,286.2 637.1,292.2 638.3,292.2 638.3,284.6 "/>
<path class="st0" d="M278.1,404.9c0-5.8-1.8-12.6-8.4-12.6c-3.1,0-5.9,1.4-8.4,4v19.1c2.3,2.5,4.4,3.8,7.6,3.8
	C274.8,419.1,278.1,414,278.1,404.9 M260,419.1l-1.4,4.3H255v-49.9h6.3v18.2c2.1-2.3,5.5-4.7,9.8-4.7c9.5,0,13.7,9.4,13.7,17.9
	c0,11.4-5.9,19.1-14.7,19.1C265.5,424,262.4,422.1,260,419.1"/>
<path class="st0" d="M288.8,387.7h6.4c0,0,9,30.1,9,30.2l8.4-30.2h6.2l-12,38.4c-2.1,6.6-5.6,10.3-12.5,10.3c-1.4,0-2.9-0.2-4.3-0.6
	l0.8-4.5c0.9,0.1,1.8,0.4,3,0.4c3.7,0,6.5-1.7,7.9-6.1L288.8,387.7z"/>
<path class="st0" d="M337.5,418.2l3.1-4.4c3.1,2.3,7.5,4.8,14.1,4.8c6.5,0,10.3-3.1,10.3-8.5c0-6-4.6-7.9-11.2-10.2
	c-7.1-2.5-13.6-5.7-13.6-14.8c0-8.1,6.4-12.5,14.8-12.5c6,0,9.5,1,13.4,3.2l-2.6,4.8c-3.1-1.7-6.4-2.7-10.9-2.7
	c-5.3,0-8.9,2.1-8.9,7.1c0,5.3,3.5,7,10.8,9.6c7,2.4,14.4,5.5,14.4,15.3c0,8.7-6.2,13.9-16.4,13.9C346.5,424,340.8,421,337.5,418.2"
	/>
<path class="st0" d="M374.8,387.7h6.4c0,0,9,30.1,9,30.2l8.4-30.2h6.2l-12,38.4c-2.1,6.6-5.6,10.3-12.5,10.3c-1.4,0-2.9-0.2-4.3-0.6
	l0.8-4.5c0.9,0.1,1.8,0.4,3,0.4c3.7,0,6.5-1.7,7.9-6.1L374.8,387.7z"/>
<path class="st0" d="M449.1,387c7.2,0,9.1,6.1,9.1,12v24.4h-6.3V399c0-3.5-0.6-6.7-4.9-6.7c-2.9,0-6,1.8-9.1,4.9v26.2h-6.3V399
	c0-3.5-0.6-6.7-4.9-6.7c-3,0-6.2,2.1-9.1,5v26.1h-6.3v-35.7h3.7l1.6,5.8c3.3-3.6,7.3-6.5,12.1-6.5c4.8,0,6.8,2.6,8.2,6.2
	C440.2,389.5,444.5,387,449.1,387"/>
<path class="st0" d="M487.3,405c-7.1,1.3-11.7,2.8-13.5,5c-0.9,1.1-1.1,2.1-1.1,3.6c0,3.5,1.7,5.5,5.5,5.5c3.6,0,6.8-1.8,9.1-3.5
	V405z M487.3,399.3c0-4.8-1.5-7.2-6.7-7.2c-3.6,0-6.8,1.4-10.2,3.1l-2.3-4.2c3.7-2.3,7.7-4,12.9-4c8.9,0,12.4,4.8,12.4,12.8v23.7
	h-3.6l-1.6-4.3c-2.5,2.5-6.4,4.8-11,4.8c-6.3,0-10.9-3.9-10.9-9.9c0-3.9,1.5-6.7,4.8-8.7c3.2-2,8.9-3.4,16.2-4.5V399.3z"/>
<path class="st0" d="M503.9,387.7h3.7l1.6,5.9c3.3-3.7,7.5-6.6,12.8-6.6c7.7,0,9.7,6.1,9.7,12v24.4h-6.3V399c0-3.5-0.9-6.7-5.5-6.7
	c-3.3,0-6.8,2.1-9.7,5.1v26h-6.3V387.7z"/>
<path class="st0" d="M538.4,392.1v-4.4h5.5l1.6-10.2h4.5v10.2h8v4.4h-8v22c0,3.3,0.6,5.1,4,5.1c1.4,0,2.5-0.3,4.1-0.7l0.9,4.3
	c-1.4,0.6-3.6,1.1-5.8,1.1c-6.5,0-9.4-3.1-9.4-9.5v-22.4H538.4z"/>
<path class="st0" d="M586,403.1c-0.2-7.5-2.7-11.4-7.7-11.4c-4.5,0-7.5,3.5-8,11.4H586z M579.2,419c4.1,0,6.7-1.6,9.7-3.5l2.6,3.8
	c-3.5,2.8-6.7,4.7-12.9,4.7c-9.2,0-15.1-7.1-15.1-18.4c0-11,5.7-18.6,14.6-18.6c9.2,0,14.1,6.9,14.1,18.8v1.5h-22.2
	C570.5,414.9,573.2,419,579.2,419"/>
<path class="st0" d="M598,405.8c0-9.2,4.1-18.8,15.1-18.8c4.6,0,8,1.1,11.2,3.8l-2.7,4.2c-2.3-1.7-5-2.9-8.4-2.9
	c-7.5,0-8.6,7.7-8.6,13.8c0,5.9,1.3,13.1,8.8,13.1c3.6,0,6.1-1.4,8.5-3.4l3,3.7c-2.6,2.6-6.2,4.8-11.8,4.8
	C602.2,424,598,414.7,598,405.8"/>
<path class="st1" d="M118.9,271.2c-19,0-36.9,7.4-50.4,20.9c-13.5,13.5-20.9,31.4-20.9,50.4c0,19,7.4,36.9,20.9,50.4
	c13.5,13.5,31.4,20.9,50.4,20.9c19,0,36.9-7.4,50.4-20.9c13.4-13.5,20.8-31.4,20.9-50.4c0-19-7.4-36.9-20.9-50.4
	C155.8,278.7,137.9,271.2,118.9,271.2 M118.9,446.7c-57.4,0-104.2-46.8-104.2-104.2c0-57.5,46.8-104.2,104.2-104.2
	c57.4,0,104.2,46.7,104.2,104.2C223.1,399.9,176.3,446.7,118.9,446.7"/>
<rect x="232.4" y="222.2" class="st1" width="8.1" height="8.1"/>
<rect x="232.4" y="206" class="st1" width="8.1" height="8.1"/>
<rect x="209.6" y="230.3" class="st2" width="7.6" height="7.9"/>
<rect x="194.5" y="245.9" width="7.7" height="7.6"/>
<rect x="217.1" y="238.2" width="8.5" height="7.6"/>
<rect x="186.9" y="238.6" width="7.6" height="7.3"/>
<rect x="209.6" y="245.9" width="7.6" height="7.6"/>
<rect x="224.4" y="214.2" width="8" height="8.1"/>
<rect x="209.6" y="222.2" width="14.8" height="8.1"/>
<rect x="202.2" y="230.3" width="7.4" height="15.6"/>
<path d="M202.2,253.5v7.6h-7.7v-7.6h-12.7v5.5H175v6.8h7.6v7.6H175v-7.6h-8.1v11.9h-7.6v7.6h-5.1v7.6h-5.6
	c-6.3,9.3-21.9,38.3-26.7,50.1c-17.1-23.8-30.4-33.2-40.8-36.6c-5.6-1.7-12.4,4.4-3.1,14.1c21.5,23.7,28.3,43.2,34.8,58.9
	c3.5,8.2,19,9.5,22.1,1.1c6.6-17.7,16.2-37.7,27.6-54V318h6.1v-7.6h6.4v-8.9h7.6v-8.5h-7.7v-7.8h7.7v7.8h7.5l0-7.7h6v-9.3h6.8v-6.4
	h6.5v-16.1H202.2z"/>
</svg>
