<svg height="512pt" viewBox="0 0 512 512" width="512pt" xmlns="http://www.w3.org/2000/svg"><path d="m512 256c0 141.386719-114.613281 256-256 256s-256-114.613281-256-256 114.613281-256 256-256 256 114.613281 256 256zm0 0" fill="#ffe000"/><path d="m512 256c0-16.566406-1.59375-32.757812-4.597656-48.449219l-79.410156-79.40625-343.800782 236.097657 146.515625 146.515624c8.320313.816407 16.757813 1.242188 25.292969 1.242188 141.386719 0 256-114.613281 256-256zm0 0" fill="#ffc200"/><path d="m211.5 356h89v73h-89zm0 0" fill="#e1f4ff"/><path d="m256 356h44.5v73h-44.5zm0 0" fill="#abddff"/><path d="m409.972656 372.171875h-307.945312c-13.269532 0-24.027344-10.757813-24.027344-24.027344v-204.117187c0-13.269532 10.757812-24.027344 24.027344-24.027344h307.945312c13.269532 0 24.027344 10.757812 24.027344 24.027344v204.117187c0 13.269531-10.757812 24.027344-24.027344 24.027344zm0 0" fill="#fff"/><path d="m409.972656 120h-153.972656v252.171875h153.972656c13.269532 0 24.027344-10.757813 24.027344-24.027344v-204.117187c0-13.269532-10.757812-24.027344-24.027344-24.027344zm0 0" fill="#dbeeff"/><path d="m96.5 136h319v182.847656h-319zm0 0" fill="#2d5396"/><path d="m256 136h159.5v182.847656h-159.5zm0 0" fill="#1b3b6b"/><path d="m194.34375 289.019531c-3.105469 2.921875-6.699219 4.382813-10.777344 4.382813-3.058594 0-5.957031-.683594-8.691406-2.050782-2.734375-1.367187-5.132812-3.210937-7.195312-5.53125-2.0625-2.316406-3.695313-5.015624-4.902344-8.097656-1.203125-3.082031-1.808594-6.339844-1.808594-9.769531 0-3.476563.617188-6.710937 1.84375-9.699219 1.226562-2.988281 2.921875-5.585937 5.078125-7.785156 2.152344-2.203125 4.691406-3.941406 7.613281-5.214844 2.917969-1.277344 6.046875-1.914062 9.386719-1.914062 2.085937 0 4.078125.242187 5.976563.730468 1.902343.488282 3.660156 1.207032 5.285156 2.15625 1.621094.949219 3.070312 2.085938 4.34375 3.40625 1.277344 1.320313 2.332031 2.816407 3.164062 4.484376l-10.082031 7.71875c-.832031-1.945313-2.097656-3.511719-3.789063-4.691407-1.691406-1.183593-3.488281-1.773437-5.386718-1.773437-1.390625 0-2.679688.324218-3.859375.972656-1.183594.648438-2.203125 1.550781-3.058594 2.710938-.859375 1.160156-1.53125 2.539062-2.019531 4.136718-.484375 1.597656-.726563 3.351563-.726563 5.25 0 1.949219.242188 3.710938.726563 5.285156.488281 1.574219 1.171875 2.929688 2.054687 4.066407.878907 1.136719 1.933594 2.015625 3.160157 2.644531 1.230468.625 2.585937.9375 4.070312.9375 1.667969 0 3.277344-.417969 4.832031-1.25 1.550781-.835938 3-2.039062 4.34375-3.617188h-8.691406v-9.734374h20.304687v26.28125h-11.195312zm0 0" fill="#abddff"/><path d="m211.210938 293.054688v-49.367188h18.984374c4.078126 0 7.667969.648438 10.777344 1.945312 3.101563 1.296876 5.699219 3.058594 7.785156 5.285157 2.085938 2.222656 3.660157 4.832031 4.730469 7.820312 1.0625 2.992188 1.597657 6.175781 1.597657 9.5625 0 3.753907-.589844 7.148438-1.773438 10.183594-1.179688 3.039063-2.863281 5.632813-5.039062 7.789063-2.179688 2.15625-4.796876 3.824218-7.859376 5.003906-3.058593 1.183594-6.464843 1.773437-10.21875 1.773437h-18.984374zm30.109374-24.753907c0-1.898437-.257812-3.636719-.765624-5.214843-.511719-1.574219-1.242188-2.921876-2.191407-4.03125-.949219-1.113282-2.121093-1.984376-3.511719-2.609376-1.390624-.625-2.945312-.9375-4.65625-.9375h-5.425781v25.726563h5.425781c1.757813 0 3.335938-.324219 4.726563-.972656 1.390625-.648438 2.5625-1.554688 3.511719-2.714844.949218-1.15625 1.667968-2.523437 2.15625-4.101563.484375-1.574218.730468-3.289062.730468-5.144531zm0 0" fill="#abddff"/><path d="m264.066406 293.054688v-49.367188h21.273438c2.410156 0 4.636718.496094 6.675781 1.492188 2.039063 1 3.789063 2.296874 5.25 3.894531 1.460937 1.601562 2.605469 3.433593 3.441406 5.492187.835938 2.066406 1.253907 4.136719 1.253907 6.222656 0 2.179688-.398438 4.300782-1.183594 6.363282-.789063 2.0625-1.890625 3.894531-3.304688 5.492187-1.414062 1.601563-3.128906 2.875-5.144531 3.824219-2.015625.953125-4.230469 1.425781-6.640625 1.425781h-8.066406v15.160157zm13.558594-26.980469h7.160156c.835938 0 1.609375-.382813 2.328125-1.144531.71875-.765626 1.078125-2.144532 1.078125-4.136719 0-2.039063-.417968-3.429688-1.25-4.171875-.835937-.742188-1.667968-1.113282-2.503906-1.113282h-6.8125zm0 0" fill="#78beff"/><path d="m307.175781 293.054688v-49.367188h22.664063c2.410156 0 4.636718.496094 6.675781 1.492188 2.039063 1 3.789063 2.296874 5.25 3.894531 1.460937 1.601562 2.605469 3.433593 3.441406 5.492187.835938 2.066406 1.253907 4.136719 1.253907 6.222656 0 2.875-.628907 5.554688-1.878907 8.03125-1.253906 2.480469-2.988281 4.511719-5.214843 6.085938l11.125 18.148438h-15.296876l-9.386718-15.160157h-5.078125v15.160157zm13.554688-26.980469h8.554687c.832032 0 1.609375-.460938 2.328125-1.390625.71875-.925782 1.078125-2.222656 1.078125-3.894532 0-1.710937-.417968-3.023437-1.25-3.925781-.835937-.902343-1.671875-1.355469-2.503906-1.355469h-8.207031zm0 0" fill="#78beff"/><path d="m198 414h116v27h-116zm0 0" fill="#fff"/><path d="m256 414h58v27h-58zm0 0" fill="#dbeeff"/><path d="m256 143.605469 5.445312 11.03125 12.171876 1.765625-8.808594 8.585937 2.078125 12.125-10.886719-5.722656-10.886719 5.722656 2.078125-12.125-8.808594-8.585937 12.171876-1.765625zm0 0" fill="#ffe000"/><g fill="#ffc200"><path d="m273.617188 156.402344-12.171876-1.765625-5.445312-11.03125v27.785156l10.886719 5.722656-2.078125-12.125zm0 0"/><path d="m380.625 267.46875 5.445312 11.03125 12.171876 1.769531-8.808594 8.585938 2.082031 12.121093-10.890625-5.722656-10.886719 5.722656 2.078125-12.121093-8.808594-8.585938 12.175782-1.769531zm0 0"/><path d="m363.207031 203.523438 5.445313 11.03125 12.171875 1.765624-8.808594 8.585938 2.082031 12.125-10.890625-5.722656-10.886719 5.722656 2.078126-12.125-8.808594-8.585938 12.175781-1.765624zm0 0"/><path d="m321.679688 159.632812 5.445312 11.03125 12.171875 1.769532-8.808594 8.585937 2.078125 12.125-10.886718-5.722656-10.886719 5.722656 2.078125-12.125-8.808594-8.585937 12.171875-1.769532zm0 0"/></g><path d="m148.792969 203.523438-5.445313 11.03125-12.171875 1.765624 8.808594 8.585938-2.082031 12.125 10.890625-5.722656 10.886719 5.722656-2.078126-12.125 8.808594-8.585938-12.175781-1.765624zm0 0" fill="#ffe000"/><path d="m190.320312 159.632812-5.445312 11.03125-12.171875 1.769532 8.808594 8.585937-2.078125 12.125 10.886718-5.722656 10.886719 5.722656-2.078125-12.125 8.808594-8.585937-12.171875-1.769532zm0 0" fill="#ffe000"/><path d="m131.375 267.46875 5.441406 11.03125 12.175782 1.769531-8.808594 8.585938 2.078125 12.121093-10.886719-5.722656-10.890625 5.722656 2.082031-12.121093-8.808594-8.585938 12.171876-1.769531zm0 0" fill="#ffe000"/></svg>