<svg id="Layer_1" data-name="Layer 1" xmlns="http://www.w3.org/2000/svg" viewBox="0 0 678 156"><defs><style>.cls-1{fill:#e61c5b;}</style></defs><title>Artboard 1</title><path d="M193.23,105.41H180.66V100.7h-.16c-2.72,5.68-8.16,6.16-11.52,6.16-2.72,0-9.12-.64-13-5.6-3.52-4.4-4-7.6-4-13.69V61h13.29V85.57c0,3,0,8.89,7.12,8.89,3.84,0,7.6-2,7.6-9V61h13.29Z"/><path d="M226.37,59.51c-9.73.27-12.06,4.13-13.15,6.22h-.16V61H200.58v44.4h13.28V81c0-5.89,3.32-7.6,8.3-8Z"/><path d="M441.19,59.51c-9.74.27-12.07,4.13-13.15,6.22h-.16V61H415.39v44.4h13.28V81c0-5.89,3.33-7.6,8.3-8Z"/><polygon points="554.16 56.55 554.16 56.61 567.42 56.61 570.58 46.53 557.29 46.53 554.16 56.55"/><path d="M28,73.43c-.1-1-.3-3.35-4.22-3.29-2.8,0-3.73,1.82-3.71,3,0,2.4,3.34,3.7,6.87,4.69,7.56,2,15.59,4.09,15.74,13.69.14,9.36-8,15.25-17.85,15.4-6.72.1-16.93-2.79-18.31-14.45l13.2-.2c.63,4.07,4.54,4,5.1,4,2.24,0,4.62-1.35,4.59-3.51-.05-3.44-3.34-3.79-11.87-7C11.77,84.09,6.91,80.41,6.82,74.4c-.13-8.8,7.78-14.77,17-14.91,5.84-.08,16,2.08,17.26,13.75Z"/><path d="M92.38,91.5a26,26,0,0,1-9,11.36,21.61,21.61,0,0,1-12.65,4A23.56,23.56,0,0,1,47.17,83.33c0-12.4,9.76-23.84,23.29-23.84S93.9,70.21,93.9,83.73a18.38,18.38,0,0,1-.32,3.53H60.29c.8,5.28,5.2,8.4,10.4,8.4,4.09,0,6.24-1.84,8.09-4.16ZM80.62,78.29c-.56-2.64-3.2-7.6-10.09-7.6s-9.52,5-10.08,7.6Z"/><path d="M146,88.54A23.85,23.85,0,0,1,99,83.09a23.31,23.31,0,0,1,23.45-23.6c11.76,0,21.28,7.76,23.52,18.64H132.5c-1.44-3-4.08-6.24-9.6-6.24-6.32-.32-10.57,4.88-10.57,11.28s4.25,11.29,10.57,11.29a10.22,10.22,0,0,0,9.6-5.92Z"/><path d="M271.55,91.5a26,26,0,0,1-9,11.36,21.58,21.58,0,0,1-12.64,4,23.56,23.56,0,0,1-23.53-23.53c0-12.4,9.77-23.84,23.29-23.84s23.44,10.72,23.44,24.24a19.4,19.4,0,0,1-.31,3.53H239.47c.8,5.28,5.2,8.4,10.4,8.4,4.08,0,6.24-1.84,8.08-4.16ZM259.79,78.29c-.56-2.64-3.2-7.6-10.08-7.6s-9.52,5-10.08,7.6Z"/><path d="M491.12,105.75H477.84V101h-.16c-2.25,4.32-7.77,6.32-13,6.32-14.08,0-22.32-11-22.32-23.77,0-14.56,10.48-23.69,22.32-23.69,7.29,0,11.37,3.53,13,6.25h.16V61.34h13.28Zm-24.4-10.88c8.31,0,11.12-7.05,11.12-11.37,0-5.36-3.68-11.28-11.21-11.28s-11,6.4-11,11.44C455.67,87.82,458.71,94.87,466.72,94.87Z"/><path d="M545.19,105.75H532.55V101h-.16c-1.11,1.83-4.32,6.24-13.28,6.24-13.44,0-22.25-10.41-22.25-23.77,0-15,10.73-23.61,22-23.61,7.84,0,11.6,3.85,13,5.29V46.53h13.28Zm-23.92-11c8.32,0,11.37-6.8,11.37-11.44a11.25,11.25,0,0,0-22.49,0C510.15,90.22,515,94.78,521.27,94.78Z"/><rect x="554.16" y="61.34" width="13.29" height="44.41"/><path d="M576.29,61.34h12.4v4.72h.16c1.36-2.16,4.17-6.25,12.08-6.25,4.24,0,9,1.76,11.37,3.85s5.12,5.59,5.12,14.32v27.77H604.14V81.5c0-3.12,0-9.2-7-9.2-7.6,0-7.6,6.56-7.6,9.28v24.17H576.29Z"/><path d="M671,100.38c0,6.65-.48,10.89-2.64,14.65-3.44,5.6-11.52,10.48-22.49,10.48-15.44,0-21.28-9.27-22.16-15.6h15.36c1.92,4.4,6.89,4.4,7.76,4.4,1.69,0,10.81-.16,10.81-12.09v-1.35h-.16c-1.36,2.56-5.2,6.32-12.17,6.32-12.08,0-22.4-9.12-22.4-23.37,0-15.2,10.88-23.93,22.4-23.93,5,0,9.85,1.77,12.25,5.61h.16V61.34H671Zm-24.17-5.6c6.41,0,10.89-4.64,10.89-11,0-7.12-4.88-11.44-10.8-11.44a10.79,10.79,0,0,0-10.73,11C636.19,90.46,641.31,94.78,646.83,94.78Z"/><polygon class="cls-1" points="335.21 149.81 379.87 6.78 358.72 6.78 313.93 149.81 335.21 149.81"/><polygon class="cls-1" points="295.88 149.81 340.54 6.78 319.39 6.78 274.61 149.81 295.88 149.81"/><polygon points="402.48 61.34 402.48 46.53 389.19 46.53 389.19 61.34 384.55 61.34 381.4 71.42 389.19 71.42 389.19 105.75 402.48 105.75 402.48 71.42 408.88 71.42 408.88 61.34 402.48 61.34"/></svg>