<svg id="Vrstva_1" xmlns="http://www.w3.org/2000/svg" viewBox="0 0 894.1 263.4"><style>.st0{fill:#FFFFFF;} .st1{fill:url(#SVGID_1_);} .st2{fill:url(#SVGID_2_);} .st3{fill:#152569;}</style><circle class="st0" cx="131.7" cy="131.7" r="115.3"/><linearGradient id="SVGID_1_" gradientUnits="userSpaceOnUse" x1="61.17" y1="371.12" x2="218.97" y2="609.92" gradientTransform="translate(0 -346)"><stop offset="0" stop-color="#F4D933"/><stop offset="1" stop-color="#E3821F"/></linearGradient><path class="st1" d="M131.7 0C59-.1 0 58.9-.1 131.6s58.9 131.7 131.6 131.8c72.7.1 131.7-58.9 131.8-131.6v-.1C263.3 59 204.4.1 131.7 0zm0 233.1c-56 .1-101.4-45.3-101.5-101.3-.1-56 45.3-101.4 101.3-101.5 56-.1 101.4 45.3 101.5 101.3v.1c0 56-45.3 101.3-101.3 101.4z"/><linearGradient id="SVGID_2_" gradientUnits="userSpaceOnUse" x1="772.49" y1="66" x2="772.49" y2="215.12"><stop offset="0" stop-color="#F4D933"/><stop offset="1" stop-color="#E3821F"/></linearGradient><path class="st2" d="M682.5 98.8c8.2.2 16.2 3.2 22.4 8.6.7.6.9 1.6.3 2.4l-.1.1-7.2 7.7c-.7.6-1.7.6-2.5.1-3.3-3-7.6-4.6-12-4.4-10.2 0-18.4 8.3-18.4 18.4 0 10.2 8.3 18.4 18.5 18.4 2.8 0 5.6-.5 8.2-1.5v-5.3h-5.8c-.9.1-1.6-.6-1.7-1.5v-9.3c-.1-.9.6-1.6 1.5-1.7h18.6c.9 0 1.7.8 1.7 1.7l.1 24.7c-.1.6-.3 1.1-.7 1.5-6.9 3.9-14.7 6-22.7 6a33.06 33.06 0 0 1-31.7-34.3c.7-16.9 13.9-30.5 30.8-31.6h.7zm64.3-.1c18.2-.1 33 14.7 33.1 32.9s-14.7 33-32.9 33.1-33-14.7-33.1-32.9 14.7-33 32.9-33.1zm0 51.3c10.2.1 18.4-8.1 18.5-18.3s-8.1-18.4-18.3-18.5-18.4 8.1-18.5 18.3v.2c.1 10.1 8.2 18.2 18.3 18.3zm44.1-48.7c0-.9.8-1.7 1.7-1.7h10.9c.9 0 1.7.8 1.7 1.7v49H827c.9 0 1.7.8 1.7 1.7v10c0 .9-.8 1.7-1.7 1.7h-34.5c-.9 0-1.7-.8-1.7-1.7l.1-60.7zm46.9 0c0-.9.8-1.7 1.7-1.7h22.4c17.7 0 32.1 14.4 32.1 32.1s-14.4 32.1-32.1 32.1h-22.4c-.9 0-1.7-.8-1.7-1.7v-60.8zm23.1 48.9c10.4 0 17.9-8.2 17.9-18.6s-7.5-18.5-17.9-18.5h-8.8v37.1h8.8z"/><path class="st3" d="M168.9 127.6c3.8-5 5.9-11.1 5.9-17.4 0-14.7-11.3-26.9-26-28V68.4h-12.9v13.7h-9V68.4H114v13.7H83.1L91 97.9h9.1v65.8h-9l-7.9 15.8H114v13.2h12.9v-13.2h9v13.2h12.9v-13.2h4.8c15.6-.2 28.2-13 28-28.6a28.4 28.4 0 0 0-12.7-23.3zm-22.1-4.9h-30.9V97.9h30.9c6.8 0 12.4 5.6 12.4 12.4s-5.6 12.4-12.4 12.4zm6.8 16.2c6.8 0 12.4 5.6 12.4 12.4 0 6.8-5.6 12.4-12.4 12.4h-37.7v-24.8h37.7zm132.8-37.6c0-.9.8-1.7 1.7-1.7h21.4c10.8 0 19.7 7.4 19.7 17.1 0 7.1-6.3 12.2-10.6 14.5 4.9 2 12.3 6.5 12.3 14.9 0 10.3-9.1 17.7-20 17.7h-22.7c-.9 0-1.7-.8-1.7-1.7l-.1-60.8zm21.5 24.3c3.6-.1 6.5-3 6.4-6.6 0-3.4-2.8-6.2-6.2-6.2h-7.4v12.8h7.2zm1.2 25.1c3.6 0 6.6-3 6.6-6.6v-.1c0-3.7-3.9-6.4-7.5-6.4h-7.4v13.1h8.3zm33.4-49.4c0-.9.8-1.7 1.7-1.7h11c.9 0 1.7.8 1.7 1.7V162c0 .9-.8 1.7-1.7 1.7h-11c-.9 0-1.7-.8-1.7-1.7v-60.7zm38.6 11.8H368c-.9 0-1.7-.8-1.7-1.7v-10c0-.9.8-1.7 1.7-1.7h40.7c.9 0 1.7.8 1.7 1.7v10c0 .9-.8 1.7-1.7 1.7h-13.1v49c0 .9-.8 1.7-1.7 1.7h-11c-.9 0-1.7-.8-1.7-1.7l-.1-49zm66.5-14.4c9.2 0 16 2.8 22.2 8.5.7.7.8 1.8.2 2.5l-.1.1-7.2 7.4c-.7.6-1.6.6-2.3 0-3.4-3-7.8-4.7-12.4-4.7-10.4 0-18 8.6-18 18.9s7.7 18.6 18.1 18.6c4.5 0 8.8-1.6 12.3-4.4.7-.6 1.8-.6 2.4.1l7.2 7.6c.6.7.6 1.8-.1 2.5-5.9 5.8-14 9-22.3 8.9-18.2.1-33-14.5-33.1-32.7v-.2c-.1-18.2 14.7-33 32.9-33.1h.2zm61.3 0c18.2-.1 33 14.7 33.1 32.9s-14.7 33-32.9 33.1c-18.2.1-33-14.7-33.1-32.9s14.7-33 32.9-33.1zm0 51.3c10.2.1 18.4-8.1 18.5-18.3.1-10.2-8.1-18.4-18.3-18.5s-18.4 8.1-18.5 18.3v.2c.1 10.1 8.2 18.2 18.3 18.3zm45.8-50.4h11c.9 0 1.7.8 1.7 1.7V162c0 .9-.8 1.7-1.7 1.7h-11c-.9 0-1.7-.8-1.7-1.7v-60.7c0-.9.8-1.7 1.7-1.7zm28.5.7c0-.9.8-1.7 1.7-1.7h2.3l36.6 35.2h.1v-32.6c0-.9.8-1.7 1.7-1.7h11c.9 0 1.7.8 1.7 1.7v61.7c0 .9-.8 1.7-1.7 1.7h-1.5c-.4-.1-.8-.2-1.2-.5l-36.2-36.4h-.1v34.2c0 .9-.8 1.7-1.7 1.7H585c-.9 0-1.7-.8-1.7-1.7l-.1-61.6zM131.7 42C82.2 42 42 82.2 42 131.7s40.2 89.7 89.7 89.7 89.7-40.2 89.7-89.7A89.88 89.88 0 0 0 131.7 42zm0 170.4c-44.6 0-80.7-36.1-80.7-80.7S87.1 51 131.7 51s80.7 36.1 80.7 80.7a80.92 80.92 0 0 1-80.7 80.7z"/></svg>