<svg xmlns="http://www.w3.org/2000/svg" xmlns:xlink="http://www.w3.org/1999/xlink" width="282" height="75"><path d="M37.3.35A36.9 36.9 0 0 0 2.28 48.91H13.3V17.86L37.3 41.85l23.99-23.99v31.05h11.03A36.9 36.9 0 0 0 37.3.35" fill="#f60"/><path d="M21.32 36.9v19.53H5.77A36.88 36.88 0 0 0 37.3 74.16c13.35 0 25.06-7.1 31.53-17.73H53.28V36.9L37.3 52.88z" fill="#4c4c4c"/><path d="M272.7 47.76a9.52 9.52 0 0 1-7.09 3.01c-2.46 0-4.63-.77-6.53-2.32-2.45-1.98-3.67-4.68-3.67-8.09 0-3.05.97-5.57 2.92-7.55a9.63 9.63 0 0 1 7.18-2.98 9.62 9.62 0 0 1 7.18 3.05 10.28 10.28 0 0 1 2.96 7.45c0 2.94-.98 5.42-2.94 7.43m4.1-18.94a15.3 15.3 0 0 0-11.24-4.73c-2.88 0-5.56.73-8.05 2.17a16.01 16.01 0 0 0-8.01 14c0 4.4 1.52 8.2 4.59 11.4 3.05 3.2 6.9 4.79 11.51 4.79 4.41 0 8.16-1.55 11.26-4.67a15.57 15.57 0 0 0 4.64-11.42c0-4.53-1.57-8.37-4.7-11.54" id="a" fill="#4c4c4c"/><path d="M238.3 35.97c-.74.52-1.09.77-3.05.77h-7.74v-6.61h7.5c1.5 0 1.77.1 2.38.34a3.05 3.05 0 0 1 2.02 2.96c0 1.18-.37 2.03-1.1 2.54m.93 6.1a9.34 9.34 0 0 0 4.6-3.25 8.94 8.94 0 0 0 1.53-5.33c0-2.02-.46-3.78-1.38-5.26a7.84 7.84 0 0 0-3.66-3.17c-1.52-.64-4.06-.96-7.64-.96h-11.33v32.34h6.15v-13.7h5.37l7.28 13.7h6.73l-7.65-14.38zM193.78 24.1h20.96v6.02H199.9v6.62h14.85v5.92H199.9v7.73h14.85v6.04h-20.96V24.1zM161.29 24.1h5.89l13.87 21.27V24.1h6.15v32.34h-5.9l-13.86-21.2v21.2h-6.15V24.1z" fill="#4c4c4c"/><use transform="translate(-125.06)" width="282" height="75" xlink:href="#a"/><path d="M89.69 24.1h6.02l7.48 22.55 7.58-22.56h5.94l5.45 32.34h-5.94l-3.47-20.42-6.88 20.42h-5.43l-6.79-20.42-3.54 20.42h-6l5.58-32.34z" fill="#4c4c4c"/></svg>