<svg id="Vrstva_1" xmlns="http://www.w3.org/2000/svg" viewBox="0 0 383.5 147.1"><style>.st0{fill:#4360DE;} .st1{fill:#030303;} .st2{fill:#FEFEFE;}</style><circle class="st0" cx="73.5" cy="73.6" r="73.5"/><path class="st1" d="M264.2 67.2l.2-4H275V97h-10.6l-.2-3.5-.6-.6c-.2.5-.4 1-.8 1.5-4.1 4.2-11.3 5-16.7 1.9-6.1-3.7-8.8-9.3-8.8-16.3s2.6-12.4 8.7-16 12.7-2.3 18.2 3.2zm0 12.8c0-5-3.6-8.7-8.2-8.7s-8 3.9-7.9 9c0 4.9 3.4 8.4 8 8.4s8.2-3.6 8.2-8.7h-.1zm70.3 17l-.2-4.1c-3.4 4.3-7.7 5.4-12.5 5.1-5.9-.3-10.2-4.1-10.4-10-.4-8.2-.1-16.5-.1-25h10.5v16.5c0 2 .3 4 .8 5.9a4.4 4.4 0 0 0 4.2 3.3c2.4.2 4.7-.1 6-2.4.9-1.5 1.4-3.2 1.5-4.9.2-5.2 0-10.4.1-15.6v-2.7h10.7V97h-10.6zM175.7 85.9h10.2c1.2 4.2 4 6 7.7 4.6 1.1-.5 2.2-1.4 2.3-2.5s-.2-2.3-1.8-3-5.3-1.8-8-2.8l-4.5-1.7c-3.2-1.5-5.1-3.9-5.2-7.6 0-4 1.5-7 5-8.8a28.7 28.7 0 0 1 16.7-.5c5.6 1.9 7.9 5.7 8.1 9.8h-10.4c-.2-3.6-2.7-4.5-5.3-4.3-2.2.1-3.3 1.8-3.3 2.9s.7 2 1.6 2.5c2.4 1 5 1.8 7.6 2.8l5.3 2c6.8 2.8 6.1 12.2 1.6 15.4-1.2.9-2.6 1.7-4 2.2a25.4 25.4 0 0 1-15.9 0c-5.1-1.7-7.7-5.4-7.7-11zm176.8 0h10.2c1.2 4.2 4 6 7.7 4.6 1.1-.5 2.2-1.4 2.3-2.5s-.2-2.3-1.8-3c-1.6-.8-5.3-1.8-8-2.8l-4.5-1.7c-3.2-1.5-5.1-3.9-5.2-7.6 0-4 1.5-7 5-8.8a28.7 28.7 0 0 1 16.7-.5c5.6 1.9 7.9 5.7 8.1 9.8h-10.4c-.2-3.6-2.7-4.5-5.3-4.3-2.2.1-3.3 1.8-3.3 2.9s.7 2 1.6 2.5c2.4 1 5 1.8 7.6 2.8l5.3 2c6.8 2.8 6.1 12.2 1.6 15.4-1.2.9-2.6 1.7-4 2.2a25.4 25.4 0 0 1-15.9 0c-5.1-1.7-7.7-5.4-7.7-11zM209.6 63h5V53h11v9.9h7.6V71h-7.5v14c.2 2.8 1.5 3.9 4.3 4h4v8a33 33 0 0 1-12.9-.1c-3.8-1.1-6-4.6-6.2-9.3-.2-4.6 0-9.2-.1-13.7V71h-5.2v-8zm96 26.1v8.1c-4.3.5-8.6 1-12.7-.1-4-1.1-6-4.2-6.3-8-.3-4.4-.2-8.6-.3-13v-5h-5.2V63h5.2V53H297v9.8h7.7V71h-7.5c0 4.9-.2 9.5 0 14.1.2 2.8 1.5 3.8 4.3 4h4.1z"/><path class="st2" d="M57.5 70.3a34 34 0 0 1 6.7-18.1 28.9 28.9 0 0 1 25.5-12.7c4.9.2 9.5 2.2 13 5.6a14 14 0 0 1 .5 19.9c-1.1 1.1-2.3 2-3.6 2.8-5 2.7-10.4 3.3-16 3-4.7-.2-9.5-.9-14.3-1-3.8-.1-7.6.3-11.8.5zm33.6 6.4c-.6 15.8-15.7 31.1-33 28-3.7-.6-7.1-2.4-9.8-5a12.8 12.8 0 0 1 2.5-20.3c3.7-2.1 7.8-3.2 12-3.2 3.4 0 6.7.4 10.1.5h18.2z"/></svg>