<svg xmlns="http://www.w3.org/2000/svg" viewBox="0 0 1515 525"><circle cx="262.5" cy="262.5" r="257"/><linearGradient id="a" gradientUnits="userSpaceOnUse" x1="403.9" y1="198.9" x2="121.1" y2="-83.9" gradientTransform="matrix(1 0 0 -1 0 320)"><stop offset="0" stop-color="#ffd25c"/><stop offset="1" stop-color="#cd8421"/></linearGradient><circle cx="262.5" cy="262.5" r="200" fill="url(#a)"/><path d="M166.2 342.2l69.8-96.8a1129 1129 0 0 1 35.3-43.6v-1h-97.4v-60.3h181.2v45.6l-66.6 92.8c-12.2 16.1-23.6 31.6-36.2 45.1v1h106.5v60.7H166.2v-43.5z"/><path d="M233.9 95.8h55.3v54h-55.3zM233.9 375.2h55.3v54h-55.3z"/><g><path d="M760 306.3l.6 1.2a81.4 81.4 0 0 1-25.5 64c-17.4 16.8-41.6 24.8-71.4 24.8-30.4 0-55.3-9.9-73.9-30.4-19.3-20.5-28.6-46.6-28.6-78.3V238c0-31.7 9.3-57.8 28-78.3a94.5 94.5 0 0 1 73.3-31.1c30.4 0 54.7 8.1 72.7 24.2 18 16.2 26.1 37.9 26.1 65.2l-.6 1.2h-42.2c0-17.4-5-31.1-14.3-41-9.3-9.9-23.6-14.9-41.6-14.9a49 49 0 0 0-42.2 21.1 85.6 85.6 0 0 0-15.5 52.8V287c0 21.1 5.6 39.1 16.2 53.4a50.2 50.2 0 0 0 42.9 21.1c18 0 31.7-5 41-14.3s13.7-23 13.7-41c-.3.1 41.3.1 41.3.1zM943.9 331.8H842l-20.5 60.9h-44.1L873.1 133h41l94.4 259.6h-44.1zm-89.5-36.7h77l-37.9-111.2h-1.2zM1179.3 325.5c0-10.6-3.7-19.9-11.8-26.7-8.1-6.8-22.4-13-42.9-18.6-29.2-7.5-51.6-17.4-67.1-30.4a60.7 60.7 0 0 1-23.6-49.1c0-21.1 8.7-37.9 26.1-51.6 17.4-13.7 39.8-20.5 67.1-20.5 28.6 0 51.6 7.5 68.9 23a68.6 68.6 0 0 1 24.8 55.3l-.6 1.2h-41.6c0-13-4.3-24.2-13.7-32.3a56.2 56.2 0 0 0-38.5-12.4c-15.5 0-28 3.7-36.6 10.6a32 32 0 0 0-13 26.7c0 9.9 4.3 18 13.7 24.8 9.3 6.8 24.2 12.4 46 18.6 28 7.5 49.1 18 64 31.1a63.2 63.2 0 0 1 21.7 50.3c0 21.7-8.7 39.1-26.1 51.6-17.4 13-40.4 19.3-68.3 19.3-27.3 0-50.9-7.5-71.4-21.7a66.2 66.2 0 0 1-29.8-59l.6-1.2h41.6a42 42 0 0 0 16.2 35.4 71.3 71.3 0 0 0 42.9 11.8c16.2 0 28.6-3.1 37.3-9.9 9.7-7 14.1-15.7 14.1-26.3zM1471.2 392h-43.5V281.4h-116.2V392H1268V132.4h43.5v114.3h116.2V132.4h43.5z"/></g></svg>