<svg id="Vrstva_1" xmlns="http://www.w3.org/2000/svg" xmlns:xlink="http://www.w3.org/1999/xlink" viewBox="0 0 40 480" style="enable-background:new 0 0 40 480"><style>.st0{fill:#b7d167}.st1{fill:#2daae1}</style><title>form_icons</title><path class="st0" d="M29.6 25.4C29 24.5 27 23.9 25 23c-.8-.3-1.7-.7-2.5-1.1V20c.6-.6 1-1.5 1-2.4.5.1 1-.7 1-1.1s-.1-1.6-.6-1.5c.1-.7.2-1.4.2-2.1-.3-1.9-2.1-3.3-4-3.2-1.9-.1-3.7 1.2-4 3.2.0.7.0 1.4.2 2.1-.6-.1-.7 1-.6 1.5s.5 1.3 1 1.1c0 .9.4 1.7 1 2.4v1.9c-.8.4-1.7.8-2.6 1.1-2 .8-4 1.4-4.6 2.4S10 30.3 10 30.3h20C30 30.3 30.1 26.2 29.6 25.4z"/><path class="st0" d="M29.6 65.4C29 64.4 27 63.9 25 63c-.8-.3-1.7-.7-2.5-1.1V60c.6-.6 1-1.5 1-2.4.5.1 1-.7 1-1.1s-.1-1.6-.6-1.5c.1-.7.2-1.4.2-2.1-.3-1.9-2.1-3.3-4-3.2-1.9-.1-3.7 1.2-4 3.2.0.7.0 1.4.2 2.1-.6-.1-.7 1-.6 1.5s.5 1.3 1 1.1c0 .9.4 1.7 1 2.4v1.9c-.8.4-1.7.8-2.6 1.1-2 .8-4 1.4-4.6 2.3S10 70.3 10 70.3h20C30 70.3 30.1 66.2 29.6 65.4z"/><path class="st0" d="M20 90.2c-5.4.0-9.9 4.4-9.9 9.8.0 5.4 4.4 9.8 9.9 9.8s9.9-4.4 9.9-9.8v0C29.8 94.6 25.4 90.2 20 90.2zM22.7 105.2v0c.1.0.1.0.1-.1.0.1.0.2.1.3-.1-.5.4-.6.7-.9.1-.1.3-.5.4-.5.0.1.0.2.0.3.0-.1.0.0.0.0.0.1.0.2-.1.3.0.0.0.0.0-.1-.4.3-.4 1.4-1 1.6-.3.1-.3-.3-.2-.4S22.6 105.4 22.7 105.2v0c-.1.0-.2-.3-.2-.5s.2-.1.2-.1c.1-.1.1-.2.2-.3C22.9 104.5 22.6 105 22.7 105.2v0zM27.1 98.8c-.2-.3-.3-.7-.4-.9s-.3-.9-.6-1.1c.1.1.1.2.0.3-.2.0-.3-.1-.4-.3.0-.1.2.1.1-.1-.3.0-.4-.2-.6-.4-.4.0-.8.3-1.1.0-.1-.1-.2-.3-.3-.2-.1.1-.2.1-.3.1-.4-.1-.6-.5-1-.5.0.2.3.4.4.5s.3.5.3.1c.2.1.1.4.4.3.3.1.2-.3.2-.4.1.0.1.3.2.3s.3.1.5.2c.2.2.2.4.2.6-.1.0.0.2-.1.3-.1.1-.1.2-.1.3-.2.0-.4.1-.4.3-.1.2-1.2.9-1.4.7-.1-.3-.3-.6-.4-.9-.3-.2-.6-.5-.7-.8.1-.4-.9-1.1-1.1-1.1.1.5.5.8.8 1.2s.5 1.1.7 1.2c.4.0.7.7.9.9s.9-.5 1.2-.4c.1.3.0.6.0.9-.2.7-.6 1.3-1.1 1.8-.2.3-.5.6-.7 1-.2.3.3 1 .2 1.2.1.4-.1.9-.5 1.1-.3.2-.6.4-.5.8s-.3.4-.4.6c-.1.3-.3.5-.6.7H20c-.3.0-.6.0-.9-.1-.4-.5-.8-1-1.1-1.4-.2-.3-.6-.8-.2-1.1.0-.4-.2-.7-.4-1-.2-.3-1.2-1.1-.8-1.5.0-.3-.2-.5-.2-.7-.2-.2-.4.2-.6-.1s-.6-.3-.9.0c-.3.1-.7.1-1 .1-.6-.6-.9-1.4-.7-2.3.1-.3.1-.9.4-1.2.1-.3.5-.7.7-1s.3-.2.4-.3c.2-.3.3-.5.6-.7.3-.2.8-.6.3-.6.2-.3.4-.6.6-.9.2-.1.5-.1.6-.2.2-.3.2-.3.2-.5s.5-.2.5-.3c.2-.1.3-.2.5-.3 3.8-1.1 7.8 1.1 8.9 4.9C27 98.2 27.1 98.5 27.1 98.8v0z"/><path class="st0" d="M20.2 94c0 .1.5.1.5.1-.1.0.0.0.0.0.4-.3-.9-.5-.9-.5.0.0.1.0.1-.1-.2.1-.1-.2-.3.1.1.2-.2.3-.1.5S20 94.1 20.2 94z"/><path class="st0" d="M18.5 94.5c-.2-.1-.1.1-.2.2s-.2.3-.5.2c0-.3.6.0.3-.5-.1-.2-.3-.5-.5-.3s-.7.3-.9.6c-.1.1-.9.7-.9.8.3.2 1.5-.7 1.8-.4.0.2-.3.3-.3.6.1.0.1.1.2.1.4-.1.3.2.6.3.5.1.1.0.4-.3.1-.1.6-.1.7.1.0-.1.2.0.0.0.2.0.5.2.6.0.1-.1.2-.1.3.0.0.0.0.0.0.0.4.3.3-.9.3-1-.1.1-1 .2-1 .1s-.1-.1-.2-.2c.2-.2-.1-.1.0-.3-.1.0-.2.0-.3.0.0.1.1.1-.1.1-.1.2.1.3.1.4.0.0-.1.0-.1.0.0.1.0.1.0.2-.3-.1-.1-.3-.4-.6.2-.2-.5-.5-.4-.7C17.8 93.9 18.7 94.4 18.5 94.5zM17.6 94.7c0 0-.1.0-.1.0.0-.1.2-.6.3-.6C17.8 94.3 17.6 94.6 17.6 94.7v0z"/><path class="st0" d="M17.6 94.7C17.6 94.6 17.5 94.7 17.6 94.7z"/><path class="st0" d="M21.8 94.2c-.1.0.0.4.2.4.1.1.3.1.4.1.0-.3-.8-.9-1-1 0 0 0-.1.1-.1-.1-.3-.4-.1-.4.1S21.8 94 21.8 94.2z"/><path class="st0" d="M22 94.6C21.9 94.6 22.1 94.7 22 94.6z"/><path class="st0" d="M22.4 93.7c-.1.0-.3-.3-.4-.3s0 .1.0.1.1.1.0.0C22.1 93.5 22.3 93.8 22.4 93.7z"/><path class="st0" d="M17 94.1c0 0-.1.1-.1.1v0C16.9 94.2 17 94.1 17 94.1z"/><path class="st0" d="M24.6 132.1H18v-1.3c0-.7-.6-1.3-1.3-1.3-.7.0-1.3.6-1.3 1.3v1.3c-1.5.0-2.6 1.2-2.6 2.6v0 13.1c0 1.5 1.2 2.6 2.6 2.6.0.0.0.0.0.0h9.2c1.5.0 2.6-1.2 2.6-2.6v0-13.1C27.2 133.3 26 132.1 24.6 132.1zM16.7 147.9h-1.3v-1.3h1.3V147.9zM16.7 145.2h-1.3v-1.3h1.3V145.2zM16.7 142.6h-1.3v-1.3h1.3V142.6zM19.4 147.9H18v-1.3h1.3L19.4 147.9zM19.4 145.2H18v-1.3h1.3L19.4 145.2zM19.4 142.6H18v-1.3h1.3L19.4 142.6zM22 147.9h-1.3v-1.3H22V147.9zM22 145.3h-1.3V144H22V145.3zM22 142.6h-1.3v-1.3H22V142.6zM24.6 147.9h-1.4v-1.3h1.3L24.6 147.9zM24.6 145.2h-1.4v-1.3h1.3L24.6 145.2zM24.6 142.6h-1.4v-1.3h1.3L24.6 142.6zM24.6 140h-9.2v-5.3h9.2V140z"/><path class="st0" d="M20 181.7l8.9-7.9c-.1.0-.1.0-.2.0H11.3h-.1L20 181.7z"/><path class="st0" d="M30 175c0-.1.0-.3-.1-.4l-6.3 5.6 6.2 5.4c.1-.2.2-.4.2-.6V175z"/><path class="st0" d="M10.1 174.5c-.1.2-.1.3-.1.5v10c0 .2.0.3.1.5l6.3-5.4L10.1 174.5z"/><path class="st0" d="M22.7 181l-2.7 2.3-2.7-2.3-6.1 5.3h17.5L22.7 181z"/><path class="st0" d="M25.9 217.9v-1.8c0-3.3-2.6-5.9-5.9-5.9s-5.9 2.6-5.9 5.9v1.8h-1.3v11.8h14.4v-11.8H25.9zM20.9 227.1h-2.2l.5-3c-.3-.2-.5-.5-.5-.9.0-.6.5-1.1 1.1-1.1s1.1.5 1.1 1.1v0c0 .4-.2.7-.5.9L20.9 227.1zM23.3 217.9h-6.6v-1.8c.1-1.8 1.7-3.2 3.5-3.1 1.7.1 3 1.4 3.1 3.1L23.3 217.9z"/><path class="st1" d="M29.6 265.4c-.6-.9-2.6-1.5-4.6-2.4-.8-.3-1.7-.7-2.5-1.1V260c.6-.6 1-1.5 1-2.4.5.1 1-.7 1-1.1s-.1-1.6-.6-1.5c.1-.7.2-1.4.2-2.1-.3-1.9-2.1-3.3-4-3.2-1.9-.1-3.7 1.2-4 3.2.0.7.0 1.4.2 2.1-.6-.1-.7 1.1-.6 1.5s.5 1.3 1 1.1c0 .9.4 1.7 1 2.4v1.9c-.8.4-1.7.8-2.6 1.1-2 .8-4 1.4-4.6 2.4s-.4 4.9-.4 4.9h20C30 270.2 30.1 266.2 29.6 265.4z"/><path class="st1" d="M29.6 305.4c-.6-.9-2.6-1.5-4.6-2.4-.8-.3-1.7-.7-2.5-1.1V3e2c.6-.6 1-1.5 1-2.4.5.1 1-.7 1-1.1s-.1-1.6-.6-1.5c.1-.7.2-1.4.2-2.1-.3-1.9-2.1-3.3-4-3.2-1.9-.1-3.7 1.2-4 3.2.0.7.0 1.4.2 2.1-.6-.1-.7 1-.6 1.5s.5 1.3 1 1.1c0 .9.4 1.7 1 2.4v1.9c-.8.4-1.7.8-2.6 1.1-2 .8-4 1.4-4.6 2.4s-.4 4.9-.4 4.9h20C30 310.2 30.1 306.2 29.6 305.4z"/><path class="st1" d="M20 330.1c-5.4.0-9.9 4.4-9.9 9.9s4.4 9.9 9.9 9.9 9.8-4.4 9.9-9.9S25.4 330.1 20 330.1c0 0 0 0 0 0zM22.7 345.1v0c.1.0.1.0.1-.1.0.1.0.2.1.3-.1-.5.4-.6.7-.9.1-.1.3-.5.4-.5.0.1.0.2.0.3.0-.1.0.0.0.0.0.1.0.2-.1.3.0.0.0.0.0-.1-.4.4-.4 1.4-1 1.6-.3.1-.3-.3-.2-.5S22.6 345.4 22.7 345.1v0c-.1.0-.2-.3-.2-.5s.2-.1.2.0c.1-.1.1-.2.2-.3C22.9 344.5 22.6 345 22.7 345.1v0zM27.1 338.9c-.2-.3-.3-.7-.4-.9s-.3-.9-.6-1.1c.1.1.1.2.0.3-.2.0-.3-.1-.4-.3.0-.1.2.1.1-.1-.3.0-.4-.2-.6-.4-.4.0-.8.3-1.1.0-.1.0-.2-.4-.3-.2-.1.1-.2.1-.3.1-.4-.1-.6-.5-1-.5.0.2.3.4.4.5s.3.5.3.1c.2.1.1.4.4.3.3.1.2-.3.2-.4.1.0.1.3.2.3s.3.1.5.2c.2.2.2.4.2.6-.1.0.0.2-.1.3-.1.1-.1.2-.1.4-.2.0-.4.1-.4.4-.1.1-1.2.9-1.4.7-.1-.3-.3-.6-.4-.9-.3-.2-.6-.5-.7-.8.1-.4-.9-1.1-1.1-1.1.1.5.5.8.8 1.1s.5 1.1.7 1.2c.4.0.7.7.9.9s.9-.5 1.2-.4c.1.3.0.6.0.8-.2.7-.6 1.3-1.1 1.8-.2.3-.5.6-.7 1-.2.3.3 1 .2 1.2.1.4-.1.9-.5 1.1-.3.2-.6.4-.5.8s-.3.4-.4.6c-.1.3-.3.5-.6.6H20c-.3.0-.6.0-.9.0-.4-.5-.8-1-1.1-1.4-.2-.3-.6-.8-.2-1.1.0-.4-.2-.7-.4-1-.2-.4-1.2-1.1-.8-1.5.0-.3-.2-.5-.2-.7-.2-.2-.4.2-.6-.1s-.6-.3-.9.0c-.3.1-.7.1-1 .1-.6-.6-.9-1.5-.6-2.3.1-.3.1-.9.4-1.1.1-.4.5-.7.7-1s.3-.2.4-.3c.2-.3.3-.5.6-.7.3-.2.8-.6.3-.6.2-.3.4-.6.6-.9.2-.1.5-.1.6-.2.2-.3.2-.3.2-.5s.5-.2.5-.3c.2-.1.3-.2.5-.3 3.8-1.1 7.8 1.1 8.9 4.9.1.3.1.6.2.8L27.1 338.9z"/><path class="st1" d="M20.2 334c0 .1.5.1.5.1-.1.0.0.0.0.0.4-.3-.9-.5-.9-.5.0.0.1.0.1-.1-.2.1-.1-.2-.3.1.1.2-.2.3-.1.5S20 334.1 20.2 334z"/><path class="st1" d="M18.5 334.5c-.2-.1-.1.0-.2.2s-.2.3-.5.2c0-.3.6.0.3-.5-.1-.2-.3-.5-.5-.3s-.7.3-.9.6c-.1.1-.9.7-.9.8.3.2 1.5-.7 1.8-.4.0.2-.3.4-.3.5.1.0.1.1.2.1.4-.1.3.2.6.3.5.1.1.0.4-.3.1-.1.6-.1.7.1.0-.1.2.0.0.0.2.0.5.2.6.0.1-.1.2-.1.3.0.0.0.0.0.0.0.4.3.3-.9.3-1-.1.1-1 .2-1 .1s-.1-.1-.2-.2c.2-.2-.1-.1.0-.3-.1.0-.2.0-.3.0.0.1.1.1-.1.0-.1.2.1.3.1.4.0.0-.1.0-.1.0.0.1.0.1.0.2-.3.0-.1-.3-.4-.6.2-.2-.5-.5-.4-.6C17.8 333.9 18.7 334.4 18.5 334.5zM17.6 334.7c0 0-.1.0-.1.0.0-.1.2-.6.3-.6C17.8 334.3 17.6 334.5 17.6 334.7v0z"/><path class="st1" d="M17.6 334.7C17.6 334.6 17.5 334.7 17.6 334.7z"/><path class="st1" d="M21.8 334.2c-.1.0.0.4.2.4.1.1.3.1.4.1.0-.3-.8-.9-1-1 0 0 0-.1.1-.1-.1-.3-.4-.1-.4.1S21.8 334 21.8 334.2z"/><path class="st1" d="M22 334.5C21.9 334.5 22.1 334.6 22 334.5z"/><path class="st1" d="M22.4 333.6c-.1.0-.3-.3-.4-.3s0 .1.0.1.1.1.0.0C22.1 333.5 22.3 333.8 22.4 333.6z"/><path class="st1" d="M17 334.1c0 0-.1.1-.1.1v0C16.9 334.2 17 334.1 17 334.1z"/><path class="st1" d="M24.6 372.1H18v-1.3c0-.7-.6-1.3-1.3-1.3-.7.0-1.3.6-1.3 1.3v1.3c-1.5.0-2.6 1.2-2.6 2.6v0 13.1c0 1.5 1.2 2.6 2.6 2.6.0.0.0.0.0.0h9.2c1.5.0 2.6-1.2 2.6-2.6v0-13.1C27.2 373.3 26 372.1 24.6 372.1zM16.7 387.9h-1.3v-1.3h1.3V387.9zM16.7 385.3h-1.3V384h1.3V385.3zM16.7 382.6h-1.3v-1.3h1.3V382.6zM19.4 387.9H18v-1.3h1.3L19.4 387.9zM19.4 385.2H18v-1.3h1.3L19.4 385.2zM19.4 382.6H18v-1.3h1.3L19.4 382.6zM22 387.9h-1.3v-1.3H22V387.9zM22 385.3h-1.3V384H22V385.3zM22 382.6h-1.3v-1.3H22V382.6zM24.6 387.9h-1.4v-1.3h1.3L24.6 387.9zM24.6 385.2h-1.4v-1.3h1.3L24.6 385.2zM24.6 382.6h-1.4v-1.3h1.3L24.6 382.6zM24.6 380h-9.2v-5.3h9.2V380z"/><path class="st1" d="M20 421.7l8.9-7.9c-.1.0-.1.0-.2.0H11.3h-.1L20 421.7z"/><path class="st1" d="M30 415c0-.1.0-.3-.1-.4l-6.3 5.6 6.2 5.4c.1-.2.2-.4.2-.6V415z"/><path class="st1" d="M10.1 414.5c-.1.2-.1.3-.1.5v10c0 .2.0.3.1.5l6.3-5.4L10.1 414.5z"/><path class="st1" d="M22.7 421l-2.7 2.3-2.7-2.3-6.1 5.3h17.5L22.7 421z"/><path class="st1" d="M25.9 457.9v-1.8c0-3.3-2.6-5.9-5.9-5.9s-5.9 2.6-5.9 5.9v1.8h-1.3v11.8h14.4v-11.8H25.9zM20.9 467.1h-2.2l.5-3c-.3-.2-.5-.5-.5-.9.0-.6.5-1.1 1.1-1.1s1.1.5 1.1 1.1v0c0 .4-.2.7-.5.9L20.9 467.1zM23.3 457.9h-6.6v-1.8c.1-1.8 1.7-3.2 3.5-3.1 1.7.1 3 1.4 3.1 3.1L23.3 457.9z"/></svg>