<svg width="298" height="140" viewBox="0 0 298 140" fill="none" xmlns="http://www.w3.org/2000/svg">
<path d="M0 0H298V120C298 131.046 289.046 140 278 140H0V0Z" fill="#00011D"/>
<rect width="298" height="140" fill="#00011B"/>
<ellipse cx="149.56" cy="54.065" rx="33.68" ry="33.195" fill="white"/>
<path d="M153.209 42.773C152.986 42.6871 152.515 42.8489 152.159 43.1342C151.802 43.4197 151.692 43.7216 151.913 43.8091C152.136 43.8968 152.608 43.7356 152.966 43.4487C153.325 43.1619 153.434 42.8592 153.209 42.773Z" fill="#00011D"/>
<path d="M152.619 34.7666C150.923 34.3964 149.988 36.6164 150.129 36.9083C150.439 37.5517 152.992 36.5628 153.973 37.2419C154.954 37.921 155.265 35.3437 152.619 34.7666ZM151.599 36.4474C151.553 36.6379 151.221 36.6688 151.071 36.6077C150.741 36.4731 150.955 36.1737 151.212 35.9778C151.291 35.9175 151.635 35.8388 151.601 36.0855C151.581 36.2299 151.612 36.3919 151.599 36.4474ZM153.974 36.5379C153.912 36.7025 153.754 36.7353 153.596 36.6923C153.526 36.6733 153.453 36.642 153.396 36.5986C153.271 36.5041 153.323 36.3457 153.335 36.2127C153.338 36.1869 153.378 35.914 153.354 35.9056C153.513 35.9575 153.669 36.0153 153.823 36.0788C153.998 36.1512 154.035 36.3778 153.974 36.5379Z" fill="#00011D"/>
<path d="M149.557 20.8718C130.956 20.8718 115.877 35.7338 115.877 54.067C115.877 72.4004 130.956 87.2624 149.557 87.2624C168.158 87.2624 183.237 72.4004 183.237 54.067C183.237 35.7338 168.158 20.8718 149.557 20.8718ZM173.754 35.2158C179.634 44.3661 177.699 55.5036 174.76 61.2987C175.252 44.7823 166.381 50.3688 164.409 42.8393C162.826 36.7928 165.824 30.6705 163.697 28.353C162.997 27.5904 170.933 30.8246 173.754 35.2158ZM162.393 51.8261C165.041 53.3919 166.523 52.248 168.599 53.5264C170.18 54.4997 171.556 56.9268 171.802 57.4126C169.54 54.9837 168.8 54.012 164.118 54.012C161.438 54.012 160.054 51.864 159.929 50.3688C159.784 48.6427 160.034 46.7255 161.161 44.2965C160.056 48.8156 161.161 51.0975 162.393 51.8261ZM167.322 51.5832C165.309 50.973 163.132 51.5832 162.147 48.6686C161.071 45.4881 162.684 39.6817 162.892 39.2852C162.931 41.6248 162.04 46.8163 168.845 49.6401C173.527 51.5832 173.527 58.3841 173.527 58.3841C172.295 55.4694 170.525 52.5548 167.322 51.5832ZM156.317 32.4945C155.88 32.2078 153.303 31.7914 154.073 30.8967C154.844 30.0018 157.518 28.734 158.082 28.9464C158.645 29.1587 159.364 31.4399 159.976 31.6877C160.588 31.9356 161.818 31.8847 162.014 31.9484C162.21 32.0122 163.304 33.8499 163.155 34.3223C163.006 34.7947 160.062 33.4424 159.426 34.1915C159.426 34.1915 154.963 39.4057 154.606 40.2638C154.248 41.122 155.659 44.4513 155.448 44.8047C155.238 45.1581 154.467 44.7208 153.877 45.2966C153.85 45.3224 152.882 44.848 152.663 44.9199C152.161 45.085 151.844 45.6144 151.481 45.9634C151.068 46.3613 150.617 46.72 150.134 47.033C149.918 47.1735 148.596 47.7678 149.392 48.01C149.736 48.1148 150.47 47.6795 150.763 47.5345C151.267 47.2851 151.788 46.8984 152.388 46.9736C152.842 47.0306 153.184 47.4894 153.688 47.4847C154.047 47.4811 154.898 47.1363 155.116 47.3186C155.334 47.5009 155.835 47.8836 155.515 48.3263C155.196 48.7689 153.83 49.7098 151.406 48.6686C151.376 48.6559 151.338 49.2968 151.344 49.3396C151.391 49.71 151.541 49.9335 151.885 50.0811C152.511 50.3498 153.233 50.2655 153.895 50.3518C154.343 50.4102 155.376 50.4699 155.53 51.0196C155.782 51.921 153.814 51.3215 152.995 52.3526C152.176 53.3838 149.975 56.9278 147.061 55.795C146.305 55.5014 146.011 54.5121 145.834 53.8152C145.259 51.5417 145.356 49.0648 145.501 46.746C145.555 45.8708 145.679 45.002 145.771 44.1304C145.867 43.2359 145.93 42.3332 146.157 41.4588C146.321 40.825 146.582 40.2052 146.97 39.6722C147.368 39.1277 147.929 38.8408 148.398 38.3797C148.678 38.104 149.079 37.7691 149.233 37.3994C149.401 36.9965 147.985 31.2374 156.08 33.2918C156.08 33.2918 156.754 32.781 156.317 32.4945ZM157.353 59.7693C157.359 59.9695 151.712 63.4275 150.622 62.7431C149.523 62.0529 147.911 59.2192 147.818 57.8993C147.818 57.8907 147.816 57.8818 147.816 57.8732C147.875 57.8568 151.32 58.0618 152.324 57.8628C153.221 57.9789 153.712 58.622 154.567 59.1591C155.34 59.6445 157.331 59.0447 157.353 59.7693ZM152.334 26.7486C150.911 28.189 147.665 30.2472 144.654 37.1165C141.633 44.0111 142.193 48.8463 142.778 51.1561C140.984 48.3547 139.049 41.0143 142.986 34.0456C145.98 28.7438 150.318 27.2202 152.334 26.7486ZM134.841 37.1402C135.79 29.7631 140.016 26.0778 142.091 24.6338C141.14 26.9126 138.363 30.409 138.123 39.5757C137.882 48.7761 140.8 54.328 142.536 56.691C139.196 54.3131 133.595 46.8371 134.841 37.1402ZM131.277 30.7688C130.894 33.6094 129.672 37.8852 132.733 46.0816C136.11 55.125 141.306 59.1782 143.982 61.4028C139.546 60.0618 132.268 55.9464 129.203 46.665C126.592 38.7563 129.758 33.3085 131.277 30.7688ZM123.888 40.0097C124.599 42.8777 125.446 49.4534 131.843 56.5107C138.901 64.2973 147.803 63.738 147.579 64.414C147.323 65.1812 135.062 64.9912 128.223 56.842C122.395 49.898 123.458 41.2752 123.888 40.0097ZM174.745 67.5361C174.131 70.3099 172.147 72.5907 169.994 74.4755C165.398 78.5002 159.695 81.291 153.662 82.4689C157.088 80.0765 159.744 76.6372 161.176 72.7461C159.274 77.3391 155.089 80.9484 150.22 82.2017C145.35 83.4551 139.911 82.3208 135.973 79.2336C143.906 80.8926 152.674 77.6742 157.573 71.3082C152.472 75.6655 145.781 78.1771 139.032 78.2669C137.023 78.2936 134.978 78.1042 133.117 77.3586C129.45 75.8843 127.013 72.4935 124.778 69.2705C131.944 73.1711 140.816 73.7954 148.527 71.1382C148.559 71.1285 148.593 71.1164 148.628 71.1043C151.91 70.0209 155.099 68.2721 158.741 65.9136C161.23 64.3033 163.263 62.62 166.627 62.2704C168.543 62.0721 170.148 62.2812 171.495 62.7465C169.604 61.2402 167.604 61.0939 164.902 61.2987C159.474 61.7103 154.798 71.0142 137.302 71.0142C131.103 71.0142 118.326 66.3995 120.477 51.6658C122.171 54.493 123.74 57.1283 126.178 59.4334C128.536 61.6608 131.311 63.4678 134.342 64.6701C134.859 64.8764 135.382 65.0636 135.909 65.2311C142.679 67.3857 150.459 66.4335 156.321 62.4622C158.874 60.7328 161.154 58.4303 164.141 57.6238C166.96 56.8612 170.156 57.6506 172.278 59.6325C173.727 60.9879 174.759 62.9991 174.87 64.8182C174.91 65.1267 174.93 65.4376 174.932 65.7485C174.937 66.3485 174.875 66.9484 174.745 67.5361Z" fill="#00011D"/>
<path d="M182.6 34.4959C175.863 23.4157 163.56 16 149.5 16C128.2 16 110.933 33.0189 110.933 54.012C110.933 67.0706 117.615 78.5923 127.792 85.4346C133.976 89.5928 141.449 92.0241 149.5 92.0241C170.799 92.0241 188.066 75.0051 188.066 54.012C188.066 46.8775 186.072 40.2008 182.6 34.4959ZM149.557 89.3879C129.765 89.3879 113.72 73.5741 113.72 54.067C113.72 34.5598 129.765 18.7462 149.557 18.7462C169.348 18.7462 185.393 34.5598 185.393 54.067C185.393 73.5741 169.348 89.3879 149.557 89.3879Z" fill="#FEFEFE"/>
<path d="M106.245 123.647H104V106.702H112.31V108.726H106.245V114.139H112.31V116.116H106.245V123.647Z" fill="#FEFEFE"/>
<path d="M122.051 106.702V123.647H119.807V106.702H122.051Z" fill="#FEFEFE"/>
<path d="M131.985 109.947L132.176 123.647H129.884V106.702H132.295L141.059 119.999L140.916 106.702H143.16V123.647H140.957L131.985 109.947Z" fill="#FEFEFE"/>
<path d="M153.26 106.702V123.647H151.016V106.702H153.26Z" fill="#FEFEFE"/>
<path d="M163.385 106.702V123.647H161.116V106.702H163.385ZM163.504 115.222L163.48 115.269V115.175L163.504 115.222ZM169.951 123.647L163.623 115.222L170.237 106.702H172.973L166.254 115.164L172.803 123.647H169.951Z" fill="#FEFEFE"/>
<path d="M195 115.08C195 117.544 194.156 119.646 192.468 121.388C190.781 123.129 188.687 124 186.188 124C183.72 124 181.631 123.122 179.92 121.364C178.209 119.607 177.354 117.513 177.354 115.08C177.354 112.696 178.229 110.648 179.98 108.938C181.731 107.228 183.816 106.372 186.236 106.372C188.672 106.372 190.741 107.224 192.444 108.926C194.148 110.629 195 112.68 195 115.08ZM192.588 115.033C192.588 113.323 191.955 111.825 190.689 110.538C189.424 109.252 187.923 108.608 186.188 108.608C184.453 108.608 182.949 109.26 181.676 110.562C180.402 111.864 179.765 113.371 179.765 115.08C179.765 116.853 180.386 118.41 181.628 119.752C182.869 121.094 184.389 121.764 186.188 121.764C188.067 121.764 189.611 121.098 190.821 119.764C191.999 118.478 192.588 116.901 192.588 115.033Z" fill="#FEFEFE"/>
</svg>
