<svg width="298" height="458" viewBox="0 0 298 458" fill="none" xmlns="http://www.w3.org/2000/svg">
<path d="M-563.612 355.106C-519.511 362.686 -565.342 410.07 -520.186 417.831C-475.03 425.591 -313.633 278.066 -267.21 286.042C-220.787 294.019 -359.261 419.662 -312.414 427.714C-265.568 435.766 -86.5363 266.518 -40.9607 274.353C4.61482 282.189 -164.805 439.762 -119.207 447.593C-73.6093 455.424 134.961 259.207 181.522 267.189C228.082 275.17 38.1196 442.556 84.6747 450.555C131.23 458.554 355.338 260.735 401.417 268.632C447.495 276.53 276.328 440.825 321.506 448.586C366.685 456.346 405.801 414.313 451.01 422.1C496.219 429.886 418.339 507.912 463.747 515.712C509.155 523.512 461.416 560.633 508.651 568.751C555.887 576.869 771.372 383.691 820.347 392.104" stroke="url(#paint0_linear)" stroke-width="0.4" stroke-miterlimit="22.9256" stroke-linecap="round"/>
<path d="M-565.373 363.768C-520.967 370.085 -563.523 416.705 -518.058 423.168C-472.592 429.63 -321.486 284.07 -274.75 290.736C-228.013 297.401 -357.707 421.402 -310.537 428.085C-263.368 434.769 -96.1385 267.931 -50.227 274.464C-4.31546 280.998 -162.782 436.376 -116.875 442.883C-70.9686 449.39 123.947 255.932 170.829 262.598C217.712 269.264 39.4494 434.553 86.327 441.219C133.205 447.884 343.48 252.52 389.868 259.119C436.256 265.719 276.523 427.613 321.988 434.08C367.453 440.547 403.691 399.206 449.214 405.691C494.736 412.176 422.282 489.004 467.982 495.502C513.681 502 468.582 538.764 516.144 545.544C563.706 552.325 765.695 361.604 814.996 368.614" stroke="url(#paint1_linear)" stroke-width="0.4" stroke-miterlimit="22.9256" stroke-linecap="round"/>
<path d="M-566 372.486C-521.409 377.549 -560.874 423.529 -515.201 428.757C-469.528 433.984 -328.087 290.056 -281.138 295.41C-234.19 300.765 -355.64 423.353 -308.259 428.757C-260.878 434.16 -104.699 269.335 -58.5808 274.592C-12.4626 279.85 -160.614 433.423 -114.5 438.676C-68.3861 443.93 113.713 252.794 160.807 258.162C207.902 263.53 40.6456 427.093 87.7351 432.46C134.825 437.828 332.099 244.504 378.681 249.814C425.262 255.125 276.254 414.997 321.935 420.211C367.617 425.424 401.13 384.714 446.878 389.928C492.626 395.142 425.214 470.941 471.134 476.172C517.054 481.403 474.419 517.928 522.197 523.375C569.975 528.822 759.28 340.199 808.811 345.845" stroke="url(#paint2_linear)" stroke-width="0.4" stroke-miterlimit="22.9256" stroke-linecap="round"/>
<path d="M-565.232 380.233C-520.469 384.13 -556.919 429.37 -511.083 433.36C-465.247 437.351 -333.385 295.308 -286.278 299.414C-239.171 303.519 -352.458 424.563 -304.914 428.704C-257.369 432.845 -112.143 270.279 -65.8528 274.322C-19.5619 278.366 -157.52 429.878 -111.26 433.912C-65.0008 437.947 104.414 249.389 151.672 253.526C198.93 257.663 42.5834 419.234 89.8366 423.349C137.09 427.463 321.467 236.478 368.235 240.552C415.002 244.627 276.593 402.243 322.425 406.243C368.257 410.242 399.095 370.208 444.984 374.203C490.874 378.198 428.494 452.859 474.564 456.872C520.635 460.885 480.458 497.087 528.405 501.263C576.351 505.439 753.09 319.178 802.789 323.503" stroke="url(#paint3_linear)" stroke-width="0.4" stroke-miterlimit="22.9256" stroke-linecap="round"/>
<path d="M-563.249 387.345C-518.428 390.099 -551.872 434.552 -505.983 437.369C-460.094 440.185 -337.698 300.208 -290.507 303.108C-243.315 306.009 -348.563 425.313 -300.953 428.235C-253.342 431.158 -118.929 271.082 -72.5893 273.938C-26.2503 276.794 -154.098 426.045 -107.759 428.884C-61.4197 431.723 95.4258 246.061 142.745 248.97C190.065 251.879 44.526 411.267 91.828 414.189C139.129 417.111 310.752 228.721 357.608 231.599C404.463 234.478 276.496 389.635 322.394 392.443C368.292 395.251 396.477 355.959 442.428 358.779C488.379 361.6 430.949 435.016 477.094 437.85C523.239 440.684 485.482 476.507 533.504 479.456C581.525 482.404 745.806 298.743 795.571 301.802" stroke="url(#paint4_linear)" stroke-width="0.4" stroke-miterlimit="22.9256" stroke-linecap="round"/>
<path d="M-560.092 393.812C-515.299 395.458 -545.806 439.072 -499.943 440.759C-454.081 442.445 -341.045 304.711 -293.902 306.451C-246.759 308.19 -343.994 425.587 -296.419 427.335C-248.843 429.082 -125.118 271.713 -78.7882 273.417C-32.4581 275.121 -150.368 421.918 -104.06 423.622C-57.7515 425.325 86.7102 242.768 133.999 244.503C181.288 246.238 46.4197 403.201 93.7038 404.918C140.988 406.635 299.979 221.159 346.778 222.881C393.576 224.602 275.967 377.108 321.847 378.785C367.726 380.462 393.302 341.938 439.218 343.624C485.134 345.311 432.596 417.393 478.696 419.089C524.797 420.784 489.487 456.17 537.464 457.936C585.441 459.701 737.461 278.927 787.187 280.754" stroke="url(#paint5_linear)" stroke-width="0.4" stroke-miterlimit="22.9256" stroke-linecap="round"/>
<path d="M-557.289 399.878C-512.565 400.46 -540.172 443.183 -494.381 443.779C-448.589 444.374 -344.762 309.082 -297.695 309.69C-250.627 310.299 -340.003 425.666 -292.498 426.271C-244.993 426.876 -131.758 272.424 -85.5208 273.025C-39.2828 273.625 -147.356 417.773 -101.106 418.374C-54.8545 418.975 77.4045 239.763 124.622 240.376C171.84 240.989 47.497 395.322 94.7105 395.922C141.924 396.523 288.478 214.167 335.206 214.772C381.934 215.377 274.496 364.99 320.292 365.586C366.089 366.182 389.121 328.466 434.971 329.062C480.82 329.657 433.068 400.314 479.12 400.915C525.173 401.516 492.233 436.42 540.135 437.043C588.037 437.665 727.947 260.024 777.602 260.647" stroke="url(#paint6_linear)" stroke-width="0.4" stroke-miterlimit="22.9256" stroke-linecap="round"/>
<path d="M-553.413 405.298C-508.822 404.857 -533.612 446.64 -487.975 446.185C-442.338 445.73 -347.579 313.046 -300.662 312.578C-253.744 312.11 -335.407 425.26 -288.066 424.784C-240.724 424.307 -137.807 272.928 -91.7284 272.486C-45.649 272.045 -144.081 413.341 -98.0155 412.865C-51.9502 412.388 68.3574 236.765 115.412 236.288C162.467 235.811 48.486 387.301 95.5446 386.82C142.604 386.338 276.91 207.343 323.48 206.879C370.049 206.415 272.597 352.996 318.235 352.528C363.872 352.06 384.41 315.213 430.101 314.758C475.791 314.303 432.75 383.455 478.626 383.001C524.501 382.546 493.941 416.917 541.68 416.44C589.419 415.963 717.395 241.629 766.899 241.148" stroke="url(#paint7_linear)" stroke-width="0.4" stroke-miterlimit="22.9256" stroke-linecap="round"/>
<path d="M-548.512 410.066C-504.177 408.64 -526.172 449.442 -480.773 447.977C-435.374 446.511 -349.508 316.59 -302.85 315.103C-256.193 313.615 -330.241 424.399 -283.156 422.885C-236.07 421.37 -143.268 273.267 -97.4319 271.788C-51.5958 270.309 -140.57 408.635 -94.7389 407.151C-48.9075 405.669 59.6433 233.807 106.451 232.315C153.258 230.822 49.4444 379.248 96.2435 377.743C143.042 376.238 265.336 200.813 311.657 199.322C357.979 197.829 270.316 341.179 315.715 339.7C361.114 338.221 379.202 302.279 424.654 300.813C470.106 299.348 431.669 366.954 477.307 365.467C522.944 363.979 494.715 397.789 542.206 396.257C589.697 394.725 706.001 223.963 755.218 222.378" stroke="url(#paint8_linear)" stroke-width="0.4" stroke-miterlimit="22.9256" stroke-linecap="round"/>
<path d="M-542.6 413.946C-498.526 411.575 -517.806 451.349 -472.677 448.921C-427.547 446.493 -350.382 319.486 -303.994 316.992C-257.606 314.498 -324.245 422.836 -277.434 420.316C-230.622 417.795 -147.723 273.135 -102.16 270.668C-56.5979 268.2 -136.297 403.382 -90.7343 400.946C-45.1718 398.509 51.8686 230.598 98.4155 228.095C144.962 225.592 51.1093 370.843 97.6341 368.336C144.158 365.829 254.678 194.205 300.722 191.729C346.765 189.252 268.682 329.225 313.812 326.81C358.941 324.394 374.645 289.358 419.828 286.926C465.01 284.493 431.068 350.409 476.436 347.968C521.805 345.527 495.862 378.693 543.067 376.15C590.272 373.607 695.123 206.601 744.054 203.966" stroke="url(#paint9_linear)" stroke-width="0.4" stroke-miterlimit="22.9256" stroke-linecap="round"/>
<path d="M-535.73 417.182C-491.996 413.906 -508.632 452.617 -463.851 449.262C-419.07 445.907 -350.386 321.959 -304.374 318.515C-258.362 315.072 -317.725 420.82 -271.262 417.341C-224.799 413.863 -151.581 272.795 -106.368 269.396C-61.1546 265.998 -131.833 397.856 -86.6196 394.474C-41.4062 391.093 44.4337 227.349 90.6053 223.892C136.777 220.436 52.69 362.315 98.8569 358.859C145.024 355.403 244.025 187.769 289.724 184.348C335.424 180.927 266.66 317.381 311.454 314.026C356.249 310.671 369.621 276.618 414.46 273.258C459.298 269.9 429.74 334.089 474.759 330.721C519.778 327.353 496.079 359.857 542.926 356.325C589.773 352.793 683.432 189.765 731.996 186.131" stroke="url(#paint10_linear)" stroke-width="0.4" stroke-miterlimit="22.9256" stroke-linecap="round"/>
<path d="M-528.001 419.773C-484.677 415.637 -498.747 453.238 -454.386 449.005C-410.025 444.772 -349.667 324.012 -304.048 319.659C-258.428 315.306 -310.759 418.356 -264.755 413.964C-218.751 409.572 -154.916 272.261 -110.126 267.97C-65.3356 263.68 -127.212 392.095 -82.4218 387.822C-37.6318 383.549 37.2761 224.126 83.0149 219.761C128.754 215.395 54.1766 353.747 99.9112 349.381C145.645 345.016 233.406 181.554 278.673 177.22C323.939 172.885 264.285 305.679 308.645 301.446C353.007 297.212 364.141 264.153 408.556 259.915C452.971 255.677 427.677 318.079 472.277 313.824C516.877 309.568 495.385 341.351 541.791 336.936C588.196 332.522 670.928 173.563 719.029 168.973" stroke="url(#paint11_linear)" stroke-width="0.4" stroke-miterlimit="22.9256" stroke-linecap="round"/>
<path d="M-520.968 422.744C-478.068 417.787 -489.719 454.413 -445.794 449.336C-401.87 444.26 -349.327 326.285 -304.194 321.045C-259.06 315.805 -304.635 416.538 -259.082 411.271C-213.528 406.005 -158.589 271.952 -114.236 266.823C-69.8833 261.694 -123.441 387.085 -79.0931 381.964C-34.7453 376.843 29.837 221.201 75.1258 215.983C120.415 210.764 54.817 346.031 100.119 340.795C145.421 335.56 222.541 175.71 267.357 170.514C312.173 165.318 261.114 294.903 305.039 289.827C348.963 284.749 357.974 252.573 401.951 247.488C445.929 242.402 424.662 303.237 468.824 298.13C512.987 293.023 493.548 324.206 539.512 318.877C585.477 313.549 657.864 158.193 705.514 152.706" stroke="url(#paint12_linear)" stroke-width="0.4" stroke-miterlimit="22.9256" stroke-linecap="round"/>
<path d="M-513.122 425.093C-470.739 419.354 -480.01 454.979 -436.589 449.098C-393.168 443.219 -348.29 328.143 -303.655 322.1C-259.019 316.057 -298.105 414.291 -253.064 408.182C-208.023 402.072 -161.776 271.432 -117.935 265.494C-74.0943 259.557 -119.52 381.814 -75.6842 375.877C-31.8487 369.939 22.6588 218.238 67.4263 212.172C112.193 206.106 55.4173 338.186 100.181 332.125C144.943 326.064 211.68 170.037 255.984 164.037C300.288 158.038 257.608 284.273 301.016 278.397C344.424 272.522 351.377 241.255 394.848 235.366C438.317 229.476 420.98 288.688 464.63 282.776C508.281 276.865 490.912 307.404 536.329 301.251C581.746 295.097 644.054 143.497 691.139 137.118" stroke="url(#paint13_linear)" stroke-width="0.4" stroke-miterlimit="22.9256" stroke-linecap="round"/>
<path d="M-504.504 426.801C-462.659 420.321 -469.662 454.912 -426.801 448.272C-383.941 441.633 -346.537 329.569 -302.494 322.748C-258.45 315.928 -291.156 411.606 -246.707 404.72C-202.257 397.834 -164.474 270.72 -121.212 264.006C-77.9498 257.292 -115.473 376.313 -72.2059 369.612C-28.9393 362.912 15.7357 215.28 59.9161 208.433C104.096 201.586 55.9116 330.328 100.092 323.486C144.272 316.644 200.877 164.563 244.585 157.787C288.292 151.011 253.781 273.81 296.628 267.189C339.475 260.567 344.415 230.218 387.311 223.574C430.207 216.93 416.684 274.459 459.76 267.785C502.837 261.11 487.473 290.973 532.293 284.03C577.114 277.086 629.568 129.358 676.036 122.158" stroke="url(#paint14_linear)" stroke-width="0.4" stroke-miterlimit="22.9256" stroke-linecap="round"/>
<path d="M-495.158 427.741C-453.874 420.55 -458.651 454.081 -416.378 446.723C-374.104 439.364 -343.95 330.403 -300.503 322.837C-257.055 315.27 -283.554 408.313 -239.7 400.672C-195.847 393.03 -166.275 269.537 -123.587 262.103C-80.8986 254.669 -110.704 370.327 -68.0251 362.893C-25.3456 355.459 9.784 212.026 53.3861 204.415C96.9882 196.805 57.1477 322.108 100.728 314.515C144.308 306.923 191.018 158.938 234.147 151.425C277.277 143.911 250.695 263.149 292.964 255.786C335.232 248.422 338.23 219.049 380.551 211.681C422.873 204.314 413.054 260.117 455.552 252.735C498.05 245.354 484.638 274.485 528.841 266.786C573.043 259.088 615.934 115.403 661.77 107.426" stroke="url(#paint15_linear)" stroke-width="0.4" stroke-miterlimit="22.9256" stroke-linecap="round"/>
<path d="M-485.135 428.076C-444.474 420.219 -447.096 452.665 -405.463 444.622C-363.831 436.579 -340.722 330.818 -297.924 322.55C-255.126 314.282 -275.606 404.605 -232.415 396.271C-189.223 387.937 -167.625 268.16 -125.573 260.038C-83.5209 251.915 -105.861 364.121 -63.8212 356.003C-21.7817 347.885 4.08523 208.765 46.9939 200.47C89.9032 192.175 58.2301 313.876 101.157 305.595C144.084 297.313 181.191 153.531 223.676 145.325C266.16 137.119 247.26 252.706 288.893 244.649C330.526 236.593 331.643 208.208 373.325 200.156C415.006 192.105 408.782 246.146 450.64 238.054C492.497 229.962 480.997 258.36 524.55 249.973C568.104 241.585 601.666 102.028 646.814 93.3048" stroke="url(#paint16_linear)" stroke-width="0.4" stroke-miterlimit="22.9256" stroke-linecap="round"/>
<path d="M-474.482 427.798C-434.496 419.319 -435.047 450.652 -394.104 441.969C-353.16 433.285 -336.881 330.814 -294.798 321.896C-252.715 312.979 -267.359 400.504 -224.887 391.485C-182.415 382.466 -168.526 266.531 -127.189 257.759C-85.8517 248.989 -100.937 357.684 -59.6048 348.899C-18.2724 340.115 -1.36299 205.431 40.8529 196.479C83.0687 187.527 59.2547 305.594 101.466 296.62C143.677 287.646 171.478 148.234 213.239 139.374C255 130.514 243.552 242.371 284.496 233.688C325.441 225.004 324.739 197.604 365.732 188.908C406.724 180.211 403.96 232.451 445.121 223.72C486.282 214.989 476.635 242.641 519.464 233.555C562.294 224.471 586.837 89.2044 631.229 79.7885" stroke="url(#paint17_linear)" stroke-width="0.4" stroke-miterlimit="22.9256" stroke-linecap="round"/>
<path d="M-463.238 426.911C-423.98 417.844 -422.515 448.06 -382.338 438.777C-342.162 429.494 -332.45 330.381 -291.148 320.837C-249.846 311.293 -258.835 395.98 -217.14 386.351C-175.444 376.723 -169.017 264.677 -128.399 255.305C-87.7818 245.933 -95.9184 351.001 -55.3363 341.629C-14.7537 332.258 -6.49787 202.072 34.945 192.501C76.3885 182.931 60.1987 297.229 101.637 287.659C143.076 278.088 161.875 143.099 202.89 133.626C243.904 124.154 239.614 232.209 279.807 222.926C320.001 213.643 317.564 187.253 357.802 177.961C398.04 168.669 398.618 219.072 439.037 209.744C479.456 200.417 471.606 227.274 513.65 217.562C555.694 207.851 571.494 76.9274 615.074 66.8805" stroke="url(#paint18_linear)" stroke-width="0.4" stroke-miterlimit="22.9256" stroke-linecap="round"/>
<path d="M-453.012 425.883C-414.478 416.259 -411.11 445.333 -371.653 435.48C-332.197 425.627 -328.873 329.935 -288.299 319.809C-247.726 309.682 -251.315 391.463 -210.384 381.24C-169.453 371.016 -170.177 262.934 -130.341 252.996C-90.5049 243.059 -91.9 344.441 -52.0637 334.495C-12.2279 324.55 -12.3027 198.973 28.3767 188.819C69.0566 178.667 60.2126 289.128 100.892 278.971C141.572 268.813 151.695 138.354 191.951 128.302C232.206 118.251 234.825 222.435 274.277 212.582C313.729 202.729 309.623 177.364 349.123 167.502C388.623 157.64 392.39 206.181 432.076 196.276C471.762 186.37 465.629 212.423 506.913 202.121C548.198 191.817 555.602 65.3619 598.387 54.6786" stroke="url(#paint19_linear)" stroke-width="0.4" stroke-miterlimit="22.9256" stroke-linecap="round"/>
<path d="M-442.289 424.28C-404.523 414.127 -399.318 442.057 -360.652 431.679C-321.986 421.3 -324.763 329.079 -285.02 318.396C-245.277 307.713 -243.621 386.568 -203.511 375.783C-163.401 364.999 -171.004 260.965 -131.958 250.485C-92.9118 240.005 -87.8084 337.665 -48.789 327.185C-9.76957 316.705 -17.8224 195.79 22.0443 185.081C61.911 174.372 60.1411 280.944 100.003 270.243C139.866 259.543 141.645 133.697 181.097 123.107C220.549 112.517 229.789 212.772 268.456 202.394C307.123 192.016 301.414 167.684 340.124 157.292C378.834 146.9 385.696 193.552 424.569 183.117C463.442 172.681 459.032 197.905 499.477 187.046C539.923 176.186 539.261 54.2603 581.189 43.0031" stroke="url(#paint20_linear)" stroke-width="0.4" stroke-miterlimit="22.9256" stroke-linecap="round"/>
<path d="M-431.102 422.104C-394.153 411.51 -387.195 438.239 -349.359 427.375C-311.523 416.511 -320.158 327.812 -281.267 316.63C-242.375 305.449 -235.722 381.302 -196.469 370.045C-157.216 358.788 -171.414 258.802 -133.216 247.81C-95.0182 236.818 -83.7419 330.717 -45.544 319.765C-7.34567 308.812 -23.0718 192.585 15.9387 181.381C54.9493 170.178 59.96 272.786 98.9617 261.583C137.963 250.379 131.734 129.212 170.338 118.114C208.943 107.016 224.514 203.312 262.35 192.449C300.186 181.585 292.955 158.294 330.83 147.422C368.706 136.549 378.512 181.289 416.542 170.376C454.573 159.463 451.787 183.832 491.362 172.46C530.939 161.089 522.523 43.7535 563.547 31.9709" stroke="url(#paint21_linear)" stroke-width="0.4" stroke-miterlimit="22.9256" stroke-linecap="round"/>
<path d="M-419.495 419.358C-383.402 408.322 -374.78 433.886 -337.818 422.576C-300.856 411.267 -315.081 326.13 -277.095 314.502C-239.109 302.875 -227.647 375.677 -189.33 363.944C-151.013 352.211 -171.454 256.347 -134.143 244.927C-96.8325 233.507 -79.6453 323.569 -42.312 312.145C-4.97916 300.721 -28.0254 189.279 10.0803 177.616C48.186 165.953 59.6733 264.54 97.7744 252.886C135.875 241.233 121.977 124.793 159.689 113.25C197.402 101.706 219.009 193.989 255.966 182.676C292.924 171.361 284.248 149.126 321.246 137.794C358.243 126.462 370.839 169.295 407.995 157.924C445.151 146.552 443.919 170.068 482.581 158.233C521.243 146.397 505.416 33.7021 545.485 21.4345" stroke="url(#paint22_linear)" stroke-width="0.4" stroke-miterlimit="22.9256" stroke-linecap="round"/>
<path d="M-407.503 416.034C-372.245 404.557 -362.029 428.969 -325.941 417.235C-289.853 405.501 -309.38 323.95 -272.273 311.889C-235.165 299.829 -219.175 369.577 -181.727 357.402C-144.279 345.227 -170.724 253.505 -134.274 241.656C-97.825 229.808 -75.0263 316.026 -38.5764 304.177C-2.12641 292.329 -32.0993 185.681 5.13201 173.581C42.3633 161.481 60.0403 256.042 97.2454 243.943C134.451 231.843 113.271 120.19 150.106 108.218C186.939 96.2455 214.294 184.49 250.396 172.756C286.497 161.022 276.444 139.829 312.593 128.082C348.743 116.335 363.979 157.217 400.274 145.431C436.57 133.644 436.831 156.278 474.591 144.001C512.352 131.724 489.478 23.7034 528.621 10.9764" stroke="url(#paint23_linear)" stroke-width="0.4" stroke-miterlimit="22.9256" stroke-linecap="round"/>
<path d="M-395.168 412.224C-360.784 400.385 -349.08 423.622 -313.871 411.501C-278.662 399.379 -303.275 321.38 -267.073 308.923C-230.87 296.466 -210.561 363.198 -174.032 350.621C-137.503 338.045 -169.617 250.415 -134.072 238.182C-98.5269 225.949 -70.3773 308.371 -34.8285 296.121C0.720337 283.871 -35.8615 181.991 0.43879 169.484C36.7386 156.978 60.3186 247.549 96.6179 235.051C132.918 222.554 104.764 115.637 140.693 103.268C176.621 90.8993 209.424 175.166 244.634 163.044C279.843 150.922 268.506 130.783 303.746 118.631C338.987 106.478 356.756 145.488 392.155 133.299C427.554 121.111 429.241 142.892 466.07 130.21C502.9 117.527 473.311 14.1415 511.487 1" stroke="url(#paint24_linear)" stroke-width="0.4" stroke-miterlimit="22.9256" stroke-linecap="round"/>
<defs>
<linearGradient id="paint0_linear" x1="-73.4466" y1="559.529" x2="541.572" y2="-7.23667" gradientUnits="userSpaceOnUse">
<stop stop-color="#000117" stop-opacity="0.01"/>
<stop offset="0.26" stop-color="#1B0086"/>
<stop offset="0.73" stop-color="#128AEA"/>
<stop offset="1" stop-color="#00EAFF"/>
</linearGradient>
<linearGradient id="paint1_linear" x1="-76.4788" y1="536.729" x2="509.064" y2="-30.1576" gradientUnits="userSpaceOnUse">
<stop stop-color="#000117" stop-opacity="0.01"/>
<stop offset="0.26" stop-color="#1B0086"/>
<stop offset="0.73" stop-color="#128AEA"/>
<stop offset="1" stop-color="#00EAFF"/>
</linearGradient>
<linearGradient id="paint2_linear" x1="-79.0745" y1="514.907" x2="480.229" y2="-49.9658" gradientUnits="userSpaceOnUse">
<stop stop-color="#000117" stop-opacity="0.01"/>
<stop offset="0.26" stop-color="#1B0086"/>
<stop offset="0.73" stop-color="#128AEA"/>
<stop offset="1" stop-color="#00EAFF"/>
</linearGradient>
<linearGradient id="paint3_linear" x1="-80.7114" y1="493.153" x2="451.424" y2="-68.1573" gradientUnits="userSpaceOnUse">
<stop stop-color="#000117" stop-opacity="0.01"/>
<stop offset="0.26" stop-color="#1B0086"/>
<stop offset="0.73" stop-color="#128AEA"/>
<stop offset="1" stop-color="#00EAFF"/>
</linearGradient>
<linearGradient id="paint4_linear" x1="-81.9872" y1="471.717" x2="422.118" y2="-83.973" gradientUnits="userSpaceOnUse">
<stop stop-color="#000117" stop-opacity="0.01"/>
<stop offset="0.26" stop-color="#1B0086"/>
<stop offset="0.73" stop-color="#128AEA"/>
<stop offset="1" stop-color="#00EAFF"/>
</linearGradient>
<linearGradient id="paint5_linear" x1="-82.9181" y1="450.577" x2="392.532" y2="-97.4676" gradientUnits="userSpaceOnUse">
<stop stop-color="#000117" stop-opacity="0.01"/>
<stop offset="0.26" stop-color="#1B0086"/>
<stop offset="0.73" stop-color="#128AEA"/>
<stop offset="1" stop-color="#00EAFF"/>
</linearGradient>
<linearGradient id="paint6_linear" x1="-84.5023" y1="436.6" x2="377.503" y2="-105.035" gradientUnits="userSpaceOnUse">
<stop stop-color="#000117" stop-opacity="0.01"/>
<stop offset="0.26" stop-color="#1B0086"/>
<stop offset="0.73" stop-color="#128AEA"/>
<stop offset="1" stop-color="#00EAFF"/>
</linearGradient>
<linearGradient id="paint7_linear" x1="-85.7895" y1="438.685" x2="400.478" y2="-100.899" gradientUnits="userSpaceOnUse">
<stop stop-color="#000117" stop-opacity="0.01"/>
<stop offset="0.26" stop-color="#1B0086"/>
<stop offset="0.73" stop-color="#128AEA"/>
<stop offset="1" stop-color="#00EAFF"/>
</linearGradient>
<linearGradient id="paint8_linear" x1="-86.7616" y1="440.217" x2="420.623" y2="-94.728" gradientUnits="userSpaceOnUse">
<stop stop-color="#000117" stop-opacity="0.01"/>
<stop offset="0.26" stop-color="#1B0086"/>
<stop offset="0.73" stop-color="#128AEA"/>
<stop offset="1" stop-color="#00EAFF"/>
</linearGradient>
<linearGradient id="paint9_linear" x1="-86.898" y1="440.959" x2="438.812" y2="-87.7094" gradientUnits="userSpaceOnUse">
<stop stop-color="#000117" stop-opacity="0.01"/>
<stop offset="0.26" stop-color="#1B0086"/>
<stop offset="0.73" stop-color="#128AEA"/>
<stop offset="1" stop-color="#00EAFF"/>
</linearGradient>
<linearGradient id="paint10_linear" x1="-86.7317" y1="441.153" x2="454.61" y2="-79.3452" gradientUnits="userSpaceOnUse">
<stop stop-color="#000117" stop-opacity="0.01"/>
<stop offset="0.26" stop-color="#1B0086"/>
<stop offset="0.73" stop-color="#128AEA"/>
<stop offset="1" stop-color="#00EAFF"/>
</linearGradient>
<linearGradient id="paint11_linear" x1="-86.3325" y1="440.548" x2="482.908" y2="-68.6851" gradientUnits="userSpaceOnUse">
<stop stop-color="#000117" stop-opacity="0.01"/>
<stop offset="0.26" stop-color="#1B0086"/>
<stop offset="0.73" stop-color="#128AEA"/>
<stop offset="1" stop-color="#00EAFF"/>
</linearGradient>
<linearGradient id="paint12_linear" x1="-86.5768" y1="440.504" x2="510.062" y2="-54.8516" gradientUnits="userSpaceOnUse">
<stop stop-color="#000117" stop-opacity="0.01"/>
<stop offset="0.26" stop-color="#1B0086"/>
<stop offset="0.73" stop-color="#128AEA"/>
<stop offset="1" stop-color="#00EAFF"/>
</linearGradient>
<linearGradient id="paint13_linear" x1="-86.6012" y1="439.953" x2="531.85" y2="-39.1759" gradientUnits="userSpaceOnUse">
<stop stop-color="#000117" stop-opacity="0.01"/>
<stop offset="0.26" stop-color="#1B0086"/>
<stop offset="0.73" stop-color="#128AEA"/>
<stop offset="1" stop-color="#00EAFF"/>
</linearGradient>
<linearGradient id="paint14_linear" x1="-86.385" y1="438.871" x2="548.803" y2="-22.3924" gradientUnits="userSpaceOnUse">
<stop stop-color="#000117" stop-opacity="0.01"/>
<stop offset="0.26" stop-color="#1B0086"/>
<stop offset="0.73" stop-color="#128AEA"/>
<stop offset="1" stop-color="#00EAFF"/>
</linearGradient>
<linearGradient id="paint15_linear" x1="-85.4015" y1="437.113" x2="562.518" y2="-5.84068" gradientUnits="userSpaceOnUse">
<stop stop-color="#000117" stop-opacity="0.01"/>
<stop offset="0.26" stop-color="#1B0086"/>
<stop offset="0.73" stop-color="#128AEA"/>
<stop offset="1" stop-color="#00EAFF"/>
</linearGradient>
<linearGradient id="paint16_linear" x1="-84.2259" y1="434.858" x2="572.304" y2="10.9647" gradientUnits="userSpaceOnUse">
<stop stop-color="#000117" stop-opacity="0.01"/>
<stop offset="0.26" stop-color="#1B0086"/>
<stop offset="0.73" stop-color="#128AEA"/>
<stop offset="1" stop-color="#00EAFF"/>
</linearGradient>
<linearGradient id="paint17_linear" x1="-82.8657" y1="432.101" x2="578.531" y2="27.7027" gradientUnits="userSpaceOnUse">
<stop stop-color="#000117" stop-opacity="0.01"/>
<stop offset="0.26" stop-color="#1B0086"/>
<stop offset="0.73" stop-color="#128AEA"/>
<stop offset="1" stop-color="#00EAFF"/>
</linearGradient>
<linearGradient id="paint18_linear" x1="-81.3255" y1="428.854" x2="581.546" y2="44.1469" gradientUnits="userSpaceOnUse">
<stop stop-color="#000117" stop-opacity="0.01"/>
<stop offset="0.26" stop-color="#1B0086"/>
<stop offset="0.73" stop-color="#128AEA"/>
<stop offset="1" stop-color="#00EAFF"/>
</linearGradient>
<linearGradient id="paint19_linear" x1="-80.6316" y1="425.543" x2="581.431" y2="59.8774" gradientUnits="userSpaceOnUse">
<stop stop-color="#000117" stop-opacity="0.01"/>
<stop offset="0.26" stop-color="#1B0086"/>
<stop offset="0.73" stop-color="#128AEA"/>
<stop offset="1" stop-color="#00EAFF"/>
</linearGradient>
<linearGradient id="paint20_linear" x1="-79.797" y1="421.771" x2="578.775" y2="75.0799" gradientUnits="userSpaceOnUse">
<stop stop-color="#000117" stop-opacity="0.01"/>
<stop offset="0.26" stop-color="#1B0086"/>
<stop offset="0.73" stop-color="#128AEA"/>
<stop offset="1" stop-color="#00EAFF"/>
</linearGradient>
<linearGradient id="paint21_linear" x1="-78.8208" y1="417.545" x2="573.745" y2="89.586" gradientUnits="userSpaceOnUse">
<stop stop-color="#000117" stop-opacity="0.01"/>
<stop offset="0.26" stop-color="#1B0086"/>
<stop offset="0.73" stop-color="#128AEA"/>
<stop offset="1" stop-color="#00EAFF"/>
</linearGradient>
<linearGradient id="paint22_linear" x1="-77.7216" y1="412.863" x2="566.646" y2="103.383" gradientUnits="userSpaceOnUse">
<stop stop-color="#000117" stop-opacity="0.01"/>
<stop offset="0.26" stop-color="#1B0086"/>
<stop offset="0.73" stop-color="#128AEA"/>
<stop offset="1" stop-color="#00EAFF"/>
</linearGradient>
<linearGradient id="paint23_linear" x1="-75.9502" y1="407.674" x2="559.118" y2="115.711" gradientUnits="userSpaceOnUse">
<stop stop-color="#000117" stop-opacity="0.01"/>
<stop offset="0.26" stop-color="#1B0086"/>
<stop offset="0.73" stop-color="#128AEA"/>
<stop offset="1" stop-color="#00EAFF"/>
</linearGradient>
<linearGradient id="paint24_linear" x1="-74.0521" y1="402.132" x2="550.018" y2="127.33" gradientUnits="userSpaceOnUse">
<stop stop-color="#000117" stop-opacity="0.01"/>
<stop offset="0.26" stop-color="#1B0086"/>
<stop offset="0.73" stop-color="#128AEA"/>
<stop offset="1" stop-color="#00EAFF"/>
</linearGradient>
</defs>
</svg>
