<svg id="ethereum" xmlns="http://www.w3.org/2000/svg" viewBox="0 0 208.6 81.9"><path d="M74.3 43.9c0 .3-.3.6-.6.6H62.4c.3 2.8 2.4 5.4 5.4 5.4 2 0 3.5-.8 4.7-2.4.1-.2.3-.3.5-.3.3 0 .6.2.6.6l-.1.3c-1.1 2-3.4 3-5.6 3-3.8 0-6.5-3.4-6.5-7.1 0-3.7 2.7-7.1 6.5-7.1s6.4 3.3 6.4 7m-1.2-.6c-.2-2.8-2.4-5.4-5.4-5.4s-5.1 2.6-5.4 5.4h10.8zm15-6.2c.3 0 .6.3.6.6s-.2.6-.6.6h-3v11.9c0 .3-.2.6-.6.6a.6.6 0 0 1-.6-.6v-12H81c-.3 0-.6-.2-.6-.6 0-.3.2-.6.6-.6h2.9v-4.4c0-.3.2-.6.6-.6.3 0 .6.2.6.6V37l3 .1zm18.6 5.8v7.2c0 .3-.3.6-.6.6s-.6-.2-.6-.6v-7.2c0-2.4-1.4-4.9-4.1-4.9-3.5 0-5 3-4.8 6.2v5.9c0 .3-.2.6-.6.6-.3 0-.6-.2-.6-.6V26.3c0-.3.2-.6.6-.6.3 0 .6.3.6.6v13.4c1-1.7 2.7-2.9 4.8-2.9 3.4 0 5.3 3 5.3 6.1m20.3 1c0 .3-.3.6-.6.6h-11.3c.3 2.8 2.4 5.4 5.4 5.4 2 0 3.5-.8 4.7-2.4.1-.2.3-.3.5-.3.3 0 .6.2.6.6l-.1.3c-1.1 2-3.4 3-5.6 3-3.8 0-6.5-3.4-6.5-7.1 0-3.7 2.7-7.1 6.5-7.1 3.7-.1 6.4 3.3 6.4 7m-1.2-.6c-.2-2.8-2.4-5.4-5.4-5.4-3 0-5.1 2.6-5.4 5.4h10.8zm15.2-5.7c0 .4-.2.6-.5.6-3.3.5-4.8 3.2-4.8 6.4V50c0 .3-.2.6-.6.6-.3 0-.6-.2-.6-.6V37.7c0-.3.2-.6.6-.6.3 0 .6.2.6.6v2.5c.9-1.6 2.8-3.1 4.8-3.1.1 0 .5.2.5.5m18.6 6.3c0 .3-.3.6-.6.6h-11.3c.3 2.8 2.4 5.4 5.4 5.4 2 0 3.5-.8 4.7-2.4.1-.2.3-.3.5-.3.3 0 .6.2.6.6l-.1.3c-1.1 2-3.4 3-5.6 3-3.8 0-6.5-3.4-6.5-7.1 0-3.7 2.7-7.1 6.5-7.1 3.6-.1 6.4 3.3 6.4 7m-1.2-.6c-.2-2.8-2.4-5.4-5.4-5.4s-5.1 2.6-5.4 5.4h10.8zm19.5-5.6v12.4c0 .3-.3.6-.6.6s-.6-.2-.6-.6v-2.4a5.2 5.2 0 0 1-4.7 3.2c-3.4 0-5.2-2.9-5.2-6v-7.3c0-.3.2-.6.6-.6.3 0 .6.3.6.6V45c0 2.4 1.4 4.9 4.1 4.9 3.8 0 4.7-3.6 4.7-7.5v-4.6c0-.3.2-.6.6-.6.2 0 .5.2.5.5m28.7 5.1v7.3c0 .3-.3.6-.6.6s-.6-.2-.6-.6v-7.3c0-2.4-1.4-4.8-4.1-4.8-3.4 0-4.7 3.7-4.7 6.5v5.6c0 .3-.3.6-.6.6s-.6-.2-.6-.6v-7.3c0-2.4-1.4-4.8-4.1-4.8-3.5 0-4.9 2.7-4.8 6.3v5.8c0 .3-.2.6-.6.6-.3 0-.6-.2-.6-.6V37.7c0-.3.2-.6.6-.6.3 0 .6.2.6.6v2.1c1-1.7 2.7-2.9 4.8-2.9a5 5 0 0 1 4.8 3.6 5.6 5.6 0 0 1 5.1-3.6c3.5-.1 5.4 2.8 5.4 5.9" fill="#3c3c3b"/><path id="LWPOLYLINE" fill="#8c8c8c" d="M2 46.4L26.5 81V60.9L2 46.4"/><path id="LWPOLYLINE_1_" d="M2 41.7l24.5 14.6V30.6L2 41.7" fill="#393939"/><path id="LWPOLYLINE_2_" fill="#8c8c8c" d="M2 41.7l24.5-11.1V1L2 41.7"/><path id="LWPOLYLINE_3_" fill="#343434" d="M51.1 46.4L26.5 81V60.9l24.6-14.5"/><path id="LWPOLYLINE_4_" d="M51.1 41.7L26.5 56.3V30.6l24.6 11.1" fill="#151515"/><path id="LWPOLYLINE_5_" fill="#343434" d="M51.1 41.7L26.5 30.6V1l24.6 40.7"/></svg>