<svg id="Vrstva_1" xmlns="http://www.w3.org/2000/svg" viewBox="0 0 348.6 175"><path fill="#001a3e" d="M45.1 136.2l17.8-20c.3-.3.1-.8-.4-.8H42.9a.8.8 0 0 1-.4-.2L25.9 96.6c-.1-.2-.2-.4-.1-.6l27.8-47.7v-.5L42.1 28c-.2-.3-.7-.3-.9 0L.1 98.6v.6l33 37.1.4.2h11.2l.4-.3z"/><path fill="#001a3e" d="M57.3.4L45.7 20.2v.5l12 20.6 31.8 54.6c.1.2.1.4-.1.6l-16.8 18.8-17.9 20.2c-.3.3-.1.8.4.8h26.8l.4-.2 33-37.1c.1-.2.2-.4.1-.6L58.1.4c-.1-.4-.6-.4-.8 0zm107.5 108.2V45c0-.5-.6-.7-.9-.3l-19.4 21.7-.1.3v62.4c0 .3.2.5.5.5h49c.3 0 .5-.2.5-.5v-19.5c0-.3-.2-.5-.5-.5h-28.6c-.2 0-.5-.2-.5-.5zm57.8 20.5V69.5c0-.5-.6-.7-.9-.3l-19.4 21.7-.1.3v37.9c0 .3.2.5.5.5h19.4c.3 0 .5-.3.5-.5zm105-29.9a.6.6 0 0 1 0-.6L347.5 69c.2-.3 0-.8-.4-.8h-22.3l-.4.2-14.7 23.8c-.3.4-.9.2-.9-.3v-47c0-.5-.6-.7-.9-.3l-19.4 21.7-.1.3v62.5c0 .3.2.5.5.5h19.4c.3 0 .5-.2.5-.5v-23.9c0-.5.6-.7.9-.3l16.3 24.5.4.2H348c.4 0 .6-.5.4-.8l-20.8-29.6zm-72.1 31.6c12.6 0 26-5.3 26-20.1S269.1 93.1 260 91c-5-1.2-9-2.1-9-4.8 0-2.1 1.9-3.4 5-3.4 3.2 0 5.8 1.6 7.6 4.7.1.2.4.3.6.2l15.4-6.9c.3-.1.4-.4.2-.7-4.7-8.6-12.9-13-24.3-13-16.5-.1-24 10-24 20 0 13.7 12.2 16.8 21.1 19.1 5.2 1.3 8.9 2.3 8.9 4.9 0 1.7-1 3.8-6 3.8-4.6 0-7.9-2-9.6-6-.1-.3-.4-.4-.7-.3l-15.9 8c-.3.1-.4.4-.2.7 4.5 9.1 13.2 13.5 26.4 13.5z"/></svg>