<svg xmlns="http://www.w3.org/2000/svg" viewBox="0 0 2100.8 603.6"><defs><style>.ripplesvgclass-1{fill:url(#ripple-gradient);}</style><linearGradient id="ripple-gradient" x1="132.6" y1="112.9" x2="486.7" y2="467" gradientUnits="userSpaceOnUse"><stop offset="0" stop-color="#11aae2"/><stop offset=".6" stop-color="#0880b7"/><stop offset="1" stop-color="#016197"/></linearGradient></defs><path fill="#474d55" d="M765.3 228.8c-5.9-2-17.8-3.9-29.6-3.9-35.5 0-73 27.6-73 63.1v167.7h-80.9V157.8h76.9v29.6c17.8-21.7 51.3-35.5 86.8-35.5 11.8 0 17.8 2 27.6 2l-7.8 74.9zM856.1 0a51 51 0 0 1 51.3 51.3c0 29.6-23.7 51.3-53.3 51.3s-53.3-21.7-53.3-51.3A54.5 54.5 0 0 1 856.1 0m39.4 455.7h-80.9V157.8h80.9zm236.7-303.8c-33.5 0-63.1 11.8-86.8 29.6v-23.7h-78.9v445.8h80.9V434a129.2 129.2 0 0 0 80.9 27.6c43.4 0 86.8-19.7 112.4-51.3a157.3 157.3 0 0 0 37.5-104.5c0-86.8-65.1-153.9-146-153.9m-9.8 236.7c-49.3 0-82.8-33.5-82.8-82.8s33.5-82.8 82.8-82.8c43.4 0 76.9 37.5 76.9 82.8 0 47.3-35.5 82.8-76.9 82.8m562.1-370.8h80.9v437.9h-80.9zm406.4 390.5c-29.6 33.5-76.9 53.3-122.3 53.3-88.8 0-155.8-61.1-155.8-155.8 0-82.8 57.2-155.8 146-155.8 82.8 0 142 69 142 151.9 0 7.9 0 15.8-2 23.7h-209.1c3.9 41.4 37.5 71 80.9 71 33.5 0 61.1-19.7 75-33.5zm-75-140c-2-25.6-25.6-53.3-59.2-53.3s-61.1 25.6-63.1 53.3zm-524.7-116.4c-33.5 0-63.1 11.8-86.8 29.6v-23.7h-76.9v445.8h80.9V434a129.2 129.2 0 0 0 80.9 27.6c43.4 0 86.8-19.7 112.4-51.3a157.3 157.3 0 0 0 37.5-104.5c-2-86.8-67.1-153.9-148-153.9m-9.8 236.7c-49.3 0-82.8-33.5-82.8-82.8s33.5-82.8 82.8-82.8c43.4 0 76.9 37.5 76.9 82.8 0 47.3-35.5 82.8-76.9 82.8"/><path class="ripplesvgclass-1" d="M311.7 49.3a107.6 107.6 0 0 0-53.3 92.7c0 19.7 7.9 39.5 17.8 57.2 7.9 15.8 11.8 43.4-15.8 57.2-19.7 11.8-45.4 3.9-57.2-15.8a178.9 178.9 0 0 0-43.4-43.4 103.3 103.3 0 0 0-106.5 0 107.3 107.3 0 0 0 0 185.5c33.5 19.7 73 19.7 106.5 0a108.8 108.8 0 0 0 41.4-43.4c7.9-13.8 29.6-31.6 57.2-15.8a44.2 44.2 0 0 1 15.8 57.2 118.7 118.7 0 0 0-15.8 57.2 107.4 107.4 0 0 0 53.3 92.7c33.5 19.7 73 19.7 106.5 0a107.3 107.3 0 0 0 0-185.4 119 119 0 0 0-59.2-13.8c-17.8 0-41.4-11.8-41.4-41.4a40.4 40.4 0 0 1 41.4-41.4c19.7 0 41.4-3.9 59.2-13.8a107.3 107.3 0 0 0 0-185.4c-15.8-9.9-35.5-13.8-53.3-13.8s-37.5 3.9-53.2 13.7"/></svg>