<svg xmlns="http://www.w3.org/2000/svg" viewBox="0 0 202 202.3"><g><path d="M101 1.3C45.7 1.3 1 46 1 101.4s44.6 100.1 100 100.1c55.6 0 100-44.7 100-100S156.7 1.2 101 1.2z"/><g fill="#fff"><path d="M35.5 70C18.1 70 4.2 84 4.2 101.4s14 31.4 31.3 31.4c10.7 0 14.9-7.5 14.9-7.5v6.8h16.5v-30.7C66.9 84 52.9 70 35.5 70zm0 16.4c8.3 0 15 6.7 15 15a15 15 0 1 1-30 0 15 15 0 0 1 15-15zM70.9 48.4v53a31.3 31.3 0 1 0 62.7 0c0-17.4-14-31.4-31.4-31.4-10.7 0-14.8 7.6-14.8 7.6V48.4zm31.3 38c8.3 0 15 6.7 15 15a15 15 0 1 1-30 0 15 15 0 0 1 15-15zM167.6 70c-17.4 0-31.4 14-31.4 31.4a31.3 31.3 0 0 0 62 7H181a15 15 0 0 1-28.2-7 15 15 0 0 1 28.2-6.9h17.3A31.3 31.3 0 0 0 167.6 70z"/></g></g></svg>