<svg xmlns="http://www.w3.org/2000/svg" width="100" height="75.3" version="1"><path fill="#9d0a0e" fill-rule="evenodd" d="M.2.2h99.6v75H.2z"/><g fill="#fff"><path d="M52.5 26.5c0 .3-.1.7-.4 1-.3.3-.9.5-1.8.5h-1.8v-3h1.7a3 3 0 0 1 1.8.5c.3.2.5.6.5 1M51 23c.4-.3.5-.6.5-1.1 0-.4 0-.7-.3-1-.3-.2-.7-.3-1.4-.3h-1.3v2.8h.9c.7 0 1.3-.2 1.6-.4"/><path d="M54.5 26.7c0-1.3-1-2.4-2.4-2.8l1-.7c.3-.4.4-.9.4-1.5 0-.7-.3-1.4-.9-2A4 4 0 0 0 50 19h-3.4v10.8h4c1.4 0 2.4-.4 3-1 .7-.6 1-1.3 1-2m3.7 5H42.4V16.8h15.8v15zM32.8 23c.3-.3.5-.6.5-1.1 0-.4-.1-.7-.4-1-.3-.2-.7-.3-1.4-.3h-1.3v2.8h.9c.8 0 1.3-.2 1.7-.4M33.7 25.5A3 3 0 0 0 32 25h-1.8v3H32c1 0 1.5-.2 1.8-.5.3-.3.4-.7.4-1 0-.4-.1-.8-.5-1"/><path d="M36.2 26.7c0-1.3-.9-2.4-2.3-2.8.4-.2.7-.4.9-.7.3-.4.4-.9.4-1.5 0-.7-.2-1.4-.8-2a4 4 0 0 0-2.7-.8h-3.4v10.8h4c1.4 0 2.4-.4 3-1 .6-.6 1-1.3 1-2m3.7 5H24V16.8H40v15zM73.4 26.8l-.3.1a7.4 7.4 0 0 1-3.8 1.2c-2.6 0-4.3-1.6-4.3-3.8 0-2.2 1.8-3.8 4.3-3.8 1.2 0 2.3.3 3.7 1l.2.2v-2c-1.6-.7-2.8-1-4-1-1.7 0-3.3.7-4.4 1.7a5.3 5.3 0 0 0-.3 7.6c1 1 2.6 1.8 4.7 1.8 1.7 0 3-.4 4-1h.2v-2zm3.1 5H60.7v-15h15.8v15z"/></g><g fill="#fff"><path d="M28.2 40h2.4v17.6h-2.1L16.7 44.1v13.5h-2.4V40h2l12 13.7V40zM35.2 40h10v2.3h-7.5v5.3h7.2V50h-7.2v5.5h7.7v2.2H35.2V40zM72 40h2.6l-7.1 17.7h-.6l-5.8-14.3-5.8 14.3h-.5L47.7 40h2.5l4.9 12.2L60 40h2.4l4.9 12.2L72 40zM81.4 50.3l-2-1.2c-1.1-.7-2-1.5-2.5-2.2-.5-.7-.7-1.5-.7-2.4 0-1.4.4-2.5 1.4-3.4 1-.9 2.2-1.3 3.8-1.3 1.4 0 2.8.4 4 1.2V44a5.8 5.8 0 0 0-4-1.8c-1 0-1.6.2-2.1.5-.5.4-.8.9-.8 1.5 0 .5.2 1 .6 1.5.4.4 1 1 1.9 1.4l1.9 1.2C85 49.5 86 51 86 53c0 1.4-.5 2.5-1.4 3.4-1 .9-2.2 1.3-3.7 1.3-1.7 0-3.3-.5-4.8-1.6V53c1.4 1.8 3 2.6 4.8 2.6a3 3 0 0 0 2-.6c.5-.5.7-1 .7-1.7 0-1-.7-2-2.3-3"/></g></svg>