<svg xmlns="http://www.w3.org/2000/svg" width="2794" height="439"><g fill="#090909"><path d="M2606.5 17.4c11.4-3.7 23.5-5.6 35.5-5.1 15.5.4 30.6 5 44.9 10.9 8.5 3.4 16.1 8.9 25.1 11.2 8 2 17.4 1.8 24.4-3.1 5-4.4 5.6-11.5 7.2-17.6l2.9-.4c1.4 5.5.6 11.2.8 16.7 0 18-.9 36-1 54 0 11-.6 22-.6 33-.6 12-.1 24-.7 36a10 10 0 0 1-1.8 5.7l-2.7-1.5c-1.8-14.8-2-29.9-6.4-44.2a230.4 230.4 0 0 0-25.5-55.9 94.5 94.5 0 0 0-42.7-36c-5.7-2.5-11.8-3.1-17.8-3.8A62.3 62.3 0 0 0 2605 26a61.8 61.8 0 0 0-25.6 48.1c-1.1 16 .7 32.9 8.8 47a62 62 0 0 0 21.4 24.6c16 12.7 36 18 55 24.6 10.5 3.5 21 6.9 31.4 10.8 18.6 8.4 38.2 16.4 53 31 6.5 6 11.9 13.2 16.2 20.9 4.4 8 8.8 16 11 25 3.6 14.4 5 29.3 4.2 44.1l2.3.5-2.3-.2c-.6 11.3-4.4 22.2-8.6 32.7l-1.7-1 1.4 1.5c-7.4 16.2-17 31.7-29.8 44.2-11 11.4-24.2 21-38.7 27.3a95.5 95.5 0 0 1-38 7.8c-12.6.5-25.1-2.1-37.2-5.5-13.6-4.6-26.8-10.4-40-16a52.3 52.3 0 0 0-33.7-4.3 30.4 30.4 0 0 0-20.4 16.6c-1.6 4.1-1.7 8.7-2.4 13-1.2 0-2.4 0-3.5-.2-.8-13-.3-26.2-.5-39.4.2-35.4.4-70.7 1-106.1.5-11.6-.5-23.3 1.3-34.7l3.5.2c2.2 11.9 2.4 24 5.4 35.7 3.7 16.6 9.7 32.5 16.6 47.9 3.8 8 7.4 16.1 12.1 23.7 6.3 11.3 15 21.1 23.7 30.7 7 8 15.5 14.6 24.5 20.3a83.4 83.4 0 0 0 64.9 12.5 62.4 62.4 0 0 0 29.3-17.6 69.3 69.3 0 0 0 21-52.6c-.8-18.7-6.3-38.2-19.8-51.8-7.7-8-17.4-13.6-26.8-19.2-19.7-10.4-41.2-16.6-62.1-23.8a130.7 130.7 0 0 1-62.8-37.3c-8-9.4-15-20.1-18.7-32a119 119 0 0 1-6.7-51 137 137 0 0 1 8.2-39.7c3.4-8.6 7.9-16.7 13.2-24.2 12-19.2 30.3-34.5 51.4-42.6zM199.6 15.1c24.5-2.1 49.4.5 73 7.5 34 9.7 65 29 89.3 54.5 30.8 32.9 50.6 76 54.6 120.9 5 48.7-9 99-37.8 138.6-29.4 41-75.1 69.7-124.6 79.1a202.2 202.2 0 0 1-164.6-40.1c-35-27.4-60-67-70.2-110.1a203.4 203.4 0 0 1 24-154.1A203.4 203.4 0 0 1 199.7 15m-1.1 84.7a213.8 213.8 0 0 0-100.9 35.9 208 208 0 0 0-69.3 78.6c-.7 1.8-2.1 3.8-1.3 5.8a211.9 211.9 0 0 0 168.1 115.4c48.9 5 99.4-8 139.5-36.3a207 207 0 0 0 69-80.3c2-3-.6-6-1.8-8.7a207.2 207.2 0 0 0-75.2-80c-38-23.4-83.7-34.1-128.1-30.4zM1169 25.1c11.7-7 25.5-9.3 39-10 23.5-1 46.1 7.5 66.5 18.6 8 4.4 17.5 7 26.6 5 3.8-.8 7.8-2.2 10.2-5.4 3.4-4.5 4-10.4 5.4-15.7l2.8-.2c1.6 10.8.2 21.7.3 32.6-.3 27.7-1 55.3-1.6 83 0 5 .1 10-.3 15-.4 4.5.6 9.4-1.4 13.7l-2.8-.5c-2-12.9-1.8-26.1-4.9-38.9-5-20.6-13.9-40.3-24.6-58.6A95 95 0 0 0 1242 25c-7.1-3.7-15.2-4.4-23-5.4a60 60 0 0 0-40.5 9 60.8 60.8 0 0 0-24.5 45.8c-2.5 24.3 4.6 50.7 23 67.6 6.5 5.6 13.4 11 21 15 10.2 5.4 21.2 9.4 32.1 13.1 9.2 3.6 18.7 6.4 28 10 10.7 3.2 20.6 8.6 30.8 13 10 5.5 20.2 10.7 28.5 18.6 11.5 10 19.8 23.3 26 37.2a122 122 0 0 1 8 39.1c.6 10.7.4 21.5-2.5 31.9a139.9 139.9 0 0 1-69.6 86.4c-10.1 4.5-21 7.8-32 9.3-12 .8-24 0-35.7-3-9.6-1.9-18.5-6.1-27.7-9.5-11-4.6-21.5-10.1-33-13.5-10.4-2.3-22.3-2.3-31.4 4a25.2 25.2 0 0 0-12 18.5l-1 6.6h-3c-1.5-3.3-1-7-1-10.6-.1-27.7.2-55.4.3-83 .7-14.7.2-29.4.6-44.1.3-12.3 0-24.6.6-36.9.2-2 .1-6.2 3.3-5.5 2.8 3.3 2 8.2 3 12.2 1.8 24 9 47.2 18.9 69 4 9.1 8 18.3 13.2 26.7 5.4 9.9 12.7 18.5 20 27 4.6 4.8 8.8 10 14 14.1a122 122 0 0 0 25.3 16.6c14.9 7.4 32 9.4 48.3 7 15.7-3.1 29-13.3 38.6-25.7a70.6 70.6 0 0 0 14.1-35.6c1.1-18-2.4-36.4-11.8-51.8a75.5 75.5 0 0 0-22.7-21.4A121.3 121.3 0 0 0 1243 263c-19.8-8.6-40.6-14.8-61-22a115.2 115.2 0 0 1-54.6-41.5 105 105 0 0 1-15.6-35c-3.2-14-4.4-28.5-2.7-42.8 1.2-14.5 4-29 10.3-42.2 10.8-22.3 27.2-43 49.6-54.4zM599.3 17.3a97 97 0 0 1 37.6.3c17.9 4.3 35 11.4 51.4 19.5 9.3 4.4 20.3 9 30.5 4.7 9-3.6 12.7-13.5 14.1-22.4l3.4-.2c1 6.6 0 13.2 1 19.8-1 20.7-.2 41.3-.7 62 0 24.7 0 49.4-.3 74 0 2.2-.5 5.8-3.5 4.3-1.5-2.5-1-5.5-1.3-8.2-1.8-21-7-41.8-15.5-61.2-7.8-17.6-16.7-35-29.2-49.8a105.6 105.6 0 0 0-19-19.8 78 78 0 0 0-41-19.2 65.7 65.7 0 0 0-32.7 3 74.4 74.4 0 0 0-20.4 12.7 84.6 84.6 0 0 0-19.4 29.8C550.1 78.2 545.8 90 543 102c-3.2 10-4 20.6-6 30.9-1.5 11.3-3.3 22.7-3.8 34.2a615 615 0 0 0-3.6 66c.2 16.3-.4 32.6.9 49 2.3 29.4 5.2 59.7 17.8 86.9 3.9 8 8.3 16 14.8 22a67.5 67.5 0 0 0 30 16.8c11.7 2.2 24 2.7 35.7.4l.3 3 .3-3.2c5.1-.5 10-2 14.9-3.5 6.5-2.6 12-6.8 18.2-10a225 225 0 0 0 23-21.9c6.6-7.3 11.4-15.9 16.8-24.1 6.5-10 11.7-20.7 16.6-31.5 3.6-7.8 5.8-16.1 8.5-24.3 2.9-10 5.7-20.3 7.1-30.7.9-4 1.2-8.2 2.4-12.1l2.4-1.3c1.9 12.7.7 25.7 1 38.5-.9 18.6-.4 37.3-1 56-.8 19-.2 38-.8 57-.2 6.3.3 12.7-.8 18.9h-2c-2.2-7.8-4.2-15.8-9.1-22.3a25.4 25.4 0 0 0-25-9c-9.2 2.2-17.8 6.3-26.4 9.9a240 240 0 0 1-36.3 13.2c-12.3 2.8-25 4-37.6 2.7-8.3-1.1-16.6-2.5-24.6-4.8A183.9 183.9 0 0 1 531 387c-7.2-5.4-14.2-11-21.1-16.9a220.5 220.5 0 0 1-38.7-47.3c-4-6.7-7-13.9-10.4-21-4.8-11.3-9.2-23-11-35.2a276.1 276.1 0 0 1-4-50.6c-.2-10.2 1.7-20.2 3-30.2 1.5-9.2 4.8-18 7-27a232.5 232.5 0 0 1 44-77C510.2 70 522 59.4 534.5 49.6a141 141 0 0 1 24.9-17c12.3-7.4 25.9-12.4 39.9-15.3zM1702 20.7l157-.5c24.3-.2 48.7.5 73 0l.7 4.1-.3-4.2c15.9.4 31.8-.1 47.6 0 15.7.2 31.3-.3 47-.3 5 .1 10.3-.5 15.3.9 1.4 5.3.8 10.9.9 16.4.2 25.6 0 51.3 0 76.9-.6 12.3-.4 24.7-.5 37-.1 4.6.5 9.1-.3 13.6l-3.6-.2c-2.5-10-1.7-20.3-3.9-30.3-3.7-18.2-12-35.3-22.7-50.4-6.2-8.4-12.3-16.9-19.7-24.1-22-19.9-50.7-33-80.5-34.2l-17 .1c-3.5 0-7-.2-10.4 1-1.5 6.4-.9 13-1 19.4-.4 41.4-.2 82.7-.3 124 0 10.7 0 21.4.4 32-.2 3.1 3 3.3 5.3 3.3a80.1 80.1 0 0 0 67.1-35c5.3-7.8 8-17 8.7-26.2.6-4 .2-8 1.9-11.7l3.6.3c1 15.1.2 30.4.7 45.5.5 6-.1 12 0 18 .6 13.3 0 26.6-.2 40 .1 20.2-.3 40.6-.5 60.9-.2 2.2 0 6.7-3.5 5.4-2.1-3.3-.8-7.6-1.2-11.3-.6-17.7-4-36.8-16.4-50.2-7-7.5-15.5-13.5-24.2-18.8a63.5 63.5 0 0 0-40.4-9.4c-1.4 3.2-1.1 6.8-1.2 10.3 0 21.3-.3 42.7-.6 64 0 37 0 74-.3 111-.5 2.7 2.1 4 4.4 3.7 12.4.1 24.8.5 37-.8 9.6-1.4 19.2-2.7 28.6-5.1a134.6 134.6 0 0 0 51.2-24.2l2.1 1.8-1.7-2.2a93.3 93.3 0 0 0 19.6-17.6c7.8-9.2 14.6-19.4 19.2-30.6 3.1-7.7 6.2-15.4 8.5-23.4 2.2-9.4 3.8-19 4.3-28.6.3-3 .4-6.2 1.9-8.9 1.3.6 3.4 1 3 3 .6 24.6-.3 49.2-.1 73.9-.4 21.3.4 42.8-1 64.1.2 1.5-1 2.7-2.5 2.5-23.3 1.1-46.7.5-70 .8-38.4.3-76.8 0-115.2.4l-.6.4h-6.2c-24.6.3-49.3.2-74 0-8.3-.2-16.7.4-25-.3a25 25 0 0 1-11.3-.7c-1.4-3 2.1-3.7 4.3-3.5 13-.1 26 0 39-.3a33 33 0 0 0 6.5-.9c.8-10.5 0-21 .2-31.5-.3-27.7-.4-55.4-.5-83-.9-46.4-.6-92.7-1-139-.3-31.3-.7-62.7-.2-94-.6-6.3.4-12.6 0-19-.3-3.2.1-6.7-1.7-9.6-6.3-.6-12.7.3-19-.4-3.2-.4-6.2.1-9.3.2-10.1.2-20.3 0-30.4.5-2 4.5-1.1 9.5-1.3 14.3 0 23.6-.2 47.3-.1 71-.2 27.7.2 55.3-.4 83 .1 28.3-.2 56.6 0 85l-.3 47c.2 24.3-.2 48.6-.4 73-.6 7.2-.1 14.4-1 21.5-2.4-1-4-3.1-5.4-5.1-11.4-16.7-23.3-33-34.4-49.8-9.5-13.8-18.7-27.8-28.2-41.6-7.1-9.8-13.3-20.1-20.3-30-11.9-16.8-23.3-34-35-51-10.9-15.4-21-31.4-31.7-47-27.6-40.5-54.5-81.4-82.4-121.6-2.1-3-4-6.1-7-8.3-1.7 13.6 0 27.3-.5 41l.6 164c-.3 42 .5 84 .7 126 0 2.1.1 4.4 1 6.4 14.8.7 29.6-.3 44.4 0 1.7-.2 4 .7 3.7 2.8-1.6 2-4.4 1.2-6.7 1.5-24.6.9-49.3.8-74 1-7.4.2-15.1 1.2-22.5-.4.2-1.6.8-3.7 2.7-3.7 8-.3 16-.1 23.9-.3 7.2-.2 14.5.3 21.7-.9 1.3-3.3.9-7 1-10.5-.5-31.4-.1-62.7-1-94 .2-25.7-.5-51.4-.4-77-.8-30-.5-60-1.5-90-.2-28-1-56-1.5-84-.4-6.5.7-13-.8-19.4-4.4-1.4-9-.9-13.6-1-10-.1-20 .2-30 0-2.1 0-5-1.1-4.3-3.7 1-1.9 3.1-1.6 5-1.7 22.4-.6 44.9-.7 67.4-1 10.6-.1 21.3.2 32-.4 7.6.3 15.3-.4 23 .5 2.4.3 3.8 2.6 5.2 4.4 19.2 29.4 39 58.4 58.2 87.7 11.2 16.8 21.9 34 33.9 50.1 3.2 4.7 6.2 9.5 9.6 14l-2.5 1.4 2.7-.9c5 8 10.1 15.9 15 24l36.4 55.4c3.5 5 6.2 10.5 10.7 14.6 1.5-6.5 1-13.3 1.1-20 0-24 .6-48 .4-72l.2-84c.8-6.4-.4-12.7 0-19-.3-16.9.2-33.7-.5-50.5-4.6-1.6-9.6-.7-14.4-.9-7 .3-14 0-20.9.5-4.6.2-9.1 0-13.6-.8l-.1-3.7c5-1.4 10.4-.8 15.6-.9z"/><path d="M2049.6 21.7c22.8-1.2 45.6-.8 68.4-1.2 34.7-.2 69.3-.1 104 .5 2 .1 5.9 0 5.4 3 .2 1.9-2.2 1.9-3.4 2.2-10.8.6-21.8 0-32.6.3-1.8 0-3.5.6-5 1.2 1.7 9 4.8 17.7 7.4 26.5 21.3 68.7 42.3 137.6 63.7 206.3 2.2 7.1 4.3 14.3 7.2 21.2l1.5-.3c5.8-15.5 10-31.6 14.9-47.4 5-16 9.3-32 14.5-47.9 5.1-18.7 11.3-37.2 16-56 .9-3.8-.8-7.5-1.8-11-9-29-17.7-58.2-26.7-87.2-.8-2-1.5-5.2-4.2-5.3-10.3-.5-20.6 0-31-.4-1.8 0-4.9-.8-4.2-3.3.8-2.2 3.4-1.6 5.3-1.7 16.2.2 32.4-.5 48.6-.7.3 2.4.6 4.7 1.1 7-.2-2.3-.5-4.7-.9-7a6153 6153 0 0 1 116.3.2c1.6 0 3.7.3 4.3 2.2 0 1.8-1.6 3-3.3 2.8-15.7 1.2-31.5-.1-47.2 1.1l-1.2 2.1c14.2 49 29.2 97.6 43.9 146.4 4.4 13.8 8 27.8 12.5 41.6 4.9 15.6 9.4 31.2 14 46.9 1.7 5.3 3.2 10.7 5.6 15.8l1.4-.4c4.6-11.3 7.6-23 11.7-34.5 4.4-14 9-28 13.6-42 6.4-21 13-41.7 19.6-62.4l-.9-.1 4-1-3 .2c8.9-27 17.2-54.2 26.1-81.2 2.9-9.8 6.3-19.3 9-29.1 1.1-2.3-1.2-3.7-3.2-3.5-14.6-.2-29.1.1-43.7 0-1.5-.1-4-.6-3.7-2.5-.5-2.4 2.6-2.8 4.3-2.8h94c2.9 0 5.7.2 8.6.5l.3 3.7c-4.1 1.1-8.5.9-12.8 1h-31c-2.1 0-4.1.4-6 1.1-5 13.3-8.9 26.8-13 40.3-16.7 52.5-33.7 105-49.7 157.6-7 24.1-14.9 48-21.8 72-12.7 40.3-24.8 80.7-38.2 120.8-.6 1.7-1.6 3.3-2.4 4.9-3.4-4.9-4.5-10.8-6.5-16.3-10.2-30.3-19-61-28.7-91.3l-14.9-47.3c-12.6-38.9-23.8-78.2-36.3-117.1-.7-2.4-1.8-4.6-3.4-6.4-4 7.2-5.5 15.3-8 23-16 51.7-31.7 103.4-46.7 155.4-9 27.9-17 56-26 84-1.8 5-3 10.5-6.3 14.9-4.5-8.4-6.7-17.7-9.9-26.6-13.2-39.8-26.2-79.7-39.1-119.6-25.8-78.4-50.4-157.2-75.6-235.7-1.4-3.9-2-8-4.2-11.6-1.5-1.7-4-1.3-6.1-1.7-13.7-.4-27.5 0-41.3-.7l-3.5-.7.2-2.8zM754.2 24.6c6-.6 12-.2 18-.1 41.6.2 83.2-.3 124.8.3 10 .9 20 0 30 .9 19.7 1.8 39.5 4.8 57.9 12.1a144 144 0 0 1 36 20.2 120 120 0 0 1 26 33 72.7 72.7 0 0 1-1.7 71.2 104.8 104.8 0 0 1-43.3 33.7c-8.5 4-17.8 5.8-26.4 9.1 6.2 3.2 13.3 4.2 19.9 6.5a135.7 135.7 0 0 1 45.5 23.6c7.5 7.2 15.5 14 20.9 23A90.2 90.2 0 0 1 1076 297c1 13 .6 26.6-4 39a82.2 82.2 0 0 1-25 39.2 136.8 136.8 0 0 1-24 17 110 110 0 0 1-37.1 14.3c-18 2.5-36 4.3-54 4.1-46.4 0-92.7.9-139 0l-30-.3c-2.3 0-4.5-.4-6.7-.8v-3.7c10.2-.7 20.5 0 30.7-.3 5.8-.2 11.8.7 17.6-.8.5-3.9.7-7.7.6-11.6v-92c-.9-61.3-.4-122.6-.7-184 .4-25.3-.4-50.6-.3-76 .1-3.5-.2-7-.9-10.4-6-1.4-12.3-.9-18.4-1.1-10.2-.4-20.5.4-30.6-1.2v-3.7m129.4 7c-1 14.1 0 28.2-.2 42.4v45c.2 25-.6 50 .2 75 0 2.1.3 4.3.8 6.5 1.8.4 3.6.8 5.4.9 12 .5 24.1.5 36.2-.3 7.8-.9 15.9-1 23-4.6a50.4 50.4 0 0 0 22.2-22c3.3-7.5 5.2-15.5 7.3-23.4 4.2-16.3 3.4-33.3 2.4-50-1.8-18.7-6-38.7-19.6-52.5a61.3 61.3 0 0 0-21.9-13 149.7 149.7 0 0 0-51.6-5c-1.4.1-2.9.6-4.2 1m3.3 177c-1.9-.1-3.6 1.4-3.4 3.4-1.3 44.6-1 89.3-1.3 134 .2 19.5-.5 39 .2 58.4 5 1.6 10.3.8 15.5 1 16.9-.3 34.1 1.4 50.6-3 8.5-2.6 17.4-4.7 24.6-10.1 6-4.3 10.3-10.6 14-16.9a105 105 0 0 0 9.3-43.4c.3-8 1.2-16 .4-24A324 324 0 0 0 995 282c-1.4-13.4-3-27.2-9.7-39-.3-1.7-2-1.6-3.3-1.8l2.2-.5c-2.9-3.8-5.7-7.5-8.8-11a65.4 65.4 0 0 0-37.5-19c-9.2-1.4-18.5-3.3-27.9-2.9-7.7-.1-15.3.4-23 .8zM189 114.8A106.5 106.5 0 0 1 308 270a105 105 0 0 1-63.4 50.4 101.3 101.3 0 0 1-53.8 1.1c-20.5-5-39.4-16.3-53.5-32a122 122 0 0 1-21.8-35.5 115.5 115.5 0 0 1-5.4-46 106.6 106.6 0 0 1 78.7-93.2z"/></g></svg>