<svg xmlns="http://www.w3.org/2000/svg" width="1000" height="464.6"><path fill="#C00" d="M75.8 232.5c0 85.2 69.3 154.5 154.6 154.5h144.3c9.1 0 16.1-8.6 16.1-16V87.7a32.5 32.5 0 0 1 60.4-16.5 1280956.8 1280956.8 0 0 1 181.3 312.7 13.5 13.5 0 0 0 25-7V87.7A32.5 32.5 0 0 1 718 71.2l90.6 156.4 90.6 156.3a13.5 13.5 0 0 0 25-7V2h-56.9v223.2L760.8 42a86.1 86.1 0 0 0-160.2 44.2v139L494.2 42A86.1 86.1 0 0 0 334 86.2v228.3c0 8.4-6.3 15.6-15.4 15.6H231a97.7 97.7 0 0 1 0-195.3h73.5V77.9h-74.1A154.7 154.7 0 0 0 75.8 232.5"/><path fill="#C00" d="M943 2V377a32.5 32.5 0 0 1-60.3 16.5l-90.6-156.3-90.6-156.3a13.5 13.5 0 0 0-25 7v289a32.5 32.5 0 0 1-60.3 16.6l-90.7-156.3-90.7-156.3a13.5 13.5 0 0 0-25 7V371a36 36 0 0 1-35 35H230.3A173.7 173.7 0 0 1 56.8 232.5c0-95.7 77.9-173.6 173.6-173.6h74V2h-74a230.4 230.4 0 1 0 0 460.9h145.8c55.2 0 90.7-32.3 90.6-92V239.5l106.5 183.1a86.2 86.2 0 0 0 160.1-44.2v-139L840 422.7a86.2 86.2 0 0 0 160.1-44.2V2h-57z"/><path fill="#FFF" d="M56.8 232.5C56.8 328 134.7 406 230.4 406h144.3a36 36 0 0 0 35.1-35V87.7a13.5 13.5 0 0 1 25-7 4090155.3 4090155.3 0 0 0 181.4 312.8 32.4 32.4 0 0 0 60.3-16.6V87.7a13.5 13.5 0 0 1 25-7l90.6 156.4c46.2 79.8 90 155.1 90.6 156.4a32.4 32.4 0 0 0 60.4-16.6V2h-19V377a13.5 13.5 0 0 1-25 7l-90.6-156.3L718 71.2a32.4 32.4 0 0 0-60.4 16.5V377a13.5 13.5 0 0 1-25 7A4933345.3 4933345.3 0 0 1 451.2 71.2a32.4 32.4 0 0 0-60.4 16.5V371c0 7.4-7 16-16 16H230.3A154.7 154.7 0 0 1 75.8 232.5c0-85.3 69.3-154.6 154.6-154.6h74v-19h-74A173.7 173.7 0 0 0 56.8 232.5"/></svg>