<svg xmlns="http://www.w3.org/2000/svg" viewBox="0 0 1391 363.9"><path d="M131.7 39.3c-1 9.8-2.6 73.2-2.6 103v29.8l9.3-.1c5.1 0 15.1-.4 22.3-.8 10.8-.6 14-1.2 18.5-3.3 11.1-5.1 18.6-16.4 23.2-34.8l2.4-9.5 8.2-.3 8.2-.3v120.1l-8.2-.3-8.2-.3-2.3-9.5c-4.4-17.8-12.7-30.6-23.1-35.2-4.8-2.1-16.6-3.3-39.5-4l-10.8-.3V216c0 24.6 1.4 57.9 3.1 75.9 2.4 25.2 8.8 39.1 20.4 44.1a90 90 0 0 0 15.5 3.5c6.3.9 12.3 2.1 13.3 2.6 2.4 1.3 2.6 14.3.2 15.2-1.9.7-178.4.7-180.2-.1-.8-.3-1.3-2.8-1.3-7.4 0-8.3-.5-7.9 15.5-10.9 12.3-2.3 16.7-4.6 22.1-11.7 10.5-13.8 12.8-40.4 12.8-149.8 0-102.7-2-124.4-12.8-140.2-4.8-7-13-10.9-26.6-12.5L.6 23.5l-.3-8.2L0 7.1l3.3-.6c1.8-.3 65.4-.5 141.3-.3l138 .3.6 4c.4 2.2.9 24.8 1.3 50.1l.7 46.1-7.2 2.3c-10.7 3.3-10.6 3.3-15.5-9.5-11.8-31.3-25.4-49.3-44-58.5-12.8-6.3-18.7-7-54.9-7h-31.5l-.4 5.3zm1252.7 206.6c-8.4-16.8-23.9-28.3-56.3-41.9-26.5-11.1-39.8-18.7-47.9-27.6-6.6-7.2-8.5-13-7.9-23.8.6-9.9 3-15.9 9.3-22.5 8-8.5 19-11.5 32.2-8.8 21.6 4.6 35.5 19.5 47.4 51.2 4.3 11.3 4.8 11.6 12.4 8.8l4.8-1.8-.2-13-.8-33.4-.6-20.4-3.6-1.5a205.1 205.1 0 0 0-82-11.3c-27.9 2.5-48.4 11.4-64.2 27.7a73.4 73.4 0 0 0-21.5 57.9c1 18.7 6.6 32.1 18.1 43.9 10.7 10.9 19.7 16.1 45.4 26.2 41.5 16.2 52.5 25.8 52.4 45.8-.1 16.9-9 29.2-25.4 35-5.8 2.1-20.6 2-28.5 0-20.6-5.4-36.4-23.3-49.9-56.5l-3.5-8.5-4.1.2a22 22 0 0 0-6.8 1.5l-2.8 1.3.3 14.5.9 37.3.6 22.8 4.6 2c9.4 4.1 37.8 10.3 55.6 12.2 2.2.2 14.3.3 27 .2 22-.2 23.5-.4 34.6-3.3 32.6-8.5 53.7-26.7 63-54.3a61 61 0 0 0 3.7-23.6c.7-16.6-.8-25.3-6.3-36.3zM673.5 99a56.4 56.4 0 0 0-27.3 5.6c-17.1 7.9-30 20.7-41.5 41.4l-3.6 6.5.5-11.5.9-26.2.5-14.8h-2.5a3155 3155 0 0 0-105.2 21c-1.9.8-2.3 1.7-2.3 6.4 0 4.9.2 5.6 2.3 6l10.1 2c8.8 1.7 11.4 3 15 7.8 6.7 8.8 8 24.4 8 90.3-.1 53.9-1.2 80.7-3.7 89.1-3.1 10.3-8.7 15.5-18.4 17.4l-9.2 1.8-3.5.7-.3 6.9c-.2 4.9.1 7.2 1 7.7.7.5 34.6.7 75.3.6l74-.2.3-7.8c.2-4.3-.1-7.8-.5-7.8-5.7 0-23.4-2.4-26.1-3.6-8.3-3.5-12.4-11-14.1-26.2-2-17.9-3.3-62.2-2.7-98.6.6-36.7.6-36.9 2.9-39.3 5.4-5.8 18.9-10.2 31.1-10.3 9.8 0 19.8 2.5 30.5 7.6 5.1 2.5 9.9 4.3 10.5 4 1.3-.5 25.6-64.7 25.6-67.7 0-4.3-13.8-8.8-27.6-8.8zm267.8 90.5a236 236 0 0 1 1.8 56.3 189.3 189.3 0 0 1-10 40.7c-16.5 41.7-51.8 68.9-98.7 76a387.1 387.1 0 0 1-59.3.4 699 699 0 0 1-50.8-8.5l-7.3-1.7.6-39.1a6067 6067 0 0 0 .7-195.6c-.9-49-1.1-54.2-3-61.4-2.4-9.2-5.8-15.6-10-18.5-1.6-1.1-6-2.8-9.7-3.6-12.5-2.8-11.8-2.3-12.1-8-.2-3.3.2-5.4 1-6.1.9-1 103-20.5 106.3-20.4.9 0 1.1 13.1.6 58-.3 31.9-.4 58-.1 58 .3 0 4-1.6 8.3-3.6 12.9-6 24.8-8.5 42-9.1 11.5-.4 16.8-.1 22.7 1.1 38.5 7.9 67 39.5 77 85.1zm-76.5 8.5c-5.5-32.1-17.3-53.2-34.5-61.7a27 27 0 0 0-16.7-3.8c-6 0-11.3.6-15.7 2l-6.6 2-.5 36.5c-.6 46.8.9 164 2.2 167.4.8 2.1 1.7 2.6 5.8 2.9a49 49 0 0 0 16.4-.3 37.7 37.7 0 0 0 19-9.7c15.2-13.7 26.6-41.8 31.1-76.8 1.8-14.2 1.5-46.6-.5-58.5zm-373.6 66.5c-10.3 48.4-40.3 82.1-84.3 94.9a138 138 0 0 1-16.3 3.6c-9 1.2-36.4 1.2-45 0a109 109 0 0 1-61.7-29.8 111.6 111.6 0 0 1-28.7-48.3 178.2 178.2 0 0 1 0-102.8 120.5 120.5 0 0 1 58.7-69.4c37.3-18.7 89.7-17.5 124.2 2.8 31.1 18.3 49.9 50.8 55.1 95.1 1.6 13.5.5 42.1-2 53.9zm-74.8-29c.1-54.1-8.4-88.6-26.3-106.6-7.5-7.6-12.9-9.9-22.5-9.9-21.3 0-34.9 22.3-40.2 66.2a491.5 491.5 0 0 0 0 85.8c7.6 54.6 27.1 80.6 54.5 72.5a40.8 40.8 0 0 0 20.5-19.2c9.6-18.4 13.9-45.6 14-88.8zm769.7-35c.6 6 1 13.3.8 16l-.3 5-74 .3-74 .3.3 8.7c.7 20.3 5 38.2 13.1 53.7a65 65 0 0 0 13.7 18.1c16 16.1 31.9 22.4 57 22.4 18.2 0 31.3-3.6 45-12.5 3.8-2.5 7.7-4.5 8.6-4.5 2.1 0 6.9 6.2 6.9 8.9 0 4.4-14.3 18.6-28.3 28.1a128 128 0 0 1-45.4 17.5 188 188 0 0 1-46.8-.1c-49.6-8.9-85.1-44.1-96.7-95.9-1.5-6.7-2.2-14.1-2.5-28.5-.6-22.8 1.3-36.9 7.1-54.5 11.3-33.8 31.5-57.7 60.9-72 31-15.1 73.5-16.1 100.9-2.4 30.9 15.5 49.1 46.5 53.7 91.4zm-74.7-1.7l-.6-12.4c-2.2-43.6-12.9-67.4-30.2-67.4-18.8 0-33.8 24.2-40.1 64.5a112 112 0 0 0-1.4 13v4l18.8-.3 36.1-.9 17.4-.5z" fill="#33629a"/></svg>