<svg xmlns="http://www.w3.org/2000/svg" height="92.3" width="298"><path fill="#e90606" d="M142.3 1H137c0 .8-1 8.1-1.8 14-1 5.5-8.2 46-10.7 58.2l-2.8 15-6.9.6h-.8V91h2.2l8.6-.3c4 0 6.7.3 10.4.4l1.6-.1v-2.1h-1c-1 0-5-.3-6.9-.6.2-1.4 3.7-22.3 5.3-30.7l5.3-26.6.6 1.4L164.7 91h4.5l5.6-13.4.6-1.5 19.1-45 .4 2c1.5 7.3 6.6 33.9 7.7 40.3a774.9 774.9 0 0 1 2 14.8l-7.5.6h-.8V91h2c4 0 7.6-.3 11.5-.3 4.4 0 11.5.4 16 .4h1.4v-2.2h-1.8c-2-.3-5.5-.6-6.3-.6l-1.3-6.7c-3-14.4-11.4-58-12.7-68.7l-1.7-12h-5l-5 14.3c-1.6 4.6-3.8 10.3-5.5 14.7-8.2 21.7-17.5 41.9-17.5 41.9l-20.7-49.6L142.3 1zM1 1v17h1.3V7.1h30.2v81.1h-.2l-7.4.4h-.7V91h1.4c4.2 0 10-.4 14-.4 4.2 0 10 .4 13.6.5h1.1v-2.1H54l-8.2-.5-.1-6V7.3H75l.3 6 .2 5.5H77l-.1-12.2V1A1637 1637 0 0 1 1.1 1zm79.7 0V3l5.7.5 2.6.2v7.3a9046.9 9046.9 0 0 1 0 77c-.5.2-1.6.3-2.8.3l-5.5.4V91h1.3c4.1 0 9.9-.5 14-.5 4.3 0 10 .6 13.4.6l1.2-.1v-2.2h-.3l-5.5-.3-3-.3v-1.7-4.6l.1-71v-7l6.1-.5 2.6-.2V1c-4.6 0-10.8.4-15.3.4-4.8 0-10.6-.4-14.6-.4zM296 1h-1.4l-20.3.2h-16.1l-13.5.3c-5.7 0-10.4-.4-12.9-.4h-2.2v2.1h1.1a112.7 112.7 0 0 1 7.5.9v78.5l-.1 5.7c-2.3.4-6.6.7-8.1.7h-.5v2l1.8.1c2.4 0 8.5-.4 14.8-.4l14.2.3 17.6.1c9.1.2 16.5.2 18.9.2L297 73h-1.3l-.5 7-.5 5.1h-1l-6.3.2h-21.2l-15-.2V48.9l9.1-.2h9.9a1460.4 1460.4 0 0 1 17.1.1l.1.9 1 6.6v.6h1.5v-1.4-19.3V35h-1.4v1.2l-1 5.7-.2.7-5 .3-6.6.1h-24.5V7.4h38.7l4 .3.2.6.7 9.7v.6h1.4L296 5V1.1z"/></svg>