<svg xmlns="http://www.w3.org/2000/svg" viewBox="0 0 23.87 21"><defs><style>.cls-3{fill:#ee8f14}</style></defs><g id="Vrstva_2" data-name="Vrstva 2"><g id="Vrstva_1-2" data-name="Vrstva 1"><rect x=".5" y="1.5" width="19" height="19" rx="2.5" fill="#fff"/><path d="M17 2a2 2 0 0 1 2 2v14a2 2 0 0 1-2 2H3a2 2 0 0 1-2-2V4a2 2 0 0 1 2-2h14m0-1H3a3 3 0 0 0-3 3v14a3 3 0 0 0 3 3h14a3 3 0 0 0 3-3V4a3 3 0 0 0-3-3z" fill="#dfdfdf"/><path class="cls-3" transform="rotate(-45 8.57 10.92)" d="M6 5.26h5.15v11.33H6z"/><path class="cls-3" transform="rotate(-45 15.5 8.38)" d="M6.22 5.8h18.54v5.15H6.22z"/></g></g></svg>