<?xml version="1.0" encoding="iso-8859-1"?>
<!-- Generator: Adobe Illustrator 21.0.0, SVG Export Plug-In . SVG Version: 6.00 Build 0)  -->
<svg version="1.1" id="Layer_1" xmlns="http://www.w3.org/2000/svg" xmlns:xlink="http://www.w3.org/1999/xlink" x="0px" y="0px"
	 viewBox="0 0 1407.772 248.892" style="enable-background:new 0 0 1407.772 248.892;" xml:space="preserve">
<g>
	<path style="fill:#444472;" d="M353.536,185.892h-24.43V87.236h23.095c24.03,0,33.775,8.678,33.775,25.632
		c0,9.746-3.337,16.153-10.947,20.426c11.481,4.673,16.554,12.282,16.554,24.297C391.583,177.081,380.903,185.892,353.536,185.892z
		 M350.866,96.18h-11.881v33.509H351c18.556,0,24.964-4.272,24.964-16.688C375.964,100.987,370.758,96.18,350.866,96.18z
		 M350.733,138.633h-11.748v38.314h13.483c20.158,0,29.103-4.539,29.103-18.823C381.571,139.702,368.221,138.633,350.733,138.633z"
		/>
	<path style="fill:#444472;" d="M403.998,104.858V88.037h9.879v16.821H403.998z M403.998,185.892v-73.024h9.879v73.024H403.998z"/>
	<path style="fill:#444472;" d="M449.521,121.812v64.08h-9.879v-64.08h-15.753v-8.944h15.753V87.236h9.879v25.632h16.42v8.944
		H449.521z"/>
	<path style="fill:#444472;" d="M512.932,187.627c-22.428,0-39.783-16.688-39.783-38.447c0-21.227,17.221-38.048,39.115-38.048
		c16.42,0,30.438,9.212,36.312,23.896h-11.081c-5.607-9.612-14.551-14.818-25.365-14.818c-16.287,0-28.969,12.816-28.969,29.236
		c0,16.153,12.949,29.103,29.37,29.103c10.279,0,17.355-4.005,24.964-14.15h11.214C539.899,181.086,528.017,187.627,512.932,187.627
		z"/>
	<path style="fill:#444472;" d="M598.637,187.627c-22.694,0-39.115-16.287-39.115-38.715c0-21.359,16.688-37.78,38.314-37.78
		c21.894,0,37.914,16.153,37.914,38.448C635.75,171.474,619.997,187.627,598.637,187.627z M597.836,120.21
		c-16.153,0-28.302,12.415-28.302,28.97c0,17.088,12.015,29.369,28.836,29.369c15.887,0,27.367-12.148,27.367-28.836
		C625.737,132.759,613.856,120.21,597.836,120.21z"/>
	<path style="fill:#444472;" d="M649.768,104.858V88.037h9.879v16.821H649.768z M649.768,185.892v-73.024h9.879v73.024H649.768z"/>
	<path style="fill:#444472;" d="M731.202,185.892v-38.314c0-19.892-9.078-27.367-22.562-27.367
		c-13.217,0-22.294,7.609-22.294,25.498v40.184h-9.879v-73.024h9.879v9.479c6.141-7.476,13.884-11.214,23.495-11.214
		c18.29,0,31.239,10.813,31.239,36.445v38.314H731.202z"/>
	<path style="fill:#444472;" d="M802.757,185.892l-25.899-37.78v37.78h-18.289V87.236h28.435c13.484,0,20.56,1.869,26.968,7.343
		c6.808,5.74,10.412,14.284,10.412,24.297c0,15.353-8.01,26.166-25.765,30.571l26.699,36.445H802.757z M785.001,104.724h-8.144
		v29.638h8.944c14.151,0,20.158-4.539,20.158-14.952C805.96,110.598,802.356,104.724,785.001,104.724z"/>
	<path style="fill:#444472;" d="M907.418,156.789h-57.271c2.137,8.944,9.879,14.551,20.426,14.551
		c7.343,0,11.748-2.002,16.287-7.342h19.357c-4.939,15.219-20.292,23.629-35.244,23.629c-22.562,0-40.05-16.82-40.05-38.447
		c0-21.761,17.222-38.982,38.981-38.982c22.027,0,38.181,16.821,38.181,39.783C908.085,152.651,907.952,154.252,907.418,156.789z
		 M870.172,126.485c-10.547,0-17.756,5.207-20.559,14.685h40.983C888.327,131.692,881.118,126.485,870.172,126.485z"/>
	<path style="fill:#444472;" d="M953.076,185.892h-14.151l-29.77-73.959h19.758l17.088,48.995l16.82-48.995h20.025L953.076,185.892z
		"/>
	<path style="fill:#444472;" d="M1023.03,187.627c-21.627,0-39.249-17.354-39.249-38.715c0-21.227,17.622-38.715,39.115-38.715
		c22.295,0,39.516,17.222,39.516,39.249C1062.412,170.273,1044.524,187.627,1023.03,187.627z M1023.03,126.485
		c-11.614,0-21.36,10.013-21.36,22.161c0,12.683,9.479,22.694,21.494,22.694c11.747,0,21.359-10.012,21.359-22.428
		C1044.524,136.631,1034.911,126.485,1023.03,126.485z"/>
	<path style="fill:#444472;" d="M1072.425,185.892V87.236h17.755v98.656H1072.425z"/>
	<path style="fill:#444472;" d="M1153.859,185.892v-7.075c-6.675,6.541-12.282,8.811-21.227,8.811
		c-17.221,0-28.168-10.013-28.168-36.045v-39.649h17.755v36.179c0,19.624,5.474,23.229,14.018,23.229
		c6.008,0,10.813-2.536,13.483-6.808c2.003-3.338,2.804-7.877,2.804-17.756v-34.844h17.756v73.959H1153.859z"/>
	<path style="fill:#444472;" d="M1204.989,128.087v57.805h-17.756v-57.805h-8.678v-16.154h8.678V87.236h17.756v24.697h10.68v16.154
		H1204.989z"/>
	<path style="fill:#444472;" d="M1224.612,185.892v-73.959h17.755v73.959H1224.612z M1224.745,101.253V83.497h17.755v17.756
		H1224.745z"/>
	<path style="fill:#444472;" d="M1292.695,187.627c-21.627,0-39.249-17.354-39.249-38.715c0-21.227,17.622-38.715,39.115-38.715
		c22.295,0,39.516,17.222,39.516,39.249C1332.076,170.273,1314.188,187.627,1292.695,187.627z M1292.695,126.485
		c-11.614,0-21.36,10.013-21.36,22.161c0,12.683,9.479,22.694,21.494,22.694c11.747,0,21.359-10.012,21.359-22.428
		C1314.188,136.631,1304.575,126.485,1292.695,126.485z"/>
	<path style="fill:#444472;" d="M1390.016,185.892v-36.179c0-19.758-5.34-23.229-14.15-23.229c-5.607,0-10.279,2.403-13.083,6.809
		c-2.27,3.604-2.938,7.876-2.938,17.755v34.844h-17.755v-73.959h16.42v7.076c6.542-6.274,12.416-8.812,20.826-8.812
		c10.279,0,18.289,3.738,23.096,10.681c4.005,5.74,5.34,12.148,5.34,25.364v39.649H1390.016z"/>
</g>
<linearGradient id="SVGID_1_" gradientUnits="userSpaceOnUse" x1="0" y1="124.4459" x2="248.3218" y2="124.4459">
	<stop  offset="0" style="stop-color:#662D91"/>
	<stop  offset="1" style="stop-color:#2E3192"/>
</linearGradient>
<path style="fill:url(#SVGID_1_);" d="M140.959,17.51V0l-34.816,26.485l34.816,26.561V35.57
	c49.995,4.315,89.363,46.38,89.363,97.475c0,53.953-43.894,97.848-97.847,97.848c-52.244,0-95.055-41.158-97.715-92.752h18.286
	l-26.485-34.815L0,138.14h16.746c2.677,61.523,53.558,110.752,115.728,110.752c63.878,0,115.847-51.969,115.847-115.848
	C248.322,72.02,200.891,21.869,140.959,17.51z"/>
<linearGradient id="SVGID_2_" gradientUnits="userSpaceOnUse" x1="74.2192" y1="113.1356" x2="190.7307" y2="113.1356">
	<stop  offset="0" style="stop-color:#662D91"/>
	<stop  offset="1" style="stop-color:#2E3192"/>
</linearGradient>
<path style="fill:url(#SVGID_2_);" d="M74.843,45.644v79.328c-0.405,2.769-0.624,5.598-0.624,8.477
	c0,32.123,26.133,58.256,58.255,58.256c32.123,0,58.256-26.134,58.256-58.256s-26.133-58.255-58.256-58.255
	c-16.521,0-31.445,6.924-42.057,18.008l0.208-58.636 M132.475,174.184c-22.461,0-40.734-18.273-40.734-40.735
	c0-22.461,18.273-40.734,40.734-40.734c22.461,0,40.735,18.273,40.735,40.734C173.209,155.911,154.936,174.184,132.475,174.184z"/>
</svg>
