<?xml version="1.0" encoding="utf-8"?>
<!-- Generator: Adobe Illustrator 23.0.3, SVG Export Plug-In . SVG Version: 6.00 Build 0)  -->
<svg version="1.1" id="Vrstva_1" xmlns="http://www.w3.org/2000/svg" xmlns:xlink="http://www.w3.org/1999/xlink" x="0px" y="0px"
	 viewBox="0 0 50 50" style="enable-background:new 0 0 50 50;" xml:space="preserve">
<style type="text/css">
	.st0{fill:#4CAF50;}
	.st1{fill:#388E3C;}
</style>
<g>
	<rect x="41" y="21" class="st0" width="4" height="23"/>
	<rect x="35" y="28" class="st0" width="4" height="16"/>
	<rect x="29" y="23" class="st0" width="4" height="21"/>
	<rect x="23" y="29" class="st0" width="4" height="15"/>
	<rect x="17" y="32" class="st0" width="4" height="12"/>
	<rect x="11" y="30" class="st0" width="4" height="14"/>
	<rect x="5" y="34" class="st0" width="4" height="10"/>
</g>
<g>
	<polygon class="st1" points="41.1,9.1 35,15.2 31,11.2 21,21.2 16,16.2 5.6,26.6 8.4,29.4 16,21.8 21,26.8 31,16.8 35,20.8 
		43.9,11.9 	"/>
	<polygon class="st1" points="45,8 36,8 45,17 	"/>
</g>
</svg>
