<svg xmlns="http://www.w3.org/2000/svg" viewBox="0 0 110 110"><defs><style>.cls-1{fill:none;}.cls-2{fill:#08243b;}.cls-3{fill:#184b6d;}.cls-4{fill:#236a91;}.cls-5{fill:#fff;}.cls-6{fill:#f9c300;}</style></defs><title>icon_accurate-trading</title><g id="Vrstva_2" data-name="Vrstva 2"><g id="Vrstva_1-2" data-name="Vrstva 1"><rect class="cls-1" width="110" height="110"/><g id="Multicolor"><path class="cls-2" d="M87,29V81a6,6,0,0,1-6,6H29a6,6,0,0,1-6-6V29a6,6,0,0,1,6-6H81A6,6,0,0,1,87,29Z"/><path class="cls-3" d="M87,32V81a6,6,0,0,1-6,6H29a6,6,0,0,1-6-6V67.26l11.21-7.21,17,3L66.75,52.7l9-15.91Z"/><path class="cls-4" d="M87,40V38H80V34H78v4H73v2h5v6H72V43H70v3H69v2h1v6H62v2h0v6H56V60H54v2H48V61H46v1H40V60H38v2H32V61H30v1H27.78v2H30v6H23v2h7v6H23v2h7v7h2V80h6v7h2V80h6v7h2V80h6v7h2V80h6v7h2V80h6v7h2V80h6v7h2V80h7V78H80V72h7V70H80V64h7V62H80V56h7V54H80V48h7V46H80V40ZM64,56h6v6H64Zm6,8v6H64V64Zm-8,0v6H56V64Zm-8,0v6H48V64Zm-8,0v6H40V64ZM32,64h6v6H32Zm0,14V72h6v6Zm8,0V72h6v6Zm8,0V72h6v6Zm8,0V72h6v6Zm8,0V72h6v6Zm14,0H72V72h6Zm0-8H72V64h6Zm0-8H72V56h6Zm0-8H72V48h6Z"/><path class="cls-5" d="M87,29.77,76.34,34.33a3,3,0,0,0-3.91,4.19L66.51,49.05a3,3,0,0,0-3.41,3.68L52.79,59.61A3,3,0,0,0,51,59a3,3,0,0,0-2.6,1.53L37,58.51c-.68-4.1-6.79-2.78-5.86,1.18L23,64.88v2.38l9.17-5.9a3,3,0,0,0,4.43-.89l11.45,2a3,3,0,1,0,5.85-1.22l10.31-6.88a3,3,0,0,0,4-4.35L74,39.82a3,3,0,0,0,3.78-3.92L87,32Z"/><polygon class="cls-5" points="59 48 51 54 43 48 43 30 59 30 59 48"/><path class="cls-6" d="M51,34.15a.79.79,0,0,1,.79.79v.21a6.63,6.63,0,0,1,2.2.73,1,1,0,0,1,.55.91,1,1,0,0,1-1,1,1.1,1.1,0,0,1-.53-.14,5.46,5.46,0,0,0-1.26-.51v2.3C54.05,40.08,55,41,55,42.72s-1.3,2.79-3.21,3v.8a.79.79,0,0,1-1.58,0v-.82a7.7,7.7,0,0,1-3-1.06,1,1,0,0,1,.53-1.94,1.09,1.09,0,0,1,.59.19,5.75,5.75,0,0,0,1.94.85V41.34c-2.18-.59-3.26-1.43-3.26-3.23s1.27-2.79,3.19-3v-.18A.78.78,0,0,1,51,34.15Zm-.71,4.92V37c-.73.11-1,.47-1,1S49.49,38.76,50.32,39.07Zm1.43,2.65v2.11c.71-.11,1.08-.44,1.08-1S52.57,42,51.75,41.72Z"/></g></g></g></svg>