<?xml version="1.0" encoding="utf-8"?>
<!-- Generator: Adobe Illustrator 23.0.3, SVG Export Plug-In . SVG Version: 6.00 Build 0)  -->
<svg version="1.1" id="Vrstva_1" xmlns="http://www.w3.org/2000/svg" xmlns:xlink="http://www.w3.org/1999/xlink" x="0px" y="0px"
	 viewBox="0 0 50 50" style="enable-background:new 0 0 50 50;" xml:space="preserve">
<style type="text/css">
	.st0{fill:#FF9800;}
	.st1{fill:#FFA726;}
	.st2{fill:#FFB74D;}
	.st3{fill:#FF5722;}
	.st4{fill:#784719;}
	.st5{fill:#CFD8DC;}
	.st6{fill:#3F51B5;}
</style>
<polygon class="st0" points="25,38 20,32 20,26 30,26 30,32 "/>
<g>
	<circle class="st1" cx="34" cy="20" r="2"/>
	<circle class="st1" cx="16" cy="20" r="2"/>
</g>
<path class="st2" d="M34,14c0-7.6-18-5-18,0c0,1.1,0,5.9,0,7c0,5,4,9,9,9s9-4,9-9C34,19.9,34,15.1,34,14z"/>
<path class="st3" d="M25,5c-6.1,0-10,4.9-10,11c0,0.8,0,2.3,0,2.3l2,1.7v-5l12-4l4,4v5l2-1.7c0,0,0-1.5,0-2.3c0-4-1-8-6-9l-1-2H25z"
	/>
<g>
	<circle class="st4" cx="29" cy="20" r="1"/>
	<circle class="st4" cx="21" cy="20" r="1"/>
</g>
<path class="st5" d="M30,32L30,32l-5,1l-5-1c0,0-11,2-11,13h32C41,34,30,32,30,32z"/>
<polygon class="st6" points="24,36 23,45 27,45 26,36 27,35 25,33 23,35 "/>
</svg>
