<svg xmlns="http://www.w3.org/2000/svg" viewBox="0 0 110 110"><defs><style>.cls-1{fill:none;}.cls-2{fill:#e6e6e6;}.cls-3{fill:#4c4c4c;}.cls-4{fill:#969696;}.cls-5{fill:#f9c300;}</style></defs><title>icon_cutting-edge-technology</title><g id="Vrstva_2" data-name="Vrstva 2"><g id="Vrstva_1-2" data-name="Vrstva 1"><rect class="cls-1" width="110" height="110"/><path class="cls-2" d="M36.93,26.6H31.76V21.43a2.59,2.59,0,0,1,5.17,0Z"/><path class="cls-2" d="M47.25,26.6H42.09V21.43a2.58,2.58,0,1,1,5.16,0Z"/><path class="cls-2" d="M57.58,26.6H52.42V21.43a2.58,2.58,0,0,1,5.16,0Z"/><path class="cls-2" d="M67.91,26.6H62.75V21.43a2.58,2.58,0,0,1,5.16,0Z"/><path class="cls-2" d="M78.24,26.6H73.07V21.43a2.59,2.59,0,0,1,5.17,0Z"/><path class="cls-2" d="M36.93,88.57a2.59,2.59,0,0,1-5.17,0V83.4h5.17Z"/><path class="cls-2" d="M26.6,78.24H21.43a2.59,2.59,0,0,1,0-5.17H26.6Z"/><path class="cls-2" d="M26.6,67.91H21.43a2.58,2.58,0,0,1,0-5.16H26.6Z"/><path class="cls-2" d="M26.6,57.58H21.43a2.58,2.58,0,0,1,0-5.16H26.6Z"/><path class="cls-2" d="M26.6,47.25H21.43a2.58,2.58,0,1,1,0-5.16H26.6Z"/><path class="cls-2" d="M26.6,36.93H21.43a2.59,2.59,0,0,1,0-5.17H26.6Z"/><path class="cls-2" d="M91.15,75.66a2.59,2.59,0,0,1-2.58,2.58H83.4V73.07h5.17A2.59,2.59,0,0,1,91.15,75.66Z"/><path class="cls-2" d="M91.15,65.33a2.59,2.59,0,0,1-2.58,2.58H83.4V62.75h5.17A2.58,2.58,0,0,1,91.15,65.33Z"/><path class="cls-2" d="M91.15,55a2.58,2.58,0,0,1-2.58,2.58H83.4V52.42h5.17A2.58,2.58,0,0,1,91.15,55Z"/><path class="cls-2" d="M91.15,44.67a2.58,2.58,0,0,1-2.58,2.58H83.4V42.09h5.17A2.59,2.59,0,0,1,91.15,44.67Z"/><path class="cls-2" d="M91.15,34.34a2.59,2.59,0,0,1-2.58,2.59H83.4V31.76h5.17A2.59,2.59,0,0,1,91.15,34.34Z"/><path class="cls-2" d="M47.25,88.57a2.58,2.58,0,0,1-5.16,0V83.4h5.16Z"/><path class="cls-2" d="M57.58,88.57a2.58,2.58,0,0,1-5.16,0V83.4h5.16Z"/><path class="cls-2" d="M67.91,88.57a2.58,2.58,0,0,1-5.16,0V83.4h5.16Z"/><path class="cls-2" d="M78.24,88.57a2.59,2.59,0,0,1-5.17,0V83.4h5.17Z"/><polygon class="cls-3" points="83.4 80.82 80.82 83.4 29.18 83.4 26.6 80.82 26.6 29.18 29.18 26.6 80.82 26.6 83.4 29.18 83.4 80.82"/><rect class="cls-4" x="33.05" y="33.05" width="43.9" height="43.9"/><polygon class="cls-5" points="61.45 38.86 42.09 58.23 51.77 58.23 48.55 71.14 67.91 51.77 58.23 51.77 61.45 38.86"/></g></g></svg>