<?xml version="1.0" encoding="UTF-8"?>
<svg xmlns="http://www.w3.org/2000/svg" xmlns:xlink="http://www.w3.org/1999/xlink"><symbol fill="none" viewBox="0 0 30 30" id="arrow-down" xmlns="http://www.w3.org/2000/svg"><path d="M20.738 10.369L15 16.094l-5.738-5.725L7.5 12.13l7.5 7.5 7.5-7.5-1.762-1.762z" fill="#828282"/></symbol><symbol fill="none" viewBox="0 0 32 32" id="arrow-right" xmlns="http://www.w3.org/2000/svg"><path d="M29.106 15.59L2.966 2.485a.5.5 0 0 0-.71.566L4.95 14.056c.04.166.163.3.325.353l4.616 1.585-4.613 1.584a.49.49 0 0 0-.322.353l-2.7 11.022a.502.502 0 0 0 .71.566l26.14-13.031a.514.514 0 0 0 .225-.222.506.506 0 0 0-.225-.675zM5.338 25.823l1.571-6.425 9.225-3.166a.25.25 0 0 0 0-.475L6.91 12.594l-1.565-6.4 19.625 9.84-19.631 9.788z" fill="#F06313"/></symbol><symbol fill="none" viewBox="0 0 72 72" id="computer" xmlns="http://www.w3.org/2000/svg"><circle cx="36" cy="36" r="36" fill="#FFDDC4"/><path fill-rule="evenodd" clip-rule="evenodd" d="M15.195 20h41.61c.657 0 1.195.538 1.195 1.195v27.566c0 .657-.538 1.195-1.195 1.195h-41.61A1.199 1.199 0 0 1 14 48.761V21.195A1.2 1.2 0 0 1 15.195 20zm31.596 10.014l3.762.013a3.761 3.761 0 0 1-1.672 3.114l-2.09-3.127zm-21.645-2.952h1.147c.06 0 .11.05.11.111v4.083c0 .061-.05.111-.11.111h-1.147c-.06 0-.11-.05-.11-.11v-4.084c0-.06.05-.11.11-.11zm-5.183-1.38h1.147c.06 0 .11.05.11.11v5.464c0 .061-.05.111-.11.111h-1.146a.111.111 0 0 1-.111-.11v-5.464c0-.061.05-.111.11-.111zm2.592-.777H23.7c.061 0 .111.05.111.111v6.24c0 .061-.05.111-.11.111h-1.147a.112.112 0 0 1-.111-.11v-6.24c0-.062.05-.112.11-.112zM20.03 41.976a.454.454 0 0 1-.452-.457c0-.252.203-.456.452-.456h32.014c.25 0 .452.204.452.456a.454.454 0 0 1-.452.457H20.03zm-.074-3.332a.454.454 0 0 1-.452-.457c0-.252.202-.456.452-.456h12.837c.25 0 .452.204.452.456a.454.454 0 0 1-.452.457H19.956zm14.596 0a.454.454 0 0 1-.452-.457c0-.252.202-.456.452-.456h17.492c.25 0 .452.204.452.456a.454.454 0 0 1-.452.457H34.552zM19.956 35.67a.454.454 0 0 1-.452-.456c0-.252.202-.457.452-.457h19.393c.25 0 .453.205.453.457a.454.454 0 0 1-.453.456H19.956zm26.45-6.402l-.201-4.02a.144.144 0 0 1 .137-.152 4.306 4.306 0 0 1 .162-.004 4.165 4.165 0 0 1 2.875 1.103 4.166 4.166 0 0 1 1.337 2.775.144.144 0 0 1-.133.155l-4.023.287a.144.144 0 0 1-.154-.144zm.093-3.889l.187 3.735 3.73-.267a3.878 3.878 0 0 0-1.232-2.44 3.88 3.88 0 0 0-2.678-1.028h-.007zm-.544 4.463l2.016 3.492a4.033 4.033 0 1 1-2.601-7.483l.585 3.99zm-15.38 21.767h10.85c.029 1.878.8 3.557 2.896 4.882H27.68c1.675-1.217 2.903-2.694 2.897-4.882zM36 45.927a1.537 1.537 0 1 1-.002 3.074A1.537 1.537 0 0 1 36 45.927zM17.597 22.253h36.806a1.06 1.06 0 0 1 1.058 1.057v20.598c0 .581-.477 1.057-1.058 1.057H17.597a1.06 1.06 0 0 1-1.057-1.057V23.31a1.06 1.06 0 0 1 1.057-1.057z" fill="#F06313"/></symbol><symbol fill="none" viewBox="0 0 30 30" id="cross" xmlns="http://www.w3.org/2000/svg"><path d="M6 3.245l9 9 9-8.972a1.827 1.827 0 0 1 1.364-.546 2.045 2.045 0 0 1 1.909 1.91 1.8 1.8 0 0 1-.546 1.308L17.7 15l9.027 9.055c.355.343.551.818.546 1.309a2.046 2.046 0 0 1-1.91 1.909A1.827 1.827 0 0 1 24 26.727l-9-8.973-8.973 8.973a1.828 1.828 0 0 1-1.363.546 2.045 2.045 0 0 1-1.937-1.937 1.8 1.8 0 0 1 .546-1.309L12.3 15 3.245 5.945a1.8 1.8 0 0 1-.518-1.309 2.046 2.046 0 0 1 1.91-1.909A1.827 1.827 0 0 1 6 3.245z" fill="#000"/></symbol><symbol fill="none" viewBox="0 0 36 33" id="double-arrow" xmlns="http://www.w3.org/2000/svg"><path d="M19.445 6.803l-3.15 2.85 7.335 6.632-7.336 6.633 3.151 2.85 10.484-9.483-10.484-9.482z" fill="#F06313"/><path d="M9.05 25.768l10.484-9.483L9.051 6.803l-3.152 2.85 7.336 6.632L5.9 22.918l3.152 2.85z" fill="#F06313"/></symbol><symbol fill="none" viewBox="0 0 72 73" id="income" xmlns="http://www.w3.org/2000/svg"><g clip-path="url(#fclip0)"><circle cx="36" cy="36.5" r="36" fill="#FFDDC4"/><path fill-rule="evenodd" clip-rule="evenodd" d="M32.89 31.9c.285.476.438.982.438 1.507 0 .39-.085.77-.246 1.136a11.501 11.501 0 0 0-2.226-.783c.914-.53 1.615-1.162 2.033-1.86zm-4.748 3.426c5.323 0 9.638 4.293 9.638 9.587 0 5.295-4.315 9.587-9.639 9.587-5.323 0-9.638-4.292-9.638-9.587 0-5.294 4.315-9.587 9.639-9.587zm1.82 5.194h1.178c.143 0 .259.11.259.244a.236.236 0 0 1-.042.133L26.58 49.18a.26.26 0 0 1-.226.127h-1.178a.251.251 0 0 1-.258-.244c0-.049.015-.095.042-.133l4.775-8.282a.26.26 0 0 1 .226-.127zM22.67 42.8a2.465 2.465 0 0 1 .277-1.131 1.9 1.9 0 0 1 .364-.495c.145-.142.316-.263.511-.361.192-.099.402-.173.628-.221.224-.048.462-.072.714-.072.373 0 .711.051 1.013.154a2.2 2.2 0 0 1 .8.471c.226.211.396.456.508.735l.005.013c.107.272.161.575.161.907 0 .34-.055.648-.166.924a2.029 2.029 0 0 1-.508.737c-.225.21-.492.367-.8.472-.302.102-.64.154-1.013.154-.252 0-.49-.024-.714-.073a2.535 2.535 0 0 1-.628-.22l-.018-.01a2.034 2.034 0 0 1-.493-.351 1.899 1.899 0 0 1-.364-.495l-.007-.015a2.49 2.49 0 0 1-.2-.536l-.002-.008a2.498 2.498 0 0 1-.068-.58zm2.097.01c0 .204.017.374.05.512a.759.759 0 0 0 .126.293l.005.006c.022.029.05.05.08.064a.342.342 0 0 0 .137.024c.096 0 .167-.03.21-.089l.004-.005a.77.77 0 0 0 .126-.293c.033-.139.05-.31.05-.512 0-.2-.017-.37-.05-.507a.801.801 0 0 0-.127-.297l-.001-.001a.193.193 0 0 0-.076-.062.34.34 0 0 0-.136-.024.357.357 0 0 0-.14.024.212.212 0 0 0-.082.064.77.77 0 0 0-.126.294l-.002.008a2.278 2.278 0 0 0-.047.501zm3.867 4.197c0-.4.091-.78.274-1.137a1.88 1.88 0 0 1 .362-.493c.146-.142.317-.265.512-.365l.013-.006c.19-.095.396-.167.616-.215a3.34 3.34 0 0 1 .711-.073c.765 0 1.371.21 1.82.63.225.21.394.457.506.737.111.276.166.584.166.921 0 .338-.055.646-.165.922a2.04 2.04 0 0 1-.507.737c-.449.42-1.055.63-1.82.63-.251 0-.488-.025-.711-.073a2.614 2.614 0 0 1-.627-.22L29.781 49a2.09 2.09 0 0 1-.512-.364 1.885 1.885 0 0 1-.362-.493 2.488 2.488 0 0 1-.274-1.137zm2.097.012c0 .204.016.376.049.515a.8.8 0 0 0 .126.296l.002.002c.02.028.047.049.076.062a.345.345 0 0 0 .138.024c.1 0 .175-.03.221-.09l.006-.007a.807.807 0 0 0 .12-.288c.032-.139.049-.31.049-.514 0-.382-.059-.654-.175-.813a.217.217 0 0 0-.081-.065.347.347 0 0 0-.14-.024c-.098 0-.169.03-.212.088l-.011.015a.812.812 0 0 0-.119.286c-.033.14-.05.31-.05.513zm-11.67-9.182c-3.013-.853-5.06-2.517-5.06-4.43 0-.525.154-1.031.44-1.506 1.046 1.743 3.858 3.079 7.345 3.437a11.575 11.575 0 0 0-2.725 2.5zm38.5 1.569c.285.476.44.982.44 1.506 0 2.782-4.328 5.04-9.665 5.04-5.336-.001-9.664-2.258-9.664-5.04 0-.524.154-1.03.44-1.506 1.227 2.047 4.894 3.534 9.224 3.534 4.331 0 7.997-1.487 9.225-3.534zm-7.82-7.368l-.02-1.248c.283-.01.516-.097.694-.256a.846.846 0 0 0 .3-.58.837.837 0 0 0-.26-.686c-.196-.197-.508-.315-.934-.352-.399-.034-.707.029-.923.19a.895.895 0 0 0-.36.67c-.032.356.1.69.392 1l-.235.995-3.334-.93.287-3.283 1.167.101-.204 2.342 1.09.29a1.88 1.88 0 0 1-.135-.867c.048-.55.29-1 .726-1.347.436-.348.977-.495 1.619-.44a2.362 2.362 0 0 1 1.394.588c.538.471.774 1.08.709 1.828-.053.6-.256 1.072-.612 1.421-.356.35-.81.538-1.362.563zm-1.405-5.006c4.386 0 7.944 1.388 7.944 3.098 0 1.711-3.558 3.099-7.944 3.099s-7.942-1.388-7.942-3.099c0-1.71 3.556-3.098 7.942-3.098zm0-1.026c5.337 0 9.665 2.256 9.665 5.039 0 2.782-4.328 5.038-9.665 5.038-5.336 0-9.664-2.256-9.664-5.038 0-2.783 4.328-5.04 9.664-5.04zm9.26 8.398c.263.458.405.943.405 1.447 0 2.782-4.328 5.038-9.665 5.038-5.336 0-9.664-2.257-9.664-5.038 0-.504.142-.989.405-1.447 1.193 2.077 4.887 3.591 9.259 3.591 4.372 0 8.066-1.514 9.259-3.59zm-30.44-12.916l-.109 1.251-4.743-.41c.391.495.662 1.061.812 1.7l-1.141-.1c-.079-.334-.252-.707-.517-1.116-.268-.41-.595-.702-.983-.879l.089-1.015 6.592.57zm-3.49-1.962c4.386 0 7.942 1.388 7.942 3.099 0 1.71-3.557 3.098-7.942 3.098-4.386 0-7.943-1.388-7.943-3.098 0-1.711 3.557-3.099 7.943-3.099zm0-1.026c5.336 0 9.663 2.256 9.663 5.038 0 2.782-4.327 5.038-9.663 5.038-5.337 0-9.665-2.256-9.665-5.038 0-2.782 4.328-5.038 9.665-5.038zm9.259 8.398c.263.459.404.944.404 1.446 0 2.782-4.327 5.04-9.663 5.04-5.337 0-9.665-2.258-9.665-5.04 0-.502.142-.987.406-1.446 1.192 2.077 4.886 3.592 9.258 3.592 4.373 0 8.066-1.515 9.26-3.592zM16.868 47.352c-1.77-.913-2.868-2.18-2.868-3.58 0-.56.176-1.1.5-1.603.45.7 1.188 1.333 2.14 1.858a11.56 11.56 0 0 0 .228 3.325zm.078-5.214C15.13 41.222 14 39.938 14 38.517c0-.534.16-1.047.455-1.53.627 1.027 1.87 1.912 3.502 2.536a11.33 11.33 0 0 0-1.01 2.615z" fill="#F06313"/></g><defs><clipPath id="fclip0"><path fill="#fff" transform="translate(0 .5)" d="M0 0h72v72H0z"/></clipPath></defs></symbol><symbol viewBox="0 0 512 512" id="like" xmlns="http://www.w3.org/2000/svg"><path d="M139.947 338.784L79.654 462.309l55.669-4.409 30.772 46.601 58.255-119.35zm232.454-.17l-84.099 46.991 58.033 118.896 30.792-46.56 55.649 4.368z" fill="#e6646e"/><path d="M372.401 338.614l-84.1 46.991 13.125 26.89c6.831-2.79 13.068-7.009 18.158-12.518a2.77 2.77 0 0 1 2.574-.836c3.273.652 6.622.983 9.951.983 19.781 0 37.911-11.614 46.189-29.589a2.784 2.784 0 0 1 2.188-1.59c2.099-.248 4.1-.761 6.109-1.25l-14.194-29.081zm-246.605 29.161c1.886.443 3.753.937 5.717 1.169.95.113 1.79.722 2.19 1.592 8.276 17.973 26.407 29.587 46.188 29.587 3.33 0 6.679-.331 9.953-.984a2.773 2.773 0 0 1 2.571.836c5.179 5.607 11.55 9.871 18.523 12.657l13.413-27.482-84.404-46.367-14.151 28.992z" fill="#dc4655"/><path d="M269.111 10.951c10.821-6.066 24.392-3.917 32.808 5.197a26.818 26.818 0 0 0 24.939 8.104c12.166-2.425 24.408 3.812 29.598 15.08a26.814 26.814 0 0 0 21.214 15.413c12.32 1.453 22.035 11.168 23.489 23.489a26.814 26.814 0 0 0 15.413 21.214c11.268 5.19 17.505 17.431 15.08 29.598a26.812 26.812 0 0 0 8.104 24.939c9.114 8.418 11.262 21.987 5.197 32.808a26.812 26.812 0 0 0 0 26.223c6.066 10.821 3.917 24.392-5.197 32.808a26.818 26.818 0 0 0-8.104 24.939c2.425 12.166-3.813 24.408-15.08 29.598a26.814 26.814 0 0 0-15.413 21.214c-1.453 12.32-11.168 22.035-23.489 23.489a26.814 26.814 0 0 0-21.214 15.413c-5.19 11.268-17.431 17.505-29.598 15.08a26.812 26.812 0 0 0-24.939 8.104c-8.418 9.114-21.987 11.262-32.808 5.197a26.812 26.812 0 0 0-26.223 0c-10.821 6.066-24.392 3.917-32.808-5.197a26.818 26.818 0 0 0-24.939-8.104c-12.166 2.425-24.408-3.813-29.598-15.08a26.814 26.814 0 0 0-21.214-15.413c-12.32-1.453-22.035-11.168-23.489-23.489a26.814 26.814 0 0 0-15.413-21.214c-11.268-5.19-17.505-17.431-15.08-29.598a26.812 26.812 0 0 0-8.104-24.939c-9.114-8.418-11.262-21.987-5.197-32.808a26.812 26.812 0 0 0 0-26.223c-6.066-10.821-3.917-24.392 5.197-32.808a26.818 26.818 0 0 0 8.104-24.939c-2.425-12.166 3.812-24.408 15.08-29.598a26.814 26.814 0 0 0 15.413-21.214c1.453-12.32 11.168-22.035 23.489-23.489a26.814 26.814 0 0 0 21.214-15.413c5.19-11.268 17.431-17.505 29.598-15.08a26.812 26.812 0 0 0 24.939-8.104c8.418-9.114 21.987-11.262 32.808-5.197a26.818 26.818 0 0 0 26.223 0z" fill="#ffd164"/><path d="M403.625 280.819c15.575-28.345 23.232-61.654 19.96-96.96-7.38-79.641-71.899-144.161-151.54-151.54-35.307-3.272-68.616 4.385-96.96 19.96-4.528 2.488-9.718-2.072-7.648-6.806a180.003 180.003 0 0 1 11.239-21.622c-9.401.432-18.077 5.728-22.546 14.285-4.474 8.567-12.287 15.456-21.882 16.618-12.281 1.486-21.957 11.185-23.408 23.478-1.111 9.415-6.802 17.25-15.412 21.215-11.268 5.189-17.506 17.43-15.081 29.596 1.853 9.298-1.14 18.508-8.104 24.941-9.113 8.418-11.261 21.987-5.196 32.807 4.636 8.27 4.636 17.954 0 26.224-6.066 10.821-3.917 24.39 5.196 32.807 6.964 6.433 9.956 15.643 8.104 24.941-2.425 12.165 3.812 24.406 15.078 29.595 8.612 3.966 14.304 11.801 15.415 21.216 1.454 12.319 11.168 22.034 23.488 23.488 9.415 1.111 17.25 6.803 21.215 15.413 5.189 11.267 17.43 17.505 29.596 15.081 9.298-1.853 18.508 1.14 24.941 8.104 8.418 9.113 21.987 11.261 32.807 5.196 8.27-4.636 17.954-4.636 26.224 0 10.821 6.066 24.391 3.917 32.807-5.196 6.433-6.964 15.643-9.956 24.941-8.104 12.166 2.425 24.408-3.814 29.596-15.082 3.965-8.611 11.8-14.301 21.215-15.411 12.292-1.45 21.992-11.125 23.478-23.408 1.161-9.596 8.053-17.408 16.62-21.883 8.556-4.469 13.851-13.144 14.283-22.545a179.714 179.714 0 0 1-21.622 11.239c-4.732 2.07-9.292-3.119-6.804-7.647z" fill="#ffc350"/><circle cx="255.997" cy="199.9" r="152.302" fill="#ffedb1"/><path d="M298.699 274.067c-58.215-12.254-104.609-58.647-116.862-116.862-4.119-19.567-4.332-38.559-1.381-56.486.991-6.019-6.125-9.892-10.84-6.024-34.656 28.441-55.083 73.544-48.73 123.163 7.753 60.54 56.619 109.407 117.16 117.16 49.619 6.354 94.723-14.072 123.163-48.73 3.87-4.716-.005-11.831-6.024-10.84-17.927 2.951-36.919 2.738-56.486-1.381z" fill="#ffe17d"/><path d="M368.22 167.841c0-8.855-7.179-16.031-16.031-16.031h-64.126s12.015-18.024 20.443-43.669c2.242-6.821-1.6-14.175-8.411-16.446l-.461-.154c-6.362-2.121-13.225.914-16.116 6.964-7.238 15.15-23.51 42.083-51.565 53.304h-10.238c-2.777-4.772-7.89-8.016-13.808-8.016h-32.063c-8.854 0-16.031 7.178-16.031 16.031v112.22c0 8.854 7.179 16.031 16.031 16.031h32.063c5.919 0 11.031-3.244 13.808-8.016h106.428c8.854 0 16.031-7.178 16.031-16.031 0-8.855-7.178-16.031-16.031-16.031h8.016c8.854 0 16.031-7.179 16.031-16.031 0-8.855-7.179-16.031-16.031-16.031h8.016c8.854 0 16.031-7.179 16.031-16.031 0-8.855-7.178-16.031-16.031-16.031h8.016c8.85-.001 16.029-7.179 16.029-16.032z" fill="#fff"/><g fill="#fff6d8"><path d="M320.126 231.966a8.016 8.016 0 0 0 0 16.032H335.3c7.986 0 15.387-5.458 16.669-13.34.149-.916.139-1.803.138-2.691l-31.981-.001zm8.015-32.063a8.016 8.016 0 0 0 0 16.032h15.174c7.986 0 15.387-5.458 16.669-13.34.149-.916.139-1.803.138-2.691l-31.981-.001zm0-24.047a8.016 8.016 0 0 0 8.016 8.016h16.031c8.848 0 15.94-7.187 15.95-16.031h-31.981a8.015 8.015 0 0 0-8.016 8.015z"/><path d="M296.079 264.029c-26.562 0-48.095-21.533-48.095-48.095v-8.016c0-8.854-7.178-16.031-16.031-16.031h-8.016v88.173H327.31c8.849 0 16.979-6.7 16.863-15.975-.021-.021-16.091-.035-16.112-.056h-31.982zm-112.221-24.047v-56.11c0-8.854-7.178-16.031-16.031-16.031h-8.016v104.205c0 8.854 7.178 16.031 16.031 16.031h32.063c8.854 0 16.031-7.178 16.031-16.031v-8.016h-16.031c-13.28-.001-24.047-10.767-24.047-24.048z"/></g><path d="M451.494 190.459c7.794-13.905 5.06-31.169-6.65-41.985-4.906-4.532-7.143-11.415-5.837-17.964 3.116-15.632-4.82-31.207-19.298-37.875-6.066-2.793-10.32-8.649-11.102-15.281-1.868-15.83-14.228-28.191-30.058-30.057-6.632-.782-12.487-5.037-15.281-11.103a34.208 34.208 0 0 0-37.874-19.298c-6.551 1.306-13.433-.932-17.964-5.837-10.815-11.709-28.082-14.442-41.985-6.65-5.826 3.265-13.063 3.266-18.888 0-13.905-7.792-31.168-5.059-41.985 6.65-4.531 4.905-11.414 7.146-17.964 5.837-15.633-3.113-31.206 4.82-37.875 19.298-2.793 6.066-8.649 10.32-15.28 11.102-15.83 1.867-28.191 14.227-30.058 30.058-.782 6.632-5.037 12.487-11.102 15.28-14.478 6.668-22.415 22.243-19.298 37.875 1.306 6.55-.931 13.433-5.837 17.964a34.206 34.206 0 0 0-6.65 41.985c3.266 5.826 3.266 13.062 0 18.888-7.794 13.905-5.06 31.169 6.65 41.985 4.906 4.532 7.143 11.414 5.837 17.963-3.116 15.632 4.82 31.207 19.298 37.875 6.066 2.794 10.32 8.65 11.102 15.282 1.553 13.163 10.365 23.922 22.392 28.249L72.914 459.019a7.5 7.5 0 0 0 .481 7.423c1.462 2.215 3.98 3.509 6.637 3.357l50.735-2.566 29.189 41.578a7.502 7.502 0 0 0 12.878-1.02l52.827-108.23c7.026.847 14.334-.484 20.894-4.162 5.825-3.265 13.061-3.266 18.888 0a34.3 34.3 0 0 0 16.806 4.409c1.504 0 3.002-.11 4.488-.307l52.857 108.29a7.499 7.499 0 0 0 12.878 1.02l29.19-41.578 50.735 2.566a7.501 7.501 0 0 0 7.118-10.78L386.58 350.567c11.839-4.412 20.489-15.085 22.026-28.116.782-6.632 5.037-12.487 11.102-15.281 14.478-6.668 22.415-22.243 19.298-37.875-1.306-6.55.931-13.432 5.837-17.964a34.206 34.206 0 0 0 6.65-41.985c-3.265-5.823-3.265-13.061.001-18.887zM164.93 489.789l-24.267-34.565a7.475 7.475 0 0 0-6.517-3.181l-42.178 2.134 48.516-99.397c3.571 1.971 6.505 5.049 8.248 8.833 3.563 7.738 9.672 13.602 16.972 16.915l-16.037 32.855a7.498 7.498 0 0 0 3.45 10.028 7.468 7.468 0 0 0 3.284.762 7.502 7.502 0 0 0 6.746-4.212l17.766-36.399c1.887-.06 3.79-.272 5.694-.651 6.551-1.308 13.433.931 17.964 5.837a34.511 34.511 0 0 0 6.878 5.739l-46.519 95.302zm255.531-35.612l-42.179-2.133a7.463 7.463 0 0 0-6.517 3.181l-24.267 34.565-46.623-95.518a34.555 34.555 0 0 0 6.553-5.524c4.531-4.906 11.414-7.142 17.964-5.837 2.051.409 4.101.622 6.13.661l17.762 36.39a7.5 7.5 0 0 0 10.03 3.449 7.5 7.5 0 0 0 3.45-10.029l-16.116-33.018c7.144-3.34 13.114-9.14 16.621-16.752 1.798-3.904 4.867-7.05 8.592-9.01l48.6 99.575zm17.95-237.496a19.253 19.253 0 0 1-3.743 23.633c-8.716 8.05-12.688 20.279-10.369 31.914a19.253 19.253 0 0 1-10.862 21.319c-10.776 4.963-18.334 15.365-19.724 27.148a19.253 19.253 0 0 1-16.919 16.919c-11.782 1.39-22.185 8.948-27.148 19.724a19.25 19.25 0 0 1-21.32 10.862c-11.633-2.317-23.865 1.654-31.914 10.369a19.253 19.253 0 0 1-23.633 3.744c-5.176-2.901-10.976-4.352-16.778-4.352-5.801 0-11.604 1.451-16.778 4.351a19.254 19.254 0 0 1-23.633-3.743c-8.05-8.715-20.28-12.688-31.914-10.369a19.252 19.252 0 0 1-21.319-10.862c-4.963-10.776-15.365-18.334-27.148-19.724a19.253 19.253 0 0 1-16.919-16.919c-1.39-11.782-8.948-22.185-19.724-27.149a19.251 19.251 0 0 1-10.862-21.319c2.319-11.635-1.654-23.864-10.369-31.914a19.254 19.254 0 0 1-3.744-23.633c5.802-10.349 5.802-23.207 0-33.557a19.253 19.253 0 0 1 3.743-23.633c8.716-8.05 12.688-20.279 10.369-31.914a19.253 19.253 0 0 1 10.862-21.319c10.776-4.963 18.334-15.365 19.724-27.148a19.252 19.252 0 0 1 16.919-16.919c11.782-1.39 22.186-8.948 27.148-19.724a19.251 19.251 0 0 1 21.32-10.862c11.64 2.32 23.864-1.655 31.914-10.369a19.252 19.252 0 0 1 23.633-3.743c10.349 5.801 23.207 5.801 33.556 0a19.25 19.25 0 0 1 23.633 3.743c8.05 8.715 20.277 12.689 31.914 10.369a19.25 19.25 0 0 1 21.319 10.862c4.963 10.776 15.365 18.334 27.148 19.724a19.253 19.253 0 0 1 16.919 16.919c1.39 11.782 8.948 22.186 19.724 27.148a19.252 19.252 0 0 1 10.862 21.319c-2.319 11.635 1.654 23.864 10.369 31.914a19.254 19.254 0 0 1 3.744 23.633c-5.802 10.351-5.802 23.21 0 33.558z"/><path d="M352.188 144.31H301.12c4.309-8.058 9.908-19.822 14.511-33.827 3.515-10.691-2.391-22.312-13.161-25.902l-.462-.154c-9.869-3.293-20.728 1.371-25.257 10.845-6.622 13.861-21.364 38.439-46.283 49.039h-4.893c-4.316-4.909-10.634-8.016-17.669-8.016h-32.062c-12.975 0-23.531 10.556-23.531 23.531v112.22c0 12.975 10.556 23.531 23.531 23.531h32.062c7.035 0 13.353-3.107 17.669-8.016h102.567c12.975 0 23.531-10.556 23.531-23.531 0-4.368-1.196-8.462-3.278-11.97 6.768-4.137 11.293-11.596 11.293-20.092 0-4.368-1.196-8.462-3.278-11.97 6.768-4.137 11.293-11.596 11.293-20.092 0-4.368-1.196-8.462-3.278-11.97 6.768-4.137 11.293-11.596 11.293-20.092.002-12.979-10.555-23.534-23.53-23.534zm0 32.062h-24.047a7.5 7.5 0 0 0 0 15h16.031c4.705 0 8.532 3.828 8.532 8.532s-3.828 8.532-8.532 8.532h-24.047a7.5 7.5 0 0 0 0 15h16.031c4.705 0 8.532 3.828 8.532 8.532 0 4.704-3.828 8.532-8.532 8.532H312.11a7.5 7.5 0 0 0 0 15h16.031c4.705 0 8.532 3.828 8.532 8.532s-3.828 8.532-8.532 8.532h-96.704v-72.657a7.5 7.5 0 0 0-15 0v72.141c0 4.705-3.828 8.532-8.532 8.532h-32.062c-4.705 0-8.532-3.828-8.532-8.532V159.825c0-4.705 3.828-8.532 8.532-8.532h32.062c4.705 0 8.532 3.828 8.532 8.532v8.015a7.5 7.5 0 0 0 15 0v-8.531h.516c.954 0 1.899-.182 2.786-.537 30.439-12.176 47.868-40.961 55.546-57.035 1.271-2.661 4.274-3.982 6.977-3.083l.463.155c2.96.986 4.601 4.122 3.658 6.991-7.978 24.274-19.447 41.682-19.559 41.85a7.5 7.5 0 0 0 6.24 11.66h64.126c4.705 0 8.532 3.828 8.532 8.532-.001 4.702-3.829 8.53-8.534 8.53z"/><circle cx="192" cy="256.017" r="7.5"/></symbol><symbol fill="none" viewBox="0 0 50 32" id="maestro" xmlns="http://www.w3.org/2000/svg"><rect width="50" height="32" rx="3" fill="#0F3560"/><path d="M29.374 23.863h-8.75V8.14h8.75v15.724z" fill="#6C6BBD"/><path d="M21.185 16c0-3.19 1.494-6.03 3.82-7.862A9.956 9.956 0 0 0 18.824 6c-5.522 0-9.999 4.477-9.999 10s4.476 10 9.999 10c2.332 0 4.479-.8 6.18-2.138A9.983 9.983 0 0 1 21.184 16z" fill="#EB001B"/><path d="M41.174 16c0 5.523-4.477 10-9.999 10a9.96 9.96 0 0 1-6.18-2.138A9.982 9.982 0 0 0 28.815 16c0-3.19-1.494-6.03-3.82-7.862A9.959 9.959 0 0 1 31.175 6c5.522 0 9.999 4.477 9.999 10z" fill="#0099DF"/><path d="M34.015 14.29c.143 0 .35.028.507.09l-.22.67c-.15-.063-.3-.083-.444-.083-.465 0-.697.3-.697.84v1.833h-.711v-3.268h.704v.397c.185-.287.451-.479.861-.479zm-2.627.732h-1.162v1.476c0 .328.116.547.472.547.185 0 .417-.062.628-.185l.205.608c-.225.158-.58.254-.888.254-.84 0-1.134-.452-1.134-1.21v-1.49h-.664v-.65h.664v-.99h.717v.99h1.162v.65zm-9.098.697c.076-.472.362-.793.868-.793.458 0 .752.287.827.793H22.29zm2.434.287c-.007-1.018-.636-1.716-1.552-1.716-.957 0-1.627.698-1.627 1.716 0 1.038.697 1.715 1.675 1.715.492 0 .943-.123 1.34-.458l-.35-.526a1.554 1.554 0 0 1-.95.342c-.457 0-.874-.212-.976-.8h2.426c.007-.089.014-.177.014-.273zm3.123-.8a2.1 2.1 0 0 0-1.018-.28c-.39 0-.622.144-.622.383 0 .218.246.28.553.32l.335.049c.711.103 1.142.403 1.142.977 0 .622-.547 1.067-1.49 1.067-.534 0-1.026-.137-1.415-.424l.335-.554c.239.184.595.342 1.087.342.485 0 .745-.143.745-.397 0-.184-.185-.287-.574-.341l-.335-.048c-.732-.103-1.128-.43-1.128-.964 0-.649.533-1.046 1.36-1.046.52 0 .991.117 1.333.342l-.308.575zm8.767-.24c-.147 0-.282.025-.408.076a.98.98 0 0 0-.541.549 1.11 1.11 0 0 0-.079.426c0 .156.026.297.079.427a.978.978 0 0 0 .541.548c.126.052.261.077.408.077.146 0 .282-.025.407-.077a.977.977 0 0 0 .545-.549c.053-.129.079-.27.079-.426a1.11 1.11 0 0 0-.079-.426.995.995 0 0 0-.545-.549 1.075 1.075 0 0 0-.407-.076zm0-.676c.253 0 .488.044.704.133a1.661 1.661 0 0 1 .93.91c.09.21.134.438.134.684 0 .247-.045.475-.134.685a1.664 1.664 0 0 1-.93.91c-.216.088-.45.132-.704.132a1.85 1.85 0 0 1-.705-.132 1.704 1.704 0 0 1-.557-.363 1.685 1.685 0 0 1-.369-.547 1.738 1.738 0 0 1-.134-.685c0-.246.045-.475.134-.685a1.683 1.683 0 0 1 .926-.909c.216-.089.451-.133.705-.133zm-18.477 1.716c0-.574.376-1.046.991-1.046.588 0 .985.451.985 1.046s-.397 1.045-.985 1.045c-.615 0-.99-.47-.99-1.045zm2.645 0v-1.633h-.71v.396c-.226-.294-.567-.479-1.032-.479-.916 0-1.634.718-1.634 1.716s.718 1.716 1.634 1.716c.465 0 .806-.185 1.032-.479v.397h.71v-1.634zm-4.005 1.634v-2.05c0-.773-.492-1.293-1.284-1.3-.417-.007-.848.123-1.149.582-.225-.363-.581-.582-1.08-.582-.348 0-.69.103-.957.486v-.403h-.71v3.267h.717v-1.812c0-.567.314-.868.8-.868.471 0 .71.308.71.861v1.819h.718v-1.812c0-.567.329-.868.8-.868.486 0 .718.308.718.861v1.819h.717z" fill="#fff"/></symbol><symbol fill="none" viewBox="0 0 50 32" id="mastercard" xmlns="http://www.w3.org/2000/svg"><rect width="50" height="32" rx="3" fill="#0F3560"/><path d="M29.363 23.864h-8.749V8.141h8.75v15.723z" fill="#FF5F00"/><path d="M21.174 16.001c0-3.19 1.494-6.03 3.82-7.862a9.956 9.956 0 0 0-6.18-2.138c-5.522 0-9.999 4.477-9.999 10s4.477 10 9.999 10a9.959 9.959 0 0 0 6.18-2.138 9.983 9.983 0 0 1-3.82-7.862z" fill="#EB001B"/><path d="M41.163 16.001c0 5.523-4.476 10-9.999 10a9.96 9.96 0 0 1-6.18-2.138 9.982 9.982 0 0 0 3.82-7.862c0-3.19-1.494-6.03-3.82-7.862a9.959 9.959 0 0 1 6.18-2.138c5.523 0 10 4.477 10 10z" fill="#F79E1B"/><path d="M16.34 16.065c0-.437.285-.796.753-.796.447 0 .749.343.749.796 0 .452-.302.795-.749.795-.468 0-.754-.359-.754-.795zm2.011 0v-1.243h-.54v.302c-.171-.224-.432-.364-.785-.364-.697 0-1.243.546-1.243 1.305 0 .759.546 1.305 1.243 1.305.353 0 .614-.14.785-.365v.302h.54v-1.242zm18.26 0c0-.437.286-.796.754-.796.447 0 .749.343.749.796 0 .452-.301.795-.749.795-.468 0-.754-.359-.754-.795zm2.013 0v-2.24h-.541v1.299c-.172-.224-.432-.364-.785-.364-.697 0-1.243.546-1.243 1.305 0 .759.546 1.305 1.243 1.305.353 0 .613-.14.785-.365v.302h.54v-1.242zm-13.566-.822c.349 0 .572.219.63.603h-1.29c.058-.359.275-.603.66-.603zm.011-.483c-.728 0-1.238.53-1.238 1.305 0 .79.53 1.305 1.274 1.305.375 0 .718-.094 1.02-.349l-.265-.4c-.209.166-.474.26-.724.26-.348 0-.665-.161-.743-.609h1.845a2.29 2.29 0 0 0 .011-.207c-.005-.775-.484-1.305-1.18-1.305zm6.525 1.305c0-.437.286-.796.754-.796.447 0 .748.343.748.796 0 .452-.301.795-.748.795-.468 0-.754-.359-.754-.795zm2.012 0v-1.243h-.54v.302c-.173-.224-.432-.364-.785-.364-.697 0-1.244.546-1.244 1.305 0 .759.547 1.305 1.244 1.305.353 0 .612-.14.784-.365v.302h.54v-1.242zm-5.064 0c0 .754.525 1.305 1.326 1.305.374 0 .624-.084.894-.297l-.26-.436a1.092 1.092 0 0 1-.65.223c-.431-.005-.749-.317-.749-.795 0-.479.317-.79.749-.796.234 0 .447.078.65.224l.26-.437c-.27-.213-.52-.296-.894-.296-.801 0-1.326.55-1.326 1.305zm6.967-1.305a.733.733 0 0 0-.655.364v-.302h-.536v2.485h.541v-1.393c0-.411.177-.64.53-.64.11 0 .224.016.338.063l.167-.51a1.15 1.15 0 0 0-.385-.067zm-14.485.26c-.26-.172-.619-.26-1.014-.26-.63 0-1.035.301-1.035.795 0 .405.302.655.858.733l.255.037c.297.041.436.12.436.26 0 .192-.197.301-.566.301-.374 0-.645-.12-.827-.26l-.254.421c.296.218.67.323 1.076.323.717 0 1.133-.338 1.133-.812 0-.436-.327-.665-.868-.743l-.255-.037c-.234-.03-.421-.077-.421-.244 0-.182.177-.29.473-.29.317 0 .624.119.775.212l.234-.436zm6.972-.26a.732.732 0 0 0-.655.364v-.302h-.535v2.485h.54v-1.393c0-.411.177-.64.53-.64.11 0 .224.016.338.063l.167-.51a1.152 1.152 0 0 0-.385-.067zm-4.611.062H22.5v-.754h-.547v.754h-.504v.494h.505v1.134c0 .576.223.92.862.92.235 0 .505-.073.676-.193l-.155-.463a1 1 0 0 1-.479.14c-.27 0-.358-.166-.358-.415v-1.123h.883v-.494zm-8.08 2.485v-1.56c0-.587-.374-.982-.978-.987-.317-.006-.644.093-.873.442-.172-.276-.442-.442-.822-.442-.265 0-.524.078-.727.369v-.307h-.541v2.485h.545V15.93c0-.432.24-.661.61-.661.358 0 .54.234.54.655v1.383h.546V15.93c0-.432.25-.661.608-.661.369 0 .546.234.546.655v1.383h.546z" fill="#fff"/></symbol><symbol fill="none" viewBox="0 0 72 72" id="money" xmlns="http://www.w3.org/2000/svg"><circle cx="36" cy="36" r="36" fill="#FFDDC4"/><path fill-rule="evenodd" clip-rule="evenodd" d="M24.681 49.429V36.208h5.947c2.52.452 5.042 1.819 7.563 3.406h4.619c2.09.126 3.185 2.245 1.154 3.637-1.62 1.188-3.756 1.12-5.946.924-1.51-.075-1.577 1.956 0 1.963.546.042 1.142-.086 1.661-.087 2.734-.002 4.986-.525 6.364-2.685l.693-1.616 6.87-3.406c3.438-1.133 5.881 2.464 3.349 4.965-4.976 3.62-10.08 6.6-15.3 9.006-3.791 2.306-7.582 2.228-11.374 0l-5.6-2.886zM29.186 18l25.57 6.852-3.563 13.295-25.57-6.852L29.186 18zm12.055 6.166a4.047 4.047 0 0 1 2.864 4.96 4.047 4.047 0 0 1-4.961 2.865 4.047 4.047 0 0 1-2.864-4.961 4.047 4.047 0 0 1 4.96-2.864zm-8.325-2.996l17.001 4.556a2.037 2.037 0 0 0 1.438 2.49l-1.408 5.255a2.037 2.037 0 0 0-2.49 1.438l-17.002-4.556a2.037 2.037 0 0 0-1.437-2.49l1.408-5.255c1.082.29 2.2-.356 2.49-1.438zM14 34.937h8.891v15.82H14v-15.82z" fill="#F06313"/></symbol><symbol fill="none" viewBox="0 0 50 32" id="paypal" xmlns="http://www.w3.org/2000/svg"><rect width="50" height="32" rx="3" fill="#082069"/><path d="M14.874 20.9H12.8a.288.288 0 0 0-.284.243l-.839 5.315c-.016.105.065.2.171.2h.99a.288.288 0 0 0 .284-.244l.226-1.433a.288.288 0 0 1 .285-.244h.656c1.365 0 2.153-.66 2.359-1.97.093-.572.004-1.023-.264-1.338-.295-.346-.817-.529-1.511-.529zm.239 1.941c-.113.744-.682.744-1.231.744h-.313l.22-1.389a.173.173 0 0 1 .17-.146h.144c.374 0 .727 0 .91.214.108.127.142.316.1.577zm5.957-.024h-.993a.173.173 0 0 0-.17.145l-.044.278-.07-.1c-.215-.313-.694-.417-1.172-.417-1.097 0-2.034.83-2.216 1.996-.095.581.04 1.137.37 1.525.302.356.735.505 1.25.505a1.9 1.9 0 0 0 1.373-.568l-.044.275c-.016.106.065.2.17.2h.895a.288.288 0 0 0 .284-.243l.537-3.397a.172.172 0 0 0-.17-.2zm-1.384 1.931a1.106 1.106 0 0 1-1.12.948c-.288 0-.518-.092-.666-.268-.147-.174-.203-.421-.156-.697.09-.562.547-.955 1.112-.955.282 0 .511.093.662.27.151.179.211.428.168.702zm6.67-1.931h-.998a.289.289 0 0 0-.238.126l-1.376 2.026-.583-1.947a.289.289 0 0 0-.276-.205h-.98a.173.173 0 0 0-.165.228l1.1 3.224-1.034 1.458a.173.173 0 0 0 .141.273h.996a.287.287 0 0 0 .237-.124l3.317-4.788a.173.173 0 0 0-.141-.271zm3.302-1.917h-2.073a.288.288 0 0 0-.285.242l-.838 5.315c-.016.105.065.2.17.2h1.064a.202.202 0 0 0 .2-.17l.237-1.507a.288.288 0 0 1 .284-.244h.656c1.366 0 2.154-.66 2.36-1.97.093-.572.003-1.022-.265-1.337-.294-.347-.816-.53-1.51-.53zm.239 1.94c-.113.744-.681.744-1.231.744h-.313l.22-1.389a.172.172 0 0 1 .17-.146h.144c.374 0 .727 0 .91.214.108.127.142.316.1.577zm5.956-.023h-.992a.172.172 0 0 0-.17.145l-.044.278-.07-.1c-.215-.313-.693-.417-1.172-.417-1.096 0-2.033.83-2.215 1.996-.095.581.04 1.137.37 1.525.302.356.734.505 1.25.505.883 0 1.373-.568 1.373-.568l-.044.275c-.017.106.064.2.17.2h.895a.288.288 0 0 0 .284-.243l.537-3.397a.173.173 0 0 0-.172-.2zm-1.383 1.931a1.106 1.106 0 0 1-1.12.948c-.288 0-.519-.092-.666-.268-.147-.174-.202-.421-.156-.697.09-.562.547-.955 1.112-.955.282 0 .51.093.662.27.152.179.212.428.168.702zm2.553-3.703l-.85 5.412c-.017.105.064.2.17.2h.855a.288.288 0 0 0 .285-.244l.839-5.314a.173.173 0 0 0-.17-.2h-.958a.173.173 0 0 0-.17.146z" fill="#fff"/><path opacity=".68" d="M30.116 7.424c.164-1.049-.001-1.762-.568-2.408C28.924 4.305 27.796 4 26.353 4h-4.189a.6.6 0 0 0-.591.506l-1.745 11.06a.36.36 0 0 0 .356.415h2.585l-.178 1.132c-.03.19.117.363.31.363h2.18a.524.524 0 0 0 .518-.443l.021-.11.41-2.604.027-.144a.524.524 0 0 1 .518-.443h.326c2.111 0 3.765-.857 4.248-3.338.202-1.037.097-1.902-.437-2.51a2.077 2.077 0 0 0-.596-.46z" fill="#fff"/><path opacity=".7" d="M30.116 7.424c.164-1.049-.001-1.762-.568-2.408C28.924 4.305 27.796 4 26.353 4h-4.189a.6.6 0 0 0-.591.506l-1.745 11.06a.36.36 0 0 0 .356.415h2.585l.65-4.119-.02.13a.597.597 0 0 1 .59-.507h1.229c2.413 0 4.303-.98 4.855-3.816.017-.084.03-.165.043-.245z" fill="#fff"/><path d="M24.117 7.438a.524.524 0 0 1 .517-.443h3.284c.389 0 .751.026 1.083.08a4.757 4.757 0 0 1 .537.119l.124.038c.163.054.315.118.454.192.165-1.048-.001-1.762-.568-2.408C28.924 4.305 27.796 4 26.353 4h-4.189a.6.6 0 0 0-.591.506l-1.745 11.06a.36.36 0 0 0 .356.415h2.585l.65-4.119.698-4.424z" fill="#fff"/></symbol><symbol fill="none" viewBox="0 0 72 72" id="shield" xmlns="http://www.w3.org/2000/svg"><circle cx="36" cy="36" r="36" fill="#FFDDC4"/><path fill-rule="evenodd" clip-rule="evenodd" d="M35.93 15c7.464 4.726 14.19 6.97 19.98 6.442C56.924 41.892 49.38 53.97 36.008 59c-12.91-4.713-20.547-16.277-19.98-37.875 6.792.357 13.452-1.108 19.9-6.125zm.158 6.997c5.09 3.22 9.68 4.752 13.623 4.396.686 13.94-4.458 22.178-13.57 25.61-.053-.026-.119-.04-.172-.066V22.09l.119-.092zm-.158-4.476c6.607 4.185 12.568 6.165 17.684 5.703.897 18.1-5.789 28.793-17.618 33.254C24.576 52.307 17.81 42.076 18.31 22.96c6.014.317 11.909-.99 17.619-5.425v-.014z" fill="#F06313"/></symbol><symbol fill="none" viewBox="0 0 24 24" id="spinner" xmlns="http://www.w3.org/2000/svg"><path d="M19.1 12c.497 0 .905.404.85.898a8 8 0 1 1-4.455-8.094c.447.217.57.778.304 1.198-.266.42-.82.538-1.274.336a6.2 6.2 0 1 0 3.61 6.56c.071-.493.468-.898.965-.898z" fill="#fff"/></symbol><symbol fill="none" viewBox="0 0 72 72" id="support" xmlns="http://www.w3.org/2000/svg"><circle cx="36" cy="36" r="36" fill="#FFDDC4"/><path d="M47.573 26.9a.735.735 0 0 1-1.47 0v-2.862c0-1.121-.29-2.265-.791-3.313a8.613 8.613 0 0 0-2.152-2.826c-1.885-1.602-4.36-2.408-6.849-2.435-2.519-.027-5.044.742-6.983 2.29a9.51 9.51 0 0 0-2.391 2.821c-.52.954-.84 1.995-.84 3.043v3.309l.02-.006.66.82a48.476 48.476 0 0 1 .001-3.969 7.54 7.54 0 0 1 .243-1.277c1.072-3.832 5.44-6.07 9.24-5.862 2.942.161 5.707 1.237 7.451 3.25 2.445 2.82 1.814 6.29 1.731 9.73.547.167.897.514 1.04 1.075.16.621-.013 1.498-.54 2.694l-.001-.001a.575.575 0 0 1-.033.064l-2.247 3.702c-.865 1.426-1.745 2.856-2.918 3.955l-.034.032c.135.213.284.453.44.705.367.589.777 1.248 1.173 1.812 2.468 1.858 8.784 2.285 11.186 3.625.786.439 1.498.998 2.07 1.753 1.415 1.87 1.524 4.454 2.064 6.737-.126 1.345-.889 2.12-2.39 2.234H16.39c-1.5-.115-2.263-.89-2.389-2.234.54-2.282.649-4.867 2.065-6.737.572-.755 1.282-1.314 2.07-1.753 2.403-1.341 8.724-1.768 11.189-3.628.385-.86.787-2.194 1.036-3.023l.005-.017.098-.319a.506.506 0 0 1 .045-.105c-.706-.842-1.312-1.785-1.896-2.715l-1.93-3.069a1.82 1.82 0 0 1-.433-.081c-1.546-.487-2.83-3.925-2.577-5.546.143-.92.47-1.251.995-1.451a.733.733 0 0 1-.04-.238v-3.466c0-1.302.392-2.581 1.025-3.743a11.001 11.001 0 0 1 2.763-3.27c2.206-1.76 5.065-2.635 7.908-2.604 2.82.03 5.632.95 7.783 2.779a10.103 10.103 0 0 1 2.526 3.314c.595 1.245.94 2.607.94 3.944V26.9zm-7.571 14.82c-1.076.786-2.368 1.277-4.018 1.273-1.911-.005-3.35-.736-4.53-1.816a9.118 9.118 0 0 1-.254-.24c-.327 1.086-.903 2.996-1.443 3.82.622 3.58 2.01 6.14 3.272 8.865l1.74-6.039c-.223-.375-.326-.705-.34-.988-.892.503-1.85.833-2.848 1.057-1.089-1.238-1.18-2.533 0-3.904a11.44 11.44 0 0 1 3.69 1.684c.27-.09.574-.112.865-.066 1.199-.863 2.739-1.204 4.082-1.846 1.592 1.55 1.42 2.977-.145 4.306a10.956 10.956 0 0 1-2.691-1.014 2.41 2.41 0 0 1-.18.771l1.739 6.04c1.347-2.833 2.746-5.645 3.065-8.86-.535-.685-1.097-1.59-1.586-2.376a70.197 70.197 0 0 0-.418-.668zm-9.641-1.096l.005-.016-.005.016zm-2.605-10.285l.854 2.345c.093.272.121.51.084.712l.008-.007c1.34 1.485 2.99 2.559 4.975 3.192.101-.227.24-.43.442-.587.605-.469 2.38-.425 2.929.03.459.38.466 1.252.126 1.708-.708.949-3.659.15-4.646-.168-1.576-.506-3.01-1.73-4.315-2.825l1.342 2.136c.79 1.257 1.62 2.539 2.65 3.48.99.907 2.191 1.52 3.78 1.524 1.72.004 2.979-.633 4-1.59 1.062-.995 1.9-2.358 2.726-3.719l2.22-3.66c.414-.944.565-1.576.47-1.947-.056-.22-.3-.329-.715-.35a3.566 3.566 0 0 0-.27-.003c-.1.003-.203.01-.31.02a.557.557 0 0 1-.172-.011 3.047 3.047 0 0 1-.609-.034l.76-3.367c-5.642.89-9.863-3.303-15.828-.838l.43 3.969a3.5 3.5 0 0 1-.68-.03v.001a3.21 3.21 0 0 0-.251.02z" fill="#F06313"/></symbol><symbol fill="none" viewBox="0 0 50 32" id="transfer" xmlns="http://www.w3.org/2000/svg"><rect width="50" height="32" rx="3" fill="#006E90"/><path d="M7.394 22.835v-4.099H6.192v-1.268h3.867v1.268H8.857v4.099H7.394zm3.38-.001v-5.367h1.53c.598 0 1.015.028 1.251.083.236.055.44.147.61.277.194.146.342.333.446.56.104.228.156.478.156.752 0 .416-.102.753-.306 1.014-.204.26-.502.433-.893.519l1.463 2.162h-1.654l-1.231-2.1v2.1h-1.372zm1.372-2.83h.27c.316 0 .546-.054.692-.161.145-.108.218-.276.218-.506 0-.269-.068-.46-.203-.574-.136-.114-.364-.17-.684-.17h-.293v1.411z" fill="#fff"/><path d="M14.957 22.834l1.852-5.367h1.833l1.855 5.367H19.04l-.271-.96H16.69l-.278.96h-1.456zm2.05-2.005h1.455l-.546-1.77a4.503 4.503 0 0 1-.07-.26l-.114-.463c-.031.132-.063.258-.093.378s-.062.234-.094.344l-.538 1.771zm4.003 2.006v-5.367h1.411l2.028 2.76c.039.056.103.17.192.34.09.169.188.371.295.606-.029-.223-.05-.42-.064-.594a6.033 6.033 0 0 1-.02-.462v-2.65h1.404v5.366h-1.404l-2.027-2.771a3.1 3.1 0 0 1-.197-.34c-.089-.17-.186-.369-.29-.599.028.225.05.424.063.598.014.174.02.328.02.462v2.65H21.01zm6.635-1.735c.218.248.433.432.644.554.211.122.422.184.632.184a.727.727 0 0 0 .482-.158.498.498 0 0 0 .19-.4c0-.178-.055-.316-.164-.412-.109-.097-.355-.196-.739-.299-.525-.142-.897-.326-1.114-.553-.218-.228-.326-.54-.326-.935 0-.513.171-.932.515-1.256.343-.324.788-.485 1.336-.485a2.743 2.743 0 0 1 1.594.479l-.458 1.053a1.921 1.921 0 0 0-.511-.32 1.353 1.353 0 0 0-.52-.11.686.686 0 0 0-.428.127.392.392 0 0 0-.165.325c0 .134.048.242.145.322.096.081.283.158.559.231l.066.019c.596.161.988.338 1.177.531.127.132.223.29.29.475.065.185.098.39.098.614 0 .57-.187 1.027-.56 1.373-.374.346-.873.519-1.496.519a2.66 2.66 0 0 1-1.021-.19 2.89 2.89 0 0 1-.886-.598l.66-1.09zm4.125 1.734v-5.367h3.288v1.177h-1.862v.931h1.756v1.152h-1.756v2.107H31.77zm4.084 0v-5.367h3.288v1.177H37.28v.931h1.756v1.152H37.28v.905h1.862v1.202h-3.288zm4.256 0v-5.367h1.529c.598 0 1.016.028 1.252.083.236.055.44.147.61.277.193.146.342.333.446.56.103.228.155.478.155.752 0 .416-.102.753-.306 1.014-.204.26-.501.433-.892.519l1.462 2.162h-1.653l-1.232-2.1v2.1H40.11zm1.371-2.83h.271c.316 0 .546-.054.691-.161.146-.108.219-.276.219-.506 0-.269-.068-.46-.204-.574-.136-.114-.363-.17-.684-.17h-.293v1.411zm-26.359-3.508V9.339h1.96c.808 0 1.373.027 1.694.079.32.052.597.141.828.269.264.146.465.343.604.589.138.246.208.53.208.853 0 .407-.104.73-.31.97-.208.24-.538.421-.99.545.508.039.905.217 1.192.535.287.318.43.742.43 1.273 0 .382-.08.717-.242 1.007-.161.29-.392.515-.691.675-.245.13-.546.223-.905.279-.358.055-.945.083-1.76.083h-2.018zm1.808-4.297h.392c.482 0 .813-.053.992-.159.179-.106.269-.29.269-.55 0-.27-.084-.46-.252-.57-.168-.108-.495-.163-.98-.163h-.42v1.442zm0 2.835h.685c.462 0 .79-.058.982-.174.192-.115.289-.308.289-.579 0-.3-.088-.509-.264-.628-.176-.119-.502-.178-.978-.178h-.714v1.559zm4.14 1.461l2.469-7.157h2.444l2.473 7.157h-1.94l-.362-1.281h-2.771l-.372 1.28h-1.94zm2.733-2.674h1.94l-.728-2.361a5.9 5.9 0 0 1-.093-.347l-.152-.616a28.86 28.86 0 0 1-.124.503c-.04.16-.082.313-.125.46l-.718 2.36zm5.337 2.674V9.338h1.883l2.703 3.681c.052.075.137.226.256.452.12.227.25.496.394.81-.04-.297-.068-.561-.086-.793a8.08 8.08 0 0 1-.027-.615V9.338h1.873v7.157h-1.873l-2.703-3.696a4.104 4.104 0 0 1-.261-.452 16.416 16.416 0 0 1-.389-.8c.04.3.068.566.086.798.018.23.027.436.027.615v3.535H29.14zm8.53 0V9.338h1.931v3.251l2.263-3.25h2.273l-2.644 3.49 2.874 3.665h-2.434l-2.332-3.21v3.21h-1.93zM13.557 9.32H5.632v1.419h7.925V9.32zm0 2.753H5.632v1.418h7.925v-1.418zm0 3.003H5.632v1.419h7.925v-1.419z" fill="#fff"/></symbol><symbol fill="none" viewBox="0 0 50 32" id="visa" xmlns="http://www.w3.org/2000/svg"><rect width="50" height="32" rx="3" fill="#00579F"/><path d="M22.467 21.535h-3.079L21.314 10.5h3.078l-1.925 11.035zM33.626 10.77a8.113 8.113 0 0 0-2.761-.47c-3.04 0-5.18 1.503-5.194 3.65-.025 1.586 1.533 2.466 2.698 2.995 1.19.54 1.596.892 1.596 1.374-.012.739-.963 1.08-1.849 1.08-1.229 0-1.887-.176-2.888-.587l-.406-.177-.43 2.478c.722.305 2.052.575 3.433.587 3.23 0 5.332-1.48 5.357-3.769.013-1.256-.81-2.219-2.584-3.005-1.076-.505-1.735-.846-1.735-1.362.012-.47.557-.95 1.773-.95 1-.025 1.736.198 2.293.422l.278.117.419-2.383zm4.091 6.856l1.229-3.088c-.013.024.253-.645.405-1.056l.215.95s.583 2.642.71 3.194h-2.56zm3.8-7.126h-2.381c-.735 0-1.293.2-1.61.915l-4.572 10.12h3.23l.646-1.655h3.953c.088.387.367 1.655.367 1.655H44L41.517 10.5zm-24.7 0l-3.014 7.525-.33-1.526c-.557-1.761-2.305-3.674-4.256-4.626l2.762 9.65h3.255L20.072 10.5h-3.255z" fill="#fff"/><path d="M11.003 10.5H6.051L6 10.723c3.863.916 6.422 3.123 7.473 5.776l-1.076-5.071c-.178-.705-.722-.905-1.394-.928z" fill="#FAA61A"/></symbol></svg>