<?xml version="1.0" encoding="utf-8"?>
<!-- Generator: Adobe Illustrator 22.1.0, SVG Export Plug-In . SVG Version: 6.00 Build 0)  -->
<svg version="1.1" xmlns="http://www.w3.org/2000/svg" xmlns:xlink="http://www.w3.org/1999/xlink" x="0px" y="0px"
	 viewBox="0 0 77 40" style="enable-background:new 0 0 77 40;" xml:space="preserve">
<style type="text/css">
	.st0{fill:url(#SVGID_1_);}
	.st1{fill:url(#SVGID_2_);}
	.st2{fill:url(#SVGID_3_);}
	.st3{fill:url(#SVGID_4_);}
</style>
<g id="Layer_2">
	<linearGradient id="SVGID_1_" gradientUnits="userSpaceOnUse" x1="18.547" y1="37.9621" x2="18.547" y2="2.6572">
		<stop  offset="0" style="stop-color:#FF5858"/>
		<stop  offset="1" style="stop-color:#F09819"/>
	</linearGradient>
	<path class="st0" d="M10.1,7.3c-2.4,0.5-4.8,1-7.2,1.4c-0.1-0.6-0.5-1.4-0.8-2c5.3-1,11.4-2.4,14.6-4l2.4,2
		c-0.2,0.1-0.2,0.1-0.8,0.1c-1.6,0.7-3.6,1.3-5.8,1.9v7.5h6.5v2.4h-6.5v2.3c1.6,1.4,5.5,5.4,6.5,6.5l-1.6,2.1
		c-0.9-1.3-3.2-3.9-4.9-5.8V38h-2.5V20.3c-1.9,4.6-4.5,9.2-7,11.9c-0.3-0.7-1-1.7-1.4-2.3c2.9-3,6-8.4,7.8-13.4H2.1v-2.4h8V7.3z
		 M20.7,6.8h14.8v29.8h-2.6V34h-9.7v3h-2.5V6.8z M23.2,31.5h9.7V9.3h-9.7V31.5z"/>
	<linearGradient id="SVGID_2_" gradientUnits="userSpaceOnUse" x1="57.5823" y1="38" x2="57.5823" y2="5.2822">
		<stop  offset="0" style="stop-color:#FF5858"/>
		<stop  offset="1" style="stop-color:#F09819"/>
	</linearGradient>
	<path class="st1" d="M74.8,21.7v2.5H58.8V38h-2.6V24.2H40.3v-2.5h15.8V7.8H42.3V5.3h30.3v2.5H58.8v13.8H74.8z M48.8,19.5
		c-0.5-2.4-2-6.2-3.7-9.1l2.3-0.7c1.7,2.8,3.3,6.5,3.8,8.9L48.8,19.5z M70.8,10.6c-0.1,0.3-0.4,0.3-0.8,0.4c-1.1,2.6-3,6.4-4.5,8.8
		l-2.2-0.9c1.5-2.4,3.4-6.5,4.4-9.4L70.8,10.6z"/>
	<linearGradient id="SVGID_3_" gradientUnits="userSpaceOnUse" x1="22.0647" y1="209.4648" x2="22.0647" y2="165.8521">
		<stop  offset="0" style="stop-color:#FF5858"/>
		<stop  offset="1" style="stop-color:#F09819"/>
	</linearGradient>
	<path class="st2" d="M23.6,174.5h17.6v22.1h-3.2v-2.8H23.6v15.6h-3.3v-15.6H6.1v3H3v-22.4h17.3v-8.6l4.2,0.3c0,0.3-0.3,0.6-0.9,0.7
		V174.5z M6.1,190.7h14.1v-13.1H6.1V190.7z M23.6,190.7h14.3v-13.1H23.6V190.7z"/>
	<linearGradient id="SVGID_4_" gradientUnits="userSpaceOnUse" x1="69.1821" y1="209.6533" x2="69.1821" y2="168.1548">
		<stop  offset="0" style="stop-color:#FF5858"/>
		<stop  offset="1" style="stop-color:#F09819"/>
	</linearGradient>
	<path class="st3" d="M49.4,168.2h39.5v41.5h-3.2v-2.3H52.5v2.3h-3.1V168.2z M52.5,204.4h33.2v-33.2H52.5V204.4z M70.4,197h12.2v2.8
		H56.1V197h11.3v-8.6h-9.2v-2.7h9.2v-7.4H56.8v-2.7h24.7v2.7H70.4v7.4h10v2.7h-10V197z M78.5,196.1c-1-1.5-3.1-3.9-4.8-5.5l2.1-1.1
		c1.8,1.6,3.9,3.8,5,5.3L78.5,196.1z"/>
</g>
<g id="Layer_1">
</g>
</svg>
