<?xml version="1.0" encoding="utf-8"?>
<!-- Generator: Adobe Illustrator 22.1.0, SVG Export Plug-In . SVG Version: 6.00 Build 0)  -->
<svg version="1.1" xmlns="http://www.w3.org/2000/svg" xmlns:xlink="http://www.w3.org/1999/xlink" x="0px" y="0px"
	 viewBox="0 0 77 40" style="enable-background:new 0 0 77 40;" xml:space="preserve">
<style type="text/css">
	.st0{fill:url(#SVGID_1_);}
	.st1{fill:url(#SVGID_2_);}
</style>
<g id="Layer_2">
	<linearGradient id="SVGID_1_" gradientUnits="userSpaceOnUse" x1="18.1914" y1="38.8974" x2="18.1914" y2="1.8521">
		<stop  offset="0" style="stop-color:#FF5858"/>
		<stop  offset="1" style="stop-color:#F09819"/>
	</linearGradient>
	<path class="st0" d="M19.5,9.2h14.9V28h-2.8v-2.4H19.5v13.3h-2.8V25.6h-12v2.6H2v-19h14.7V1.9l3.6,0.2c0,0.3-0.3,0.5-0.8,0.6V9.2z
		 M4.7,22.9h12V11.8h-12V22.9z M19.5,22.9h12.2V11.8H19.5V22.9z"/>
	<linearGradient id="SVGID_2_" gradientUnits="userSpaceOnUse" x1="58.2137" y1="39.0575" x2="58.2137" y2="3.808">
		<stop  offset="0" style="stop-color:#FF5858"/>
		<stop  offset="1" style="stop-color:#F09819"/>
	</linearGradient>
	<path class="st1" d="M41.4,3.8H75v35.2h-2.8v-2H44.1v2h-2.6V3.8z M44.1,34.6h28.2V6.4H44.1V34.6z M59.2,28.3h10.3v2.4H47.1v-2.4
		h9.6v-7.3h-7.8v-2.3h7.8v-6.3h-9v-2.3h21v2.3h-9.5v6.3h8.5v2.3h-8.5V28.3z M66.1,27.6c-0.8-1.3-2.6-3.3-4.1-4.7l1.8-1
		c1.6,1.4,3.4,3.2,4.2,4.5L66.1,27.6z"/>
</g>
<g id="Layer_1">
</g>
</svg>
