<?xml version="1.0" encoding="utf-8"?>
<!-- Generator: Adobe Illustrator 22.1.0, SVG Export Plug-In . SVG Version: 6.00 Build 0)  -->
<svg version="1.1" id="Layer_1" xmlns="http://www.w3.org/2000/svg" xmlns:xlink="http://www.w3.org/1999/xlink" x="0px" y="0px"
	 viewBox="0 0 45 40" style="enable-background:new 0 0 45 40;" xml:space="preserve">
<style type="text/css">
	.st0{display:none;}
	.st1{display:inline;fill:url(#SVGID_1_);}
	.st2{display:inline;fill:url(#SVGID_2_);}
	.st3{display:inline;fill:url(#SVGID_3_);}
	.st4{display:inline;fill:url(#SVGID_4_);}
	.st5{display:inline;fill:url(#SVGID_5_);}
	.st6{fill:url(#SVGID_6_);}
</style>
<g id="Layer_2_1_" class="st0">
	
		<linearGradient id="SVGID_1_" gradientUnits="userSpaceOnUse" x1="22.15" y1="-54.3" x2="22.15" y2="-12.6" gradientTransform="matrix(1 0 0 -1 0 42)">
		<stop  offset="0" style="stop-color:#FF5858"/>
		<stop  offset="1" style="stop-color:#F09819"/>
	</linearGradient>
	<path class="st1" d="M24.4,54.9c0,0.4-0.4,0.6-1,0.7L23.3,57c0.5,6.6,3.3,28.6,21.2,36.7c-0.9,0.7-1.9,1.8-2.4,2.6
		c-12.7-6-18-18.8-20.2-28.5l0,0c-2,9.5-6.8,21.8-19.6,28.5c-0.6-0.8-1.6-1.7-2.5-2.4c19.7-9.8,19.8-33,20.2-39.3L24.4,54.9z"/>
	
		<linearGradient id="SVGID_2_" gradientUnits="userSpaceOnUse" x1="20.9" y1="-111.1118" x2="20.9" y2="-67.4985" gradientTransform="matrix(1 0 0 -1 0 42)">
		<stop  offset="0" style="stop-color:#FF5858"/>
		<stop  offset="1" style="stop-color:#F09819"/>
	</linearGradient>
	<path class="st2" d="M10.5,115.2c-2.9,0.7-6,1.3-8.8,1.7c-0.1-0.7-0.6-1.7-1-2.4c6.6-1.2,14.1-3,18.1-5l2.9,2.4
		c-0.2,0.1-0.3,0.1-0.9,0.1c-1.9,0.8-4.4,1.6-7.2,2.3v9.2h8.1v3h-8.1v2.8c2,1.8,6.8,6.7,8,8l-2,2.6c-1.1-1.6-3.9-4.8-6-7.2V153h-3.1
		v-21.8C8.1,137,4.9,142.7,1.8,146c-0.4-0.9-1.2-2.1-1.8-2.9c3.6-3.7,7.4-10.4,9.6-16.5h-9v-3h9.8L10.5,115.2L10.5,115.2z
		 M23.5,114.7h18.3v36.8h-3.2v-3.3h-12v3.7h-3.1V114.7z M26.6,145.1h11.9v-27.4H26.6V145.1z"/>
	
		<linearGradient id="SVGID_3_" gradientUnits="userSpaceOnUse" x1="69.1" y1="-111.1587" x2="69.1" y2="-70.7412" gradientTransform="matrix(1 0 0 -1 0 42)">
		<stop  offset="0" style="stop-color:#FF5858"/>
		<stop  offset="1" style="stop-color:#F09819"/>
	</linearGradient>
	<path class="st3" d="M90.4,133v3.1H70.6v17h-3.2v-17H47.8V133h19.6v-17.1H50.3v-3.1h37.5v3.1H70.6V133H90.4z M58.3,130.4
		c-0.6-3-2.5-7.6-4.5-11.2l2.9-0.9c2.1,3.5,4.1,8.1,4.7,11L58.3,130.4z M85.4,119.4c-0.1,0.3-0.5,0.4-1,0.5
		c-1.4,3.2-3.7,7.9-5.6,10.9l-2.7-1.1c1.8-3,4.2-8,5.4-11.6L85.4,119.4z"/>
	
		<linearGradient id="SVGID_4_" gradientUnits="userSpaceOnUse" x1="22.1" y1="-167.4648" x2="22.1" y2="-123.8648" gradientTransform="matrix(1 0 0 -1 0 42)">
		<stop  offset="0" style="stop-color:#FF5858"/>
		<stop  offset="1" style="stop-color:#F09819"/>
	</linearGradient>
	<path class="st4" d="M23.6,174.5h17.6v22.1H38v-2.8H23.6v15.6h-3.3v-15.6H6.1v3H3v-22.4h17.3v-8.6l4.2,0.3c0,0.3-0.3,0.6-0.9,0.7
		V174.5z M6.1,190.7h14.1v-13.1H6.1V190.7z M23.6,190.7h14.3v-13.1H23.6V190.7z"/>
	
		<linearGradient id="SVGID_5_" gradientUnits="userSpaceOnUse" x1="69.15" y1="-167.6533" x2="69.15" y2="-126.1533" gradientTransform="matrix(1 0 0 -1 0 42)">
		<stop  offset="0" style="stop-color:#FF5858"/>
		<stop  offset="1" style="stop-color:#F09819"/>
	</linearGradient>
	<path class="st5" d="M49.4,168.2h39.5v41.5h-3.2v-2.3H52.5v2.3h-3.1V168.2z M52.5,204.4h33.2v-33.2H52.5V204.4z M70.4,197h12.2v2.8
		H56.1V197h11.3v-8.6h-9.2v-2.7h9.2v-7.4H56.8v-2.7h24.7v2.7H70.4v7.4h10v2.7h-10V197z M78.5,196.1c-1-1.5-3.1-3.9-4.8-5.5l2.1-1.1
		c1.8,1.6,3.9,3.8,5,5.3L78.5,196.1z"/>
</g>
<g>
	<linearGradient id="SVGID_6_" gradientUnits="userSpaceOnUse" x1="3.3453" y1="20" x2="41.6547" y2="20">
		<stop  offset="0" style="stop-color:#FF5858"/>
		<stop  offset="1" style="stop-color:#F09819"/>
	</linearGradient>
	<path class="st6" d="M18.6,33.1c-2.6,1.9-5.4,3.6-8.4,5.2l-1.3-1.6c0.2-0.5,0.3-1.1,0.3-1.7V24.1H3.8v-2.2h5.4v-6.5H6.6
		c-0.6,1-1,1.8-1.4,2.4l-1.9-1.5c2.6-4,4.5-9.2,5.8-15.5l2.1,0.4C11,2.5,10.6,4.1,10.1,6h8.1v2.1H9.4c-0.8,2.4-1.4,4.1-1.9,5.1h9.2
		v2.1h-5.3v6.5h6.3v2.2h-6.3v11.1c2.7-1.6,4.8-2.9,6.3-4L18.6,33.1z M41.7,31.2c-0.7,5.4-2.1,8-4.2,8c-0.9,0-2-0.5-3.3-1.5
		c-1.3-1-2.5-2.4-3.7-4.3c-3.4,2.4-7.2,4.3-11.5,5.8l-1.3-2.1c4.2-1.2,8.1-3.1,11.7-5.6c-1.3-2.9-2.2-6.1-2.6-9.8l-7.3,1.3L19,21
		l7.5-1.3c-0.1-1.2-0.3-3.3-0.4-6.4l-6.5,1.2l-0.4-2.1l6.8-1.3c-0.1-3.6-0.1-6.9-0.1-10l2.2,0c-0.1,2.1,0,5.3,0.1,9.6l11.3-2
		l0.3,2.1l-11.4,2c0,2.1,0.1,4.2,0.3,6.5l12.3-2.2l0.4,2.1L29,21.4c0.4,3.6,1.2,6.5,2.3,8.6c2.3-2.1,4.4-4.6,6.3-7.7l1.9,1
		c-2.2,3.5-4.6,6.4-7.2,8.6c0.7,1.1,1.6,2.2,2.6,3.2c1.1,1,1.9,1.5,2.3,1.5c0.3,0,0.5-0.1,0.7-0.2c0.2-0.2,0.5-0.8,0.9-2
		c0.4-1.2,0.7-2.6,0.8-4.3L41.7,31.2z M38.3,5.8l-1.4,1.7c-1.6-1.4-3.4-2.6-5.5-3.8l1.4-1.8C34.9,3.1,36.7,4.4,38.3,5.8z"/>
</g>
</svg>
